<?xml version="1.0" encoding="utf-8" standalone="no"?>
<!DOCTYPE svg PUBLIC "-//W3C//DTD SVG 1.1//EN"
  "http://www.w3.org/Graphics/SVG/1.1/DTD/svg11.dtd">
<!-- Created with matplotlib (https://matplotlib.org/) -->
<svg height="432pt" version="1.1" viewBox="0 0 720 432" width="720pt" xmlns="http://www.w3.org/2000/svg" xmlns:xlink="http://www.w3.org/1999/xlink">
 <metadata>
  <rdf:RDF xmlns:cc="http://creativecommons.org/ns#" xmlns:dc="http://purl.org/dc/elements/1.1/" xmlns:rdf="http://www.w3.org/1999/02/22-rdf-syntax-ns#">
   <cc:Work>
    <dc:type rdf:resource="http://purl.org/dc/dcmitype/StillImage"/>
    <dc:date>2022-02-25T09:51:18.852035</dc:date>
    <dc:format>image/svg+xml</dc:format>
    <dc:creator>
     <cc:Agent>
      <dc:title>Matplotlib v3.3.2, https://matplotlib.org/</dc:title>
     </cc:Agent>
    </dc:creator>
   </cc:Work>
  </rdf:RDF>
 </metadata>
 <defs>
  <style type="text/css">*{stroke-linecap:butt;stroke-linejoin:round;}</style>
 </defs>
 <g id="figure_1">
  <g id="patch_1">
   <path d="M 0 432 
L 720 432 
L 720 0 
L 0 0 
z
" style="fill:none;"/>
  </g>
  <g id="axes_1">
   <g id="patch_2">
    <path d="M 90 378 
L 648 378 
L 648 51.84 
L 90 51.84 
z
" style="fill:#ffffff;"/>
   </g>
   <g id="matplotlib.axis_1">
    <g id="xtick_1">
     <g id="line2d_1">
      <defs>
       <path d="M 0 0 
L 0 3.5 
" id="m7bb00280ed" style="stroke:#000000;stroke-width:0.8;"/>
      </defs>
      <g>
       <use style="stroke:#000000;stroke-width:0.8;" x="115.363636" xlink:href="#m7bb00280ed" y="378"/>
      </g>
     </g>
     <g id="text_1">
      <!-- 0 -->
      <g transform="translate(109.001136 400.196875)scale(0.2 -0.2)">
       <defs>
        <path d="M 31.78125 66.40625 
Q 24.171875 66.40625 20.328125 58.90625 
Q 16.5 51.421875 16.5 36.375 
Q 16.5 21.390625 20.328125 13.890625 
Q 24.171875 6.390625 31.78125 6.390625 
Q 39.453125 6.390625 43.28125 13.890625 
Q 47.125 21.390625 47.125 36.375 
Q 47.125 51.421875 43.28125 58.90625 
Q 39.453125 66.40625 31.78125 66.40625 
z
M 31.78125 74.21875 
Q 44.046875 74.21875 50.515625 64.515625 
Q 56.984375 54.828125 56.984375 36.375 
Q 56.984375 17.96875 50.515625 8.265625 
Q 44.046875 -1.421875 31.78125 -1.421875 
Q 19.53125 -1.421875 13.0625 8.265625 
Q 6.59375 17.96875 6.59375 36.375 
Q 6.59375 54.828125 13.0625 64.515625 
Q 19.53125 74.21875 31.78125 74.21875 
z
" id="DejaVuSans-48"/>
       </defs>
       <use xlink:href="#DejaVuSans-48"/>
      </g>
     </g>
    </g>
    <g id="xtick_2">
     <g id="line2d_2">
      <g>
       <use style="stroke:#000000;stroke-width:0.8;" x="220.672486" xlink:href="#m7bb00280ed" y="378"/>
      </g>
     </g>
     <g id="text_2">
      <!-- 2000 -->
      <g transform="translate(195.222486 400.196875)scale(0.2 -0.2)">
       <defs>
        <path d="M 19.1875 8.296875 
L 53.609375 8.296875 
L 53.609375 0 
L 7.328125 0 
L 7.328125 8.296875 
Q 12.9375 14.109375 22.625 23.890625 
Q 32.328125 33.6875 34.8125 36.53125 
Q 39.546875 41.84375 41.421875 45.53125 
Q 43.3125 49.21875 43.3125 52.78125 
Q 43.3125 58.59375 39.234375 62.25 
Q 35.15625 65.921875 28.609375 65.921875 
Q 23.96875 65.921875 18.8125 64.3125 
Q 13.671875 62.703125 7.8125 59.421875 
L 7.8125 69.390625 
Q 13.765625 71.78125 18.9375 73 
Q 24.125 74.21875 28.421875 74.21875 
Q 39.75 74.21875 46.484375 68.546875 
Q 53.21875 62.890625 53.21875 53.421875 
Q 53.21875 48.921875 51.53125 44.890625 
Q 49.859375 40.875 45.40625 35.40625 
Q 44.1875 33.984375 37.640625 27.21875 
Q 31.109375 20.453125 19.1875 8.296875 
z
" id="DejaVuSans-50"/>
       </defs>
       <use xlink:href="#DejaVuSans-50"/>
       <use x="63.623047" xlink:href="#DejaVuSans-48"/>
       <use x="127.246094" xlink:href="#DejaVuSans-48"/>
       <use x="190.869141" xlink:href="#DejaVuSans-48"/>
      </g>
     </g>
    </g>
    <g id="xtick_3">
     <g id="line2d_3">
      <g>
       <use style="stroke:#000000;stroke-width:0.8;" x="325.981335" xlink:href="#m7bb00280ed" y="378"/>
      </g>
     </g>
     <g id="text_3">
      <!-- 4000 -->
      <g transform="translate(300.531335 400.196875)scale(0.2 -0.2)">
       <defs>
        <path d="M 37.796875 64.3125 
L 12.890625 25.390625 
L 37.796875 25.390625 
z
M 35.203125 72.90625 
L 47.609375 72.90625 
L 47.609375 25.390625 
L 58.015625 25.390625 
L 58.015625 17.1875 
L 47.609375 17.1875 
L 47.609375 0 
L 37.796875 0 
L 37.796875 17.1875 
L 4.890625 17.1875 
L 4.890625 26.703125 
z
" id="DejaVuSans-52"/>
       </defs>
       <use xlink:href="#DejaVuSans-52"/>
       <use x="63.623047" xlink:href="#DejaVuSans-48"/>
       <use x="127.246094" xlink:href="#DejaVuSans-48"/>
       <use x="190.869141" xlink:href="#DejaVuSans-48"/>
      </g>
     </g>
    </g>
    <g id="xtick_4">
     <g id="line2d_4">
      <g>
       <use style="stroke:#000000;stroke-width:0.8;" x="431.290184" xlink:href="#m7bb00280ed" y="378"/>
      </g>
     </g>
     <g id="text_4">
      <!-- 6000 -->
      <g transform="translate(405.840184 400.196875)scale(0.2 -0.2)">
       <defs>
        <path d="M 33.015625 40.375 
Q 26.375 40.375 22.484375 35.828125 
Q 18.609375 31.296875 18.609375 23.390625 
Q 18.609375 15.53125 22.484375 10.953125 
Q 26.375 6.390625 33.015625 6.390625 
Q 39.65625 6.390625 43.53125 10.953125 
Q 47.40625 15.53125 47.40625 23.390625 
Q 47.40625 31.296875 43.53125 35.828125 
Q 39.65625 40.375 33.015625 40.375 
z
M 52.59375 71.296875 
L 52.59375 62.3125 
Q 48.875 64.0625 45.09375 64.984375 
Q 41.3125 65.921875 37.59375 65.921875 
Q 27.828125 65.921875 22.671875 59.328125 
Q 17.53125 52.734375 16.796875 39.40625 
Q 19.671875 43.65625 24.015625 45.921875 
Q 28.375 48.1875 33.59375 48.1875 
Q 44.578125 48.1875 50.953125 41.515625 
Q 57.328125 34.859375 57.328125 23.390625 
Q 57.328125 12.15625 50.6875 5.359375 
Q 44.046875 -1.421875 33.015625 -1.421875 
Q 20.359375 -1.421875 13.671875 8.265625 
Q 6.984375 17.96875 6.984375 36.375 
Q 6.984375 53.65625 15.1875 63.9375 
Q 23.390625 74.21875 37.203125 74.21875 
Q 40.921875 74.21875 44.703125 73.484375 
Q 48.484375 72.75 52.59375 71.296875 
z
" id="DejaVuSans-54"/>
       </defs>
       <use xlink:href="#DejaVuSans-54"/>
       <use x="63.623047" xlink:href="#DejaVuSans-48"/>
       <use x="127.246094" xlink:href="#DejaVuSans-48"/>
       <use x="190.869141" xlink:href="#DejaVuSans-48"/>
      </g>
     </g>
    </g>
    <g id="xtick_5">
     <g id="line2d_5">
      <g>
       <use style="stroke:#000000;stroke-width:0.8;" x="536.599034" xlink:href="#m7bb00280ed" y="378"/>
      </g>
     </g>
     <g id="text_5">
      <!-- 8000 -->
      <g transform="translate(511.149034 400.196875)scale(0.2 -0.2)">
       <defs>
        <path d="M 31.78125 34.625 
Q 24.75 34.625 20.71875 30.859375 
Q 16.703125 27.09375 16.703125 20.515625 
Q 16.703125 13.921875 20.71875 10.15625 
Q 24.75 6.390625 31.78125 6.390625 
Q 38.8125 6.390625 42.859375 10.171875 
Q 46.921875 13.96875 46.921875 20.515625 
Q 46.921875 27.09375 42.890625 30.859375 
Q 38.875 34.625 31.78125 34.625 
z
M 21.921875 38.8125 
Q 15.578125 40.375 12.03125 44.71875 
Q 8.5 49.078125 8.5 55.328125 
Q 8.5 64.0625 14.71875 69.140625 
Q 20.953125 74.21875 31.78125 74.21875 
Q 42.671875 74.21875 48.875 69.140625 
Q 55.078125 64.0625 55.078125 55.328125 
Q 55.078125 49.078125 51.53125 44.71875 
Q 48 40.375 41.703125 38.8125 
Q 48.828125 37.15625 52.796875 32.3125 
Q 56.78125 27.484375 56.78125 20.515625 
Q 56.78125 9.90625 50.3125 4.234375 
Q 43.84375 -1.421875 31.78125 -1.421875 
Q 19.734375 -1.421875 13.25 4.234375 
Q 6.78125 9.90625 6.78125 20.515625 
Q 6.78125 27.484375 10.78125 32.3125 
Q 14.796875 37.15625 21.921875 38.8125 
z
M 18.3125 54.390625 
Q 18.3125 48.734375 21.84375 45.5625 
Q 25.390625 42.390625 31.78125 42.390625 
Q 38.140625 42.390625 41.71875 45.5625 
Q 45.3125 48.734375 45.3125 54.390625 
Q 45.3125 60.0625 41.71875 63.234375 
Q 38.140625 66.40625 31.78125 66.40625 
Q 25.390625 66.40625 21.84375 63.234375 
Q 18.3125 60.0625 18.3125 54.390625 
z
" id="DejaVuSans-56"/>
       </defs>
       <use xlink:href="#DejaVuSans-56"/>
       <use x="63.623047" xlink:href="#DejaVuSans-48"/>
       <use x="127.246094" xlink:href="#DejaVuSans-48"/>
       <use x="190.869141" xlink:href="#DejaVuSans-48"/>
      </g>
     </g>
    </g>
    <g id="xtick_6">
     <g id="line2d_6">
      <g>
       <use style="stroke:#000000;stroke-width:0.8;" x="641.907883" xlink:href="#m7bb00280ed" y="378"/>
      </g>
     </g>
     <g id="text_6">
      <!-- 10000 -->
      <g transform="translate(610.095383 400.196875)scale(0.2 -0.2)">
       <defs>
        <path d="M 12.40625 8.296875 
L 28.515625 8.296875 
L 28.515625 63.921875 
L 10.984375 60.40625 
L 10.984375 69.390625 
L 28.421875 72.90625 
L 38.28125 72.90625 
L 38.28125 8.296875 
L 54.390625 8.296875 
L 54.390625 0 
L 12.40625 0 
z
" id="DejaVuSans-49"/>
       </defs>
       <use xlink:href="#DejaVuSans-49"/>
       <use x="63.623047" xlink:href="#DejaVuSans-48"/>
       <use x="127.246094" xlink:href="#DejaVuSans-48"/>
       <use x="190.869141" xlink:href="#DejaVuSans-48"/>
       <use x="254.492188" xlink:href="#DejaVuSans-48"/>
      </g>
     </g>
    </g>
    <g id="text_7">
     <!-- timeline (days) -->
     <g transform="translate(293.775 423.553125)scale(0.2 -0.2)">
      <defs>
       <path d="M 18.3125 70.21875 
L 18.3125 54.6875 
L 36.8125 54.6875 
L 36.8125 47.703125 
L 18.3125 47.703125 
L 18.3125 18.015625 
Q 18.3125 11.328125 20.140625 9.421875 
Q 21.96875 7.515625 27.59375 7.515625 
L 36.8125 7.515625 
L 36.8125 0 
L 27.59375 0 
Q 17.1875 0 13.234375 3.875 
Q 9.28125 7.765625 9.28125 18.015625 
L 9.28125 47.703125 
L 2.6875 47.703125 
L 2.6875 54.6875 
L 9.28125 54.6875 
L 9.28125 70.21875 
z
" id="DejaVuSans-116"/>
       <path d="M 9.421875 54.6875 
L 18.40625 54.6875 
L 18.40625 0 
L 9.421875 0 
z
M 9.421875 75.984375 
L 18.40625 75.984375 
L 18.40625 64.59375 
L 9.421875 64.59375 
z
" id="DejaVuSans-105"/>
       <path d="M 52 44.1875 
Q 55.375 50.25 60.0625 53.125 
Q 64.75 56 71.09375 56 
Q 79.640625 56 84.28125 50.015625 
Q 88.921875 44.046875 88.921875 33.015625 
L 88.921875 0 
L 79.890625 0 
L 79.890625 32.71875 
Q 79.890625 40.578125 77.09375 44.375 
Q 74.3125 48.1875 68.609375 48.1875 
Q 61.625 48.1875 57.5625 43.546875 
Q 53.515625 38.921875 53.515625 30.90625 
L 53.515625 0 
L 44.484375 0 
L 44.484375 32.71875 
Q 44.484375 40.625 41.703125 44.40625 
Q 38.921875 48.1875 33.109375 48.1875 
Q 26.21875 48.1875 22.15625 43.53125 
Q 18.109375 38.875 18.109375 30.90625 
L 18.109375 0 
L 9.078125 0 
L 9.078125 54.6875 
L 18.109375 54.6875 
L 18.109375 46.1875 
Q 21.1875 51.21875 25.484375 53.609375 
Q 29.78125 56 35.6875 56 
Q 41.65625 56 45.828125 52.96875 
Q 50 49.953125 52 44.1875 
z
" id="DejaVuSans-109"/>
       <path d="M 56.203125 29.59375 
L 56.203125 25.203125 
L 14.890625 25.203125 
Q 15.484375 15.921875 20.484375 11.0625 
Q 25.484375 6.203125 34.421875 6.203125 
Q 39.59375 6.203125 44.453125 7.46875 
Q 49.3125 8.734375 54.109375 11.28125 
L 54.109375 2.78125 
Q 49.265625 0.734375 44.1875 -0.34375 
Q 39.109375 -1.421875 33.890625 -1.421875 
Q 20.796875 -1.421875 13.15625 6.1875 
Q 5.515625 13.8125 5.515625 26.8125 
Q 5.515625 40.234375 12.765625 48.109375 
Q 20.015625 56 32.328125 56 
Q 43.359375 56 49.78125 48.890625 
Q 56.203125 41.796875 56.203125 29.59375 
z
M 47.21875 32.234375 
Q 47.125 39.59375 43.09375 43.984375 
Q 39.0625 48.390625 32.421875 48.390625 
Q 24.90625 48.390625 20.390625 44.140625 
Q 15.875 39.890625 15.1875 32.171875 
z
" id="DejaVuSans-101"/>
       <path d="M 9.421875 75.984375 
L 18.40625 75.984375 
L 18.40625 0 
L 9.421875 0 
z
" id="DejaVuSans-108"/>
       <path d="M 54.890625 33.015625 
L 54.890625 0 
L 45.90625 0 
L 45.90625 32.71875 
Q 45.90625 40.484375 42.875 44.328125 
Q 39.84375 48.1875 33.796875 48.1875 
Q 26.515625 48.1875 22.3125 43.546875 
Q 18.109375 38.921875 18.109375 30.90625 
L 18.109375 0 
L 9.078125 0 
L 9.078125 54.6875 
L 18.109375 54.6875 
L 18.109375 46.1875 
Q 21.34375 51.125 25.703125 53.5625 
Q 30.078125 56 35.796875 56 
Q 45.21875 56 50.046875 50.171875 
Q 54.890625 44.34375 54.890625 33.015625 
z
" id="DejaVuSans-110"/>
       <path id="DejaVuSans-32"/>
       <path d="M 31 75.875 
Q 24.46875 64.65625 21.28125 53.65625 
Q 18.109375 42.671875 18.109375 31.390625 
Q 18.109375 20.125 21.3125 9.0625 
Q 24.515625 -2 31 -13.1875 
L 23.1875 -13.1875 
Q 15.875 -1.703125 12.234375 9.375 
Q 8.59375 20.453125 8.59375 31.390625 
Q 8.59375 42.28125 12.203125 53.3125 
Q 15.828125 64.359375 23.1875 75.875 
z
" id="DejaVuSans-40"/>
       <path d="M 45.40625 46.390625 
L 45.40625 75.984375 
L 54.390625 75.984375 
L 54.390625 0 
L 45.40625 0 
L 45.40625 8.203125 
Q 42.578125 3.328125 38.25 0.953125 
Q 33.9375 -1.421875 27.875 -1.421875 
Q 17.96875 -1.421875 11.734375 6.484375 
Q 5.515625 14.40625 5.515625 27.296875 
Q 5.515625 40.1875 11.734375 48.09375 
Q 17.96875 56 27.875 56 
Q 33.9375 56 38.25 53.625 
Q 42.578125 51.265625 45.40625 46.390625 
z
M 14.796875 27.296875 
Q 14.796875 17.390625 18.875 11.75 
Q 22.953125 6.109375 30.078125 6.109375 
Q 37.203125 6.109375 41.296875 11.75 
Q 45.40625 17.390625 45.40625 27.296875 
Q 45.40625 37.203125 41.296875 42.84375 
Q 37.203125 48.484375 30.078125 48.484375 
Q 22.953125 48.484375 18.875 42.84375 
Q 14.796875 37.203125 14.796875 27.296875 
z
" id="DejaVuSans-100"/>
       <path d="M 34.28125 27.484375 
Q 23.390625 27.484375 19.1875 25 
Q 14.984375 22.515625 14.984375 16.5 
Q 14.984375 11.71875 18.140625 8.90625 
Q 21.296875 6.109375 26.703125 6.109375 
Q 34.1875 6.109375 38.703125 11.40625 
Q 43.21875 16.703125 43.21875 25.484375 
L 43.21875 27.484375 
z
M 52.203125 31.203125 
L 52.203125 0 
L 43.21875 0 
L 43.21875 8.296875 
Q 40.140625 3.328125 35.546875 0.953125 
Q 30.953125 -1.421875 24.3125 -1.421875 
Q 15.921875 -1.421875 10.953125 3.296875 
Q 6 8.015625 6 15.921875 
Q 6 25.140625 12.171875 29.828125 
Q 18.359375 34.515625 30.609375 34.515625 
L 43.21875 34.515625 
L 43.21875 35.40625 
Q 43.21875 41.609375 39.140625 45 
Q 35.0625 48.390625 27.6875 48.390625 
Q 23 48.390625 18.546875 47.265625 
Q 14.109375 46.140625 10.015625 43.890625 
L 10.015625 52.203125 
Q 14.9375 54.109375 19.578125 55.046875 
Q 24.21875 56 28.609375 56 
Q 40.484375 56 46.34375 49.84375 
Q 52.203125 43.703125 52.203125 31.203125 
z
" id="DejaVuSans-97"/>
       <path d="M 32.171875 -5.078125 
Q 28.375 -14.84375 24.75 -17.8125 
Q 21.140625 -20.796875 15.09375 -20.796875 
L 7.90625 -20.796875 
L 7.90625 -13.28125 
L 13.1875 -13.28125 
Q 16.890625 -13.28125 18.9375 -11.515625 
Q 21 -9.765625 23.484375 -3.21875 
L 25.09375 0.875 
L 2.984375 54.6875 
L 12.5 54.6875 
L 29.59375 11.921875 
L 46.6875 54.6875 
L 56.203125 54.6875 
z
" id="DejaVuSans-121"/>
       <path d="M 44.28125 53.078125 
L 44.28125 44.578125 
Q 40.484375 46.53125 36.375 47.5 
Q 32.28125 48.484375 27.875 48.484375 
Q 21.1875 48.484375 17.84375 46.4375 
Q 14.5 44.390625 14.5 40.28125 
Q 14.5 37.15625 16.890625 35.375 
Q 19.28125 33.59375 26.515625 31.984375 
L 29.59375 31.296875 
Q 39.15625 29.25 43.1875 25.515625 
Q 47.21875 21.78125 47.21875 15.09375 
Q 47.21875 7.46875 41.1875 3.015625 
Q 35.15625 -1.421875 24.609375 -1.421875 
Q 20.21875 -1.421875 15.453125 -0.5625 
Q 10.6875 0.296875 5.421875 2 
L 5.421875 11.28125 
Q 10.40625 8.6875 15.234375 7.390625 
Q 20.0625 6.109375 24.8125 6.109375 
Q 31.15625 6.109375 34.5625 8.28125 
Q 37.984375 10.453125 37.984375 14.40625 
Q 37.984375 18.0625 35.515625 20.015625 
Q 33.0625 21.96875 24.703125 23.78125 
L 21.578125 24.515625 
Q 13.234375 26.265625 9.515625 29.90625 
Q 5.8125 33.546875 5.8125 39.890625 
Q 5.8125 47.609375 11.28125 51.796875 
Q 16.75 56 26.8125 56 
Q 31.78125 56 36.171875 55.265625 
Q 40.578125 54.546875 44.28125 53.078125 
z
" id="DejaVuSans-115"/>
       <path d="M 8.015625 75.875 
L 15.828125 75.875 
Q 23.140625 64.359375 26.78125 53.3125 
Q 30.421875 42.28125 30.421875 31.390625 
Q 30.421875 20.453125 26.78125 9.375 
Q 23.140625 -1.703125 15.828125 -13.1875 
L 8.015625 -13.1875 
Q 14.5 -2 17.703125 9.0625 
Q 20.90625 20.125 20.90625 31.390625 
Q 20.90625 42.671875 17.703125 53.65625 
Q 14.5 64.65625 8.015625 75.875 
z
" id="DejaVuSans-41"/>
      </defs>
      <use xlink:href="#DejaVuSans-116"/>
      <use x="39.208984" xlink:href="#DejaVuSans-105"/>
      <use x="66.992188" xlink:href="#DejaVuSans-109"/>
      <use x="164.404297" xlink:href="#DejaVuSans-101"/>
      <use x="225.927734" xlink:href="#DejaVuSans-108"/>
      <use x="253.710938" xlink:href="#DejaVuSans-105"/>
      <use x="281.494141" xlink:href="#DejaVuSans-110"/>
      <use x="344.873047" xlink:href="#DejaVuSans-101"/>
      <use x="406.396484" xlink:href="#DejaVuSans-32"/>
      <use x="438.183594" xlink:href="#DejaVuSans-40"/>
      <use x="477.197266" xlink:href="#DejaVuSans-100"/>
      <use x="540.673828" xlink:href="#DejaVuSans-97"/>
      <use x="601.953125" xlink:href="#DejaVuSans-121"/>
      <use x="661.132812" xlink:href="#DejaVuSans-115"/>
      <use x="713.232422" xlink:href="#DejaVuSans-41"/>
     </g>
    </g>
   </g>
   <g id="matplotlib.axis_2">
    <g id="ytick_1">
     <g id="line2d_7">
      <defs>
       <path d="M 0 0 
L -3.5 0 
" id="md6309c06db" style="stroke:#000000;stroke-width:0.8;"/>
      </defs>
      <g>
       <use style="stroke:#000000;stroke-width:0.8;" x="90" xlink:href="#md6309c06db" y="378"/>
      </g>
     </g>
     <g id="text_8">
      <!-- 0.0 -->
      <g transform="translate(67.096875 381.799219)scale(0.1 -0.1)">
       <defs>
        <path d="M 10.6875 12.40625 
L 21 12.40625 
L 21 0 
L 10.6875 0 
z
" id="DejaVuSans-46"/>
       </defs>
       <use xlink:href="#DejaVuSans-48"/>
       <use x="63.623047" xlink:href="#DejaVuSans-46"/>
       <use x="95.410156" xlink:href="#DejaVuSans-48"/>
      </g>
     </g>
    </g>
    <g id="ytick_2">
     <g id="line2d_8">
      <g>
       <use style="stroke:#000000;stroke-width:0.8;" x="90" xlink:href="#md6309c06db" y="318.698182"/>
      </g>
     </g>
     <g id="text_9">
      <!-- 0.2 -->
      <g transform="translate(67.096875 322.497401)scale(0.1 -0.1)">
       <use xlink:href="#DejaVuSans-48"/>
       <use x="63.623047" xlink:href="#DejaVuSans-46"/>
       <use x="95.410156" xlink:href="#DejaVuSans-50"/>
      </g>
     </g>
    </g>
    <g id="ytick_3">
     <g id="line2d_9">
      <g>
       <use style="stroke:#000000;stroke-width:0.8;" x="90" xlink:href="#md6309c06db" y="259.396364"/>
      </g>
     </g>
     <g id="text_10">
      <!-- 0.4 -->
      <g transform="translate(67.096875 263.195582)scale(0.1 -0.1)">
       <use xlink:href="#DejaVuSans-48"/>
       <use x="63.623047" xlink:href="#DejaVuSans-46"/>
       <use x="95.410156" xlink:href="#DejaVuSans-52"/>
      </g>
     </g>
    </g>
    <g id="ytick_4">
     <g id="line2d_10">
      <g>
       <use style="stroke:#000000;stroke-width:0.8;" x="90" xlink:href="#md6309c06db" y="200.094545"/>
      </g>
     </g>
     <g id="text_11">
      <!-- 0.6 -->
      <g transform="translate(67.096875 203.893764)scale(0.1 -0.1)">
       <use xlink:href="#DejaVuSans-48"/>
       <use x="63.623047" xlink:href="#DejaVuSans-46"/>
       <use x="95.410156" xlink:href="#DejaVuSans-54"/>
      </g>
     </g>
    </g>
    <g id="ytick_5">
     <g id="line2d_11">
      <g>
       <use style="stroke:#000000;stroke-width:0.8;" x="90" xlink:href="#md6309c06db" y="140.792727"/>
      </g>
     </g>
     <g id="text_12">
      <!-- 0.8 -->
      <g transform="translate(67.096875 144.591946)scale(0.1 -0.1)">
       <use xlink:href="#DejaVuSans-48"/>
       <use x="63.623047" xlink:href="#DejaVuSans-46"/>
       <use x="95.410156" xlink:href="#DejaVuSans-56"/>
      </g>
     </g>
    </g>
    <g id="ytick_6">
     <g id="line2d_12">
      <g>
       <use style="stroke:#000000;stroke-width:0.8;" x="90" xlink:href="#md6309c06db" y="81.490909"/>
      </g>
     </g>
     <g id="text_13">
      <!-- 1.0 -->
      <g transform="translate(67.096875 85.290128)scale(0.1 -0.1)">
       <use xlink:href="#DejaVuSans-49"/>
       <use x="63.623047" xlink:href="#DejaVuSans-46"/>
       <use x="95.410156" xlink:href="#DejaVuSans-48"/>
      </g>
     </g>
    </g>
    <g id="text_14">
     <!-- survival probability -->
     <g transform="translate(58.9375 310.629375)rotate(-90)scale(0.2 -0.2)">
      <defs>
       <path d="M 8.5 21.578125 
L 8.5 54.6875 
L 17.484375 54.6875 
L 17.484375 21.921875 
Q 17.484375 14.15625 20.5 10.265625 
Q 23.53125 6.390625 29.59375 6.390625 
Q 36.859375 6.390625 41.078125 11.03125 
Q 45.3125 15.671875 45.3125 23.6875 
L 45.3125 54.6875 
L 54.296875 54.6875 
L 54.296875 0 
L 45.3125 0 
L 45.3125 8.40625 
Q 42.046875 3.421875 37.71875 1 
Q 33.40625 -1.421875 27.6875 -1.421875 
Q 18.265625 -1.421875 13.375 4.4375 
Q 8.5 10.296875 8.5 21.578125 
z
M 31.109375 56 
z
" id="DejaVuSans-117"/>
       <path d="M 41.109375 46.296875 
Q 39.59375 47.171875 37.8125 47.578125 
Q 36.03125 48 33.890625 48 
Q 26.265625 48 22.1875 43.046875 
Q 18.109375 38.09375 18.109375 28.8125 
L 18.109375 0 
L 9.078125 0 
L 9.078125 54.6875 
L 18.109375 54.6875 
L 18.109375 46.1875 
Q 20.953125 51.171875 25.484375 53.578125 
Q 30.03125 56 36.53125 56 
Q 37.453125 56 38.578125 55.875 
Q 39.703125 55.765625 41.0625 55.515625 
z
" id="DejaVuSans-114"/>
       <path d="M 2.984375 54.6875 
L 12.5 54.6875 
L 29.59375 8.796875 
L 46.6875 54.6875 
L 56.203125 54.6875 
L 35.6875 0 
L 23.484375 0 
z
" id="DejaVuSans-118"/>
       <path d="M 18.109375 8.203125 
L 18.109375 -20.796875 
L 9.078125 -20.796875 
L 9.078125 54.6875 
L 18.109375 54.6875 
L 18.109375 46.390625 
Q 20.953125 51.265625 25.265625 53.625 
Q 29.59375 56 35.59375 56 
Q 45.5625 56 51.78125 48.09375 
Q 58.015625 40.1875 58.015625 27.296875 
Q 58.015625 14.40625 51.78125 6.484375 
Q 45.5625 -1.421875 35.59375 -1.421875 
Q 29.59375 -1.421875 25.265625 0.953125 
Q 20.953125 3.328125 18.109375 8.203125 
z
M 48.6875 27.296875 
Q 48.6875 37.203125 44.609375 42.84375 
Q 40.53125 48.484375 33.40625 48.484375 
Q 26.265625 48.484375 22.1875 42.84375 
Q 18.109375 37.203125 18.109375 27.296875 
Q 18.109375 17.390625 22.1875 11.75 
Q 26.265625 6.109375 33.40625 6.109375 
Q 40.53125 6.109375 44.609375 11.75 
Q 48.6875 17.390625 48.6875 27.296875 
z
" id="DejaVuSans-112"/>
       <path d="M 30.609375 48.390625 
Q 23.390625 48.390625 19.1875 42.75 
Q 14.984375 37.109375 14.984375 27.296875 
Q 14.984375 17.484375 19.15625 11.84375 
Q 23.34375 6.203125 30.609375 6.203125 
Q 37.796875 6.203125 41.984375 11.859375 
Q 46.1875 17.53125 46.1875 27.296875 
Q 46.1875 37.015625 41.984375 42.703125 
Q 37.796875 48.390625 30.609375 48.390625 
z
M 30.609375 56 
Q 42.328125 56 49.015625 48.375 
Q 55.71875 40.765625 55.71875 27.296875 
Q 55.71875 13.875 49.015625 6.21875 
Q 42.328125 -1.421875 30.609375 -1.421875 
Q 18.84375 -1.421875 12.171875 6.21875 
Q 5.515625 13.875 5.515625 27.296875 
Q 5.515625 40.765625 12.171875 48.375 
Q 18.84375 56 30.609375 56 
z
" id="DejaVuSans-111"/>
       <path d="M 48.6875 27.296875 
Q 48.6875 37.203125 44.609375 42.84375 
Q 40.53125 48.484375 33.40625 48.484375 
Q 26.265625 48.484375 22.1875 42.84375 
Q 18.109375 37.203125 18.109375 27.296875 
Q 18.109375 17.390625 22.1875 11.75 
Q 26.265625 6.109375 33.40625 6.109375 
Q 40.53125 6.109375 44.609375 11.75 
Q 48.6875 17.390625 48.6875 27.296875 
z
M 18.109375 46.390625 
Q 20.953125 51.265625 25.265625 53.625 
Q 29.59375 56 35.59375 56 
Q 45.5625 56 51.78125 48.09375 
Q 58.015625 40.1875 58.015625 27.296875 
Q 58.015625 14.40625 51.78125 6.484375 
Q 45.5625 -1.421875 35.59375 -1.421875 
Q 29.59375 -1.421875 25.265625 0.953125 
Q 20.953125 3.328125 18.109375 8.203125 
L 18.109375 0 
L 9.078125 0 
L 9.078125 75.984375 
L 18.109375 75.984375 
z
" id="DejaVuSans-98"/>
      </defs>
      <use xlink:href="#DejaVuSans-115"/>
      <use x="52.099609" xlink:href="#DejaVuSans-117"/>
      <use x="115.478516" xlink:href="#DejaVuSans-114"/>
      <use x="156.591797" xlink:href="#DejaVuSans-118"/>
      <use x="215.771484" xlink:href="#DejaVuSans-105"/>
      <use x="243.554688" xlink:href="#DejaVuSans-118"/>
      <use x="302.734375" xlink:href="#DejaVuSans-97"/>
      <use x="364.013672" xlink:href="#DejaVuSans-108"/>
      <use x="391.796875" xlink:href="#DejaVuSans-32"/>
      <use x="423.583984" xlink:href="#DejaVuSans-112"/>
      <use x="487.060547" xlink:href="#DejaVuSans-114"/>
      <use x="525.923828" xlink:href="#DejaVuSans-111"/>
      <use x="587.105469" xlink:href="#DejaVuSans-98"/>
      <use x="650.582031" xlink:href="#DejaVuSans-97"/>
      <use x="711.861328" xlink:href="#DejaVuSans-98"/>
      <use x="775.337891" xlink:href="#DejaVuSans-105"/>
      <use x="803.121094" xlink:href="#DejaVuSans-108"/>
      <use x="830.904297" xlink:href="#DejaVuSans-105"/>
      <use x="858.6875" xlink:href="#DejaVuSans-116"/>
      <use x="897.896484" xlink:href="#DejaVuSans-121"/>
     </g>
    </g>
   </g>
   <g id="line2d_13">
    <path clip-path="url(#p0af1087541)" d="M 115.363636 81.555791 
L 115.468945 81.621318 
L 115.5216 81.949083 
L 115.574254 81.949083 
L 115.626908 81.949083 
L 115.679563 82.146173 
L 115.732217 82.146173 
L 115.784872 82.146173 
L 115.837526 82.541524 
L 115.890181 82.541524 
L 115.942835 82.541524 
L 115.995489 82.938201 
L 116.048144 82.938201 
L 116.100798 82.938201 
L 116.206107 83.203649 
L 116.311416 83.270195 
L 116.36407 83.403391 
L 116.416725 83.403391 
L 116.522034 83.470072 
L 116.627343 84.004352 
L 116.732651 84.071184 
L 116.785306 84.338544 
L 116.83796 84.338544 
L 116.995924 84.405498 
L 117.048578 84.741204 
L 117.101232 84.741204 
L 117.153887 84.741204 
L 117.259196 85.010744 
L 117.469813 85.078253 
L 117.575122 85.280935 
L 117.627777 85.280935 
L 117.733085 85.483884 
L 117.838394 85.551596 
L 117.943703 85.754826 
L 118.049012 85.822633 
L 118.154321 86.229691 
L 118.312284 86.229691 
L 118.417593 86.501279 
L 118.575556 86.569196 
L 118.628211 86.909605 
L 118.786174 86.977776 
L 118.891483 87.455197 
L 118.944137 87.455197 
L 118.996792 87.728105 
L 119.049446 87.728105 
L 119.260064 87.796404 
L 119.365373 88.137901 
L 119.57599 88.206232 
L 119.681299 88.616915 
L 119.786608 88.685392 
L 119.891917 88.959429 
L 119.944571 88.959429 
L 120.04988 89.37068 
L 120.155189 89.37068 
L 120.260498 89.919682 
L 120.313152 89.919682 
L 120.365807 90.194535 
L 120.471116 90.194535 
L 120.576424 90.469519 
L 120.839697 90.538307 
L 120.945005 91.020048 
L 121.050314 91.088967 
L 121.155623 91.364694 
L 121.366241 91.433663 
L 121.47155 91.77889 
L 121.576858 91.77889 
L 121.629513 92.124301 
L 121.734822 92.124301 
L 121.840131 92.400911 
L 121.892785 92.400911 
L 121.998094 92.747108 
L 122.156057 92.816395 
L 122.261366 93.232216 
L 122.524638 93.301587 
L 122.629947 93.718337 
L 122.682601 93.718337 
L 122.735256 94.065785 
L 122.78791 94.065785 
L 122.840565 94.065785 
L 122.945874 94.344032 
L 123.051182 94.413624 
L 123.051182 94.692059 
L 123.156491 94.692059 
L 123.209146 94.692059 
L 123.314454 95.040532 
L 123.419763 95.040532 
L 123.472418 95.389382 
L 123.525072 95.389382 
L 123.630381 95.45918 
L 123.73569 95.598844 
L 123.788344 95.598844 
L 123.840999 95.948039 
L 123.998962 95.948039 
L 124.104271 96.437609 
L 124.262234 96.507597 
L 124.367543 96.787794 
L 124.472852 96.857869 
L 124.525506 97.068165 
L 124.788778 97.138293 
L 124.841433 97.559655 
L 124.894087 97.559655 
L 125.104705 97.629959 
L 125.210014 97.982271 
L 125.262668 97.982271 
L 125.315323 98.193925 
L 125.367977 98.193925 
L 125.420631 98.193925 
L 125.473286 98.405774 
L 125.52594 98.405774 
L 125.631249 98.47645 
L 125.736558 98.759351 
L 125.789212 98.759351 
L 125.894521 99.113071 
L 125.99983 99.183872 
L 126.105139 99.467276 
L 126.157793 99.467276 
L 126.210448 99.751023 
L 126.263102 99.751023 
L 126.47372 99.751023 
L 126.579029 100.106368 
L 126.631683 100.106368 
L 126.684338 100.604385 
L 126.736992 100.604385 
L 126.789647 100.604385 
L 126.842301 100.889112 
L 126.894955 100.889112 
L 127.052919 100.960386 
L 127.158227 101.245553 
L 127.368845 101.316992 
L 127.4215 101.459962 
L 127.474154 101.459962 
L 127.579463 101.53153 
L 127.632117 101.674685 
L 127.684772 101.674685 
L 127.790081 101.746309 
L 127.895389 101.961218 
L 128.106007 102.032954 
L 128.211316 102.535664 
L 128.369279 102.60753 
L 128.421934 102.823261 
L 128.474588 102.823261 
L 128.527243 102.823261 
L 128.579897 103.03918 
L 128.632551 103.03918 
L 128.685206 103.03918 
L 128.790515 103.399454 
L 128.843169 103.399454 
L 128.948478 103.688052 
L 129.053787 103.76022 
L 129.159096 104.266083 
L 129.369713 104.338404 
L 129.475022 104.555577 
L 129.580331 104.555577 
L 129.68564 105.062722 
L 129.790949 105.135196 
L 129.896258 105.860746 
L 130.001566 105.860746 
L 130.054221 106.223792 
L 130.106875 106.223792 
L 130.15953 106.223792 
L 130.264839 106.732717 
L 130.422802 106.805443 
L 130.422802 106.878208 
L 130.528111 106.878208 
L 130.686074 106.951032 
L 130.791383 107.388364 
L 130.844037 107.388364 
L 130.949346 107.680306 
L 131.159964 107.753346 
L 131.265273 108.045623 
L 131.317927 108.045623 
L 131.423236 108.484296 
L 131.47589 108.484296 
L 131.581199 108.996584 
L 131.739162 109.069842 
L 131.844471 109.509629 
L 132.055089 109.583008 
L 132.107743 109.729804 
L 132.265707 109.803242 
L 132.318361 110.244033 
L 132.371016 110.244033 
L 132.528979 110.317613 
L 132.581633 110.538533 
L 132.634288 110.538533 
L 132.739597 110.612255 
L 132.739597 110.685997 
L 132.950214 110.759759 
L 133.055523 111.202842 
L 133.160832 111.276706 
L 133.266141 111.646415 
L 133.37145 111.720361 
L 133.476758 112.164552 
L 133.582067 112.238642 
L 133.687376 112.535499 
L 133.792685 112.609734 
L 133.897994 112.981138 
L 133.950648 112.981138 
L 134.055957 113.427089 
L 134.108612 113.427089 
L 134.21392 113.948153 
L 134.266575 113.948153 
L 134.371884 114.46989 
L 134.424538 114.46989 
L 134.424538 114.619114 
L 134.529847 114.619114 
L 134.582501 114.619114 
L 134.635156 115.217964 
L 134.68781 115.217964 
L 134.793119 115.293131 
L 134.898428 115.669286 
L 135.003737 115.74469 
L 135.109046 115.97149 
L 135.1617 115.97149 
L 135.267009 116.654846 
L 135.372318 116.730995 
L 135.424972 116.88365 
L 135.477627 116.88365 
L 135.582935 116.960112 
L 135.688244 117.497434 
L 135.846208 117.574324 
L 135.951516 117.959547 
L 136.056825 117.959547 
L 136.162134 118.655394 
L 136.214789 118.655394 
L 136.320097 119.120494 
L 136.425406 119.198049 
L 136.530715 119.508876 
L 136.58337 119.508876 
L 136.688678 119.8981 
L 136.741333 119.8981 
L 136.846642 120.288478 
L 137.057259 120.366929 
L 137.162568 120.681475 
L 137.215223 120.681475 
L 137.215223 120.917764 
L 137.320531 120.917764 
L 137.42584 120.99672 
L 137.42584 121.075701 
L 137.531149 121.075701 
L 137.583804 121.075701 
L 137.689112 121.471726 
L 137.794421 121.551072 
L 137.89973 122.266327 
L 138.005039 122.346044 
L 138.110348 122.585271 
L 138.268311 122.665089 
L 138.320966 122.824798 
L 138.37362 122.824798 
L 138.478929 122.90479 
L 138.478929 122.984782 
L 138.584238 122.984782 
L 138.636892 122.984782 
L 138.742201 123.546995 
L 138.794855 123.546995 
L 138.84751 124.029218 
L 138.900164 124.029218 
L 139.110782 124.109691 
L 139.216091 124.351953 
L 139.268745 124.351953 
L 139.374054 124.917926 
L 139.532017 124.99886 
L 139.532017 125.080028 
L 139.637326 125.080028 
L 139.689981 125.080028 
L 139.795289 125.324081 
L 139.953253 125.324081 
L 140.058562 125.732071 
L 140.16387 125.732071 
L 140.216525 126.059002 
L 140.269179 126.059002 
L 140.374488 126.140854 
L 140.479797 126.469305 
L 140.585106 126.469305 
L 140.63776 126.798749 
L 140.690415 126.798749 
L 140.901032 126.881354 
L 141.006341 127.046781 
L 141.164304 127.046781 
L 141.269613 127.378456 
L 141.322268 127.378456 
L 141.427577 127.794053 
L 141.690849 127.877233 
L 141.743503 128.044121 
L 141.796158 128.044121 
L 142.006775 128.12769 
L 142.05943 128.630564 
L 142.112084 128.630564 
L 142.217393 128.630564 
L 142.322702 128.966727 
L 142.480665 128.966727 
L 142.533319 129.219752 
L 142.585974 129.219752 
L 142.638628 129.219752 
L 142.691283 129.473179 
L 142.743937 129.473179 
L 142.849246 129.557971 
L 142.954555 129.812726 
L 143.165173 129.897868 
L 143.270481 130.068414 
L 143.37579 130.15376 
L 143.428445 130.410271 
L 143.481099 130.410271 
L 143.586408 130.495853 
L 143.586408 130.581436 
L 143.691717 130.581436 
L 143.902335 130.667345 
L 144.007643 131.183638 
L 144.112952 131.183638 
L 144.218261 131.701557 
L 144.32357 131.788008 
L 144.428879 132.047817 
L 144.534188 132.047817 
L 144.639496 132.744197 
L 144.744805 132.831353 
L 144.850114 133.267348 
L 144.902769 133.267348 
L 145.008077 134.053178 
L 145.113386 134.140583 
L 145.218695 134.403426 
L 145.376658 134.49124 
L 145.481967 134.75535 
L 145.587276 134.843514 
L 145.587276 134.931902 
L 145.692585 134.931902 
L 145.745239 134.931902 
L 145.797894 135.197906 
L 145.850548 135.197906 
L 145.955857 135.286942 
L 146.008512 135.465211 
L 146.061166 135.465211 
L 146.271784 135.554477 
L 146.377092 135.913357 
L 146.58771 136.003453 
L 146.640365 136.183879 
L 146.693019 136.183879 
L 146.745673 136.183879 
L 146.850982 136.545879 
L 147.008946 136.636583 
L 147.114254 137.091026 
L 147.272218 137.091026 
L 147.377527 137.730356 
L 147.588144 137.822062 
L 147.693453 138.189904 
L 147.904071 138.282245 
L 147.956725 138.467212 
L 148.00938 138.467212 
L 148.219997 138.560055 
L 148.325306 139.025204 
L 148.377961 139.025204 
L 148.483269 139.491515 
L 148.588578 139.584901 
L 148.693887 139.865463 
L 148.799196 139.959069 
L 148.904505 140.709028 
L 149.009814 140.80293 
L 149.115123 141.179584 
L 149.220431 141.179584 
L 149.32574 141.46339 
L 149.536358 141.558309 
L 149.641667 141.843522 
L 149.746976 141.938747 
L 149.79963 142.129658 
L 149.852285 142.129658 
L 150.010248 142.225307 
L 150.115557 142.416916 
L 150.27352 142.512915 
L 150.27352 142.705228 
L 150.378829 142.705228 
L 150.431483 142.705228 
L 150.484138 142.994209 
L 150.536792 142.994209 
L 150.589446 142.994209 
L 150.589446 143.187233 
L 150.694755 143.187233 
L 150.905373 143.187233 
L 151.010682 143.672744 
L 151.115991 143.769976 
L 151.2213 144.451727 
L 151.379263 144.549283 
L 151.431917 144.842358 
L 151.484572 144.842358 
L 151.589881 144.940324 
L 151.695189 145.136378 
L 151.905807 145.234633 
L 152.011116 145.628733 
L 152.274388 145.628733 
L 152.274388 145.926391 
L 152.379697 145.926391 
L 152.800932 146.026079 
L 152.800932 146.225798 
L 152.853587 146.225798 
L 153.01155 146.225798 
L 153.064204 146.526024 
L 153.116859 146.526024 
L 153.380131 146.626446 
L 153.380131 146.726912 
L 153.48544 146.726912 
L 153.643403 146.827729 
L 153.696058 147.029891 
L 153.748712 147.029891 
L 153.801366 147.029891 
L 153.854021 147.536493 
L 154.011984 147.536493 
L 154.064638 147.942731 
L 154.117293 147.942731 
L 154.169947 147.942731 
L 154.275256 148.350318 
L 154.380565 148.452385 
L 154.485874 148.657019 
L 155.065073 148.759863 
L 155.117727 148.863311 
L 155.170381 148.863311 
L 155.380999 148.966993 
L 155.486308 149.383465 
L 155.538962 149.383465 
L 155.591617 149.802369 
L 155.644271 149.802369 
L 155.802235 149.907432 
L 155.907543 150.328899 
L 156.065507 150.4344 
L 156.065507 150.645402 
L 156.170815 150.645402 
L 156.381433 150.751494 
L 156.434088 150.857635 
L 156.486742 150.857635 
L 156.644705 150.963926 
L 156.69736 151.177055 
L 156.907977 151.283846 
L 156.907977 151.390737 
L 157.013286 151.390737 
L 157.118595 151.497931 
L 157.223904 151.819972 
L 157.539831 151.927677 
L 157.645139 152.250945 
L 157.750448 152.358701 
L 157.855757 152.790654 
L 158.171684 152.898668 
L 158.171684 153.006994 
L 158.276992 153.006994 
L 158.48761 153.006994 
L 158.592919 153.552089 
L 158.645573 153.552089 
L 158.698228 153.879697 
L 158.750882 153.879697 
L 158.856191 153.879697 
L 158.908846 154.318611 
L 158.9615 154.318611 
L 159.014154 154.318611 
L 159.014154 154.538553 
L 159.119463 154.538553 
L 159.43539 154.64885 
L 159.540699 155.090912 
L 159.593353 155.090912 
L 159.646008 155.423447 
L 159.698662 155.423447 
L 160.014588 155.534513 
L 160.014588 155.645801 
L 160.067243 155.645801 
L 160.277861 155.645801 
L 160.383169 156.092688 
L 160.488478 156.092688 
L 160.541133 156.42829 
L 160.593787 156.42829 
L 160.699096 156.42829 
L 160.804405 156.764912 
L 160.857059 156.764912 
L 160.962368 156.877328 
L 160.962368 156.877328 
L 161.120331 156.877328 
L 161.120331 157.102964 
L 161.22564 157.102964 
L 161.330949 157.102964 
L 161.383604 157.32883 
L 161.436258 157.32883 
L 161.541567 157.32883 
L 161.594221 157.555217 
L 161.69953 157.555217 
L 161.752184 158.008341 
L 161.804839 158.008341 
L 161.857493 158.008341 
L 161.962802 158.462635 
L 162.068111 158.462635 
L 162.068111 158.576444 
L 162.17342 158.576444 
L 162.542001 158.576444 
L 162.542001 158.805607 
L 162.64731 158.805607 
L 162.699964 158.805607 
L 162.699964 159.150433 
L 162.752619 159.150433 
L 163.437126 159.150433 
L 163.542435 159.499909 
L 163.595089 159.499909 
L 163.595089 159.7331 
L 163.700398 159.7331 
L 163.753053 159.7331 
L 163.858361 160.199981 
L 164.016325 160.199981 
L 164.016325 160.316764 
L 164.121634 160.316764 
L 164.174288 160.316764 
L 164.279597 160.785089 
L 164.43756 160.785089 
L 164.490215 161.020171 
L 164.700832 161.020171 
L 164.700832 161.137903 
L 164.806141 161.137903 
L 164.858796 161.137903 
L 164.91145 161.374008 
L 164.964104 161.374008 
L 165.016759 161.374008 
L 165.122068 161.611407 
L 165.332685 161.611407 
L 165.437994 162.447348 
L 165.490649 162.447348 
L 165.490649 162.686718 
L 165.595957 162.686718 
L 165.648612 162.686718 
L 165.648612 162.806938 
L 165.701266 162.806938 
L 166.017193 162.806938 
L 166.017193 163.169419 
L 166.122502 163.169419 
L 166.175156 163.169419 
L 166.280465 163.41196 
L 166.596392 163.41196 
L 166.649046 163.777666 
L 166.754355 163.777666 
L 166.859664 164.265783 
L 166.964973 164.265783 
L 166.964973 164.388197 
L 167.070281 164.388197 
L 167.228245 164.388197 
L 167.333554 164.756705 
L 167.386208 164.756705 
L 167.438862 165.002731 
L 167.491517 165.002731 
L 167.544171 165.002731 
L 167.596826 165.372661 
L 167.64948 165.372661 
L 167.754789 165.372661 
L 167.754789 165.496426 
L 167.860098 165.496426 
L 167.912752 165.496426 
L 168.018061 165.869384 
L 168.070715 165.869384 
L 168.176024 166.118877 
L 168.228679 166.118877 
L 168.333988 166.494331 
L 168.491951 166.494331 
L 168.491951 166.619929 
L 168.59726 166.619929 
L 168.965841 166.619929 
L 169.018495 166.872776 
L 169.07115 166.872776 
L 169.281767 166.872776 
L 169.281767 167.12623 
L 169.387076 167.12623 
L 169.703003 167.12623 
L 169.755657 167.508786 
L 169.860966 167.508786 
L 169.966275 167.764393 
L 170.071584 167.764393 
L 170.071584 167.892507 
L 170.124238 167.892507 
L 170.282201 167.892507 
L 170.38751 168.277947 
L 170.440165 168.277947 
L 170.545473 168.664017 
L 171.019363 168.664017 
L 171.124672 169.182016 
L 171.229981 169.182016 
L 171.229981 169.311959 
L 171.33529 169.311959 
L 171.545907 169.311959 
L 171.651216 169.573965 
L 171.703871 169.573965 
L 171.703871 169.836136 
L 171.80918 169.836136 
L 171.861834 169.836136 
L 171.967143 170.099552 
L 172.283069 170.099552 
L 172.388378 170.496141 
L 172.65165 170.496141 
L 172.756959 171.026248 
L 172.809614 171.026248 
L 172.914923 171.557718 
L 172.967577 171.557718 
L 173.020231 171.824009 
L 173.072886 171.824009 
L 173.12554 171.824009 
L 173.230849 172.224784 
L 173.388812 172.224784 
L 173.494121 172.761356 
L 173.546776 172.761356 
L 173.652084 173.164929 
L 173.862702 173.164929 
L 173.968011 173.435519 
L 174.020665 173.435519 
L 174.020665 173.707004 
L 174.07332 173.707004 
L 174.389246 173.707004 
L 174.494555 173.979577 
L 174.652519 173.979577 
L 174.652519 174.11632 
L 174.705173 174.11632 
L 174.863136 174.11632 
L 174.863136 174.254079 
L 174.968445 174.254079 
L 175.0211 174.254079 
L 175.126408 174.946058 
L 175.494989 174.946058 
L 175.547644 175.224405 
L 175.758261 175.224405 
L 175.86357 175.64346 
L 175.916225 175.64346 
L 176.021534 175.923442 
L 176.074188 175.923442 
L 176.179497 176.344143 
L 176.284806 176.344143 
L 176.33746 176.767198 
L 176.390115 176.767198 
L 176.495423 176.767198 
L 176.600732 177.333852 
L 176.916659 177.333852 
L 177.021968 177.761914 
L 177.864438 177.761914 
L 177.969747 178.0518 
L 178.022402 178.0518 
L 178.075056 178.342211 
L 178.390983 178.342211 
L 178.496292 178.633789 
L 178.548946 178.633789 
L 178.654255 178.925794 
L 178.759564 178.925794 
L 178.759564 179.072064 
L 178.864873 179.072064 
L 179.07549 179.072064 
L 179.07549 179.365036 
L 179.180799 179.365036 
L 179.338762 179.365036 
L 179.338762 179.512064 
L 179.444071 179.512064 
L 179.602034 179.512064 
L 179.602034 179.66019 
L 179.654689 179.66019 
L 180.075924 179.66019 
L 180.128579 180.255917 
L 180.181233 180.255917 
L 180.391851 180.255917 
L 180.391851 180.554624 
L 180.49716 180.554624 
L 180.549814 180.554624 
L 180.549814 180.704204 
L 180.602469 180.704204 
L 180.918395 180.704204 
L 181.023704 181.00565 
L 181.129013 181.00565 
L 181.129013 181.156603 
L 181.234322 181.156603 
L 181.602903 181.156603 
L 181.655557 181.611674 
L 181.708211 181.611674 
L 181.81352 181.611674 
L 181.866175 181.916625 
L 182.024138 181.916625 
L 182.129447 182.221814 
L 182.234756 182.221814 
L 182.28741 182.679953 
L 182.655991 182.679953 
L 182.708646 182.986698 
L 182.7613 182.986698 
L 183.182535 182.986698 
L 183.23519 183.295264 
L 183.287844 183.295264 
L 183.445807 183.295264 
L 183.498462 183.605675 
L 183.551116 183.605675 
L 184.55155 183.605675 
L 184.604205 184.236954 
L 184.709514 184.236954 
L 184.814823 184.553044 
L 184.920131 184.553044 
L 184.920131 184.711089 
L 185.341367 184.711089 
L 185.341367 184.869782 
L 185.446676 184.869782 
L 185.551984 184.869782 
L 185.657293 185.187823 
L 185.709948 185.187823 
L 185.815257 185.506127 
L 185.97322 185.506127 
L 186.078529 185.825221 
L 186.236492 185.825221 
L 186.341801 186.304993 
L 186.657727 186.304993 
L 186.710382 186.947861 
L 186.815691 186.947861 
L 186.920999 187.27004 
L 187.026308 187.27004 
L 187.078963 187.431402 
L 187.131617 187.431402 
L 187.184272 187.431402 
L 187.28958 187.9181 
L 187.605507 187.9181 
L 187.605507 188.082105 
L 187.658161 188.082105 
L 187.868779 188.082105 
L 187.974088 188.576541 
L 188.23736 188.576541 
L 188.342669 189.073282 
L 188.763904 189.073282 
L 188.869213 189.572354 
L 188.974522 189.572354 
L 189.027176 189.905707 
L 189.079831 189.905707 
L 189.18514 189.905707 
L 189.290449 190.240246 
L 189.343103 190.240246 
L 189.448412 190.574934 
L 189.974956 190.574934 
L 189.974956 190.743785 
L 190.080265 190.743785 
L 190.185574 190.743785 
L 190.290883 191.421023 
L 190.448846 191.421023 
L 190.448846 191.590949 
L 190.554155 191.590949 
L 190.659464 191.590949 
L 190.764772 192.103533 
L 191.291317 192.103533 
L 191.291317 192.275819 
L 191.396626 192.275819 
L 191.501934 192.275819 
L 191.607243 192.796704 
L 191.765207 192.796704 
L 191.765207 192.971259 
L 191.817861 192.971259 
L 191.92317 192.971259 
L 191.92317 193.145979 
L 192.028479 193.145979 
L 192.133788 193.145979 
L 192.186442 193.49575 
L 192.239096 193.49575 
L 192.555023 193.49575 
L 192.555023 193.671972 
L 192.765641 193.671972 
L 192.765641 194.025091 
L 192.870949 194.025091 
L 193.502803 194.025091 
L 193.555457 194.739731 
L 193.818729 194.739731 
L 193.924038 195.279438 
L 193.976692 195.279438 
L 193.976692 195.639834 
L 194.082001 195.639834 
L 194.292619 195.639834 
L 194.292619 196.003101 
L 194.345273 196.003101 
L 194.555891 196.003101 
L 194.555891 196.185646 
L 194.6612 196.185646 
L 194.924472 196.185646 
L 194.924472 196.369296 
L 194.977126 196.369296 
L 195.187744 196.369296 
L 195.187744 196.55388 
L 195.240399 196.55388 
L 195.819597 196.55388 
L 195.819597 196.741325 
L 195.872252 196.741325 
L 196.556759 196.741325 
L 196.556759 196.931323 
L 197.293921 196.931323 
L 197.293921 197.122526 
L 197.504539 197.122526 
L 197.504539 197.314336 
L 197.609848 197.314336 
L 197.87312 197.314336 
L 197.87312 197.507583 
L 197.978429 197.507583 
L 198.504973 197.507583 
L 198.610282 198.091072 
L 198.715591 198.091072 
L 198.768245 198.480485 
L 198.978863 198.480485 
L 199.084172 199.263345 
L 199.136826 199.263345 
L 199.136826 199.655742 
L 199.242135 199.655742 
L 199.558061 199.655742 
L 199.610716 200.049873 
L 200.663804 200.049873 
L 200.769113 200.651737 
L 200.874422 200.651737 
L 200.979731 201.456723 
L 201.295657 201.456723 
L 201.295657 201.658717 
L 201.348312 201.658717 
L 201.769547 201.658717 
L 201.769547 201.861875 
L 201.822202 201.861875 
L 202.032819 201.861875 
L 202.032819 202.066212 
L 202.243437 202.066212 
L 202.243437 202.270786 
L 202.506709 202.270786 
L 202.559364 202.679935 
L 202.612018 202.679935 
L 202.822636 202.679935 
L 202.87529 203.09052 
L 202.927945 203.09052 
L 203.34918 203.09052 
L 203.34918 203.297025 
L 203.770415 203.297025 
L 203.82307 203.710034 
L 204.086342 203.710034 
L 204.086342 203.917522 
L 204.244305 203.917522 
L 204.244305 204.332498 
L 204.349614 204.332498 
L 204.612886 204.332498 
L 204.612886 204.540983 
L 204.665541 204.540983 
L 204.823504 204.540983 
L 204.823504 204.958453 
L 204.928813 204.958453 
L 205.455357 204.958453 
L 205.560666 205.379736 
L 205.61332 205.379736 
L 205.61332 205.590505 
L 205.823938 205.590505 
L 205.823938 205.801533 
L 205.929247 205.801533 
L 205.981901 205.801533 
L 205.981901 206.013339 
L 206.08721 206.013339 
L 206.192519 206.013339 
L 206.192519 206.439049 
L 206.666409 206.439049 
L 206.771718 206.867684 
L 207.03499 206.867684 
L 207.087644 207.297664 
L 207.140299 207.297664 
L 207.298262 207.297664 
L 207.403571 207.944264 
L 207.877461 207.944264 
L 207.877461 208.160345 
L 207.982769 208.160345 
L 208.404005 208.160345 
L 208.509314 208.594718 
L 209.141167 208.594718 
L 209.141167 208.814439 
L 209.193821 208.814439 
L 209.615057 208.814439 
L 209.667711 209.258788 
L 209.77302 209.258788 
L 209.77302 209.48199 
L 209.825674 209.48199 
L 210.036292 209.48199 
L 210.088946 209.930773 
L 210.141601 209.930773 
L 210.720799 209.930773 
L 210.720799 210.155766 
L 210.773454 210.155766 
L 210.931417 210.155766 
L 210.931417 210.38106 
L 212.300432 210.38106 
L 212.405741 210.839351 
L 212.721668 210.839351 
L 212.721668 211.069918 
L 212.826976 211.069918 
L 212.879631 211.069918 
L 212.98494 211.53233 
L 213.090249 211.53233 
L 213.090249 211.764502 
L 213.142903 211.764502 
L 214.038028 211.764502 
L 214.038028 211.999298 
L 214.143337 211.999298 
L 214.406609 211.999298 
L 214.406609 212.23476 
L 214.459264 212.23476 
L 214.933153 212.23476 
L 214.933153 212.474305 
L 215.933587 212.474305 
L 216.038896 213.443356 
L 216.460132 213.443356 
L 216.460132 213.687144 
L 216.828713 213.687144 
L 216.828713 213.930932 
L 216.934022 213.930932 
L 217.144639 213.930932 
L 217.144639 214.422156 
L 217.249948 214.422156 
L 217.460566 214.422156 
L 217.460566 214.669627 
L 217.829147 214.669627 
L 217.829147 214.917849 
L 217.934456 214.917849 
L 218.197728 214.917849 
L 218.303037 215.41887 
L 218.776926 215.41887 
L 218.776926 215.670933 
L 218.829581 215.670933 
L 219.145507 215.670933 
L 219.198162 216.178609 
L 219.356125 216.178609 
L 219.356125 216.433045 
L 219.461434 216.433045 
L 219.830015 216.433045 
L 219.935324 216.945551 
L 220.303905 216.945551 
L 220.303905 217.461751 
L 220.409214 217.461751 
L 220.777795 217.461751 
L 220.830449 217.980453 
L 221.146376 217.980453 
L 221.146376 218.501689 
L 221.304339 218.501689 
L 221.304339 219.023778 
L 222.14681 219.023778 
L 222.14681 219.288298 
L 222.252118 219.288298 
L 222.936626 219.288298 
L 222.936626 219.556846 
L 223.252553 219.556846 
L 223.252553 219.826307 
L 223.357861 219.826307 
L 225.200766 219.826307 
L 225.200766 220.104292 
L 225.253421 220.104292 
L 225.358729 220.104292 
L 225.411384 220.663215 
L 225.779965 220.663215 
L 225.779965 220.942676 
L 225.937928 220.942676 
L 225.937928 221.222138 
L 226.043237 221.222138 
L 226.2012 221.222138 
L 226.2012 221.502098 
L 226.306509 221.502098 
L 226.780399 221.502098 
L 226.780399 221.783064 
L 226.991017 221.783064 
L 226.991017 222.064536 
L 227.043671 222.064536 
L 227.359598 222.064536 
L 227.359598 222.347028 
L 227.412252 222.347028 
L 227.570215 222.347028 
L 227.570215 222.631066 
L 227.675524 222.631066 
L 227.728179 222.631066 
L 227.728179 222.916671 
L 227.833487 222.916671 
L 228.307377 222.916671 
L 228.307377 223.206546 
L 228.465341 223.206546 
L 228.465341 223.496421 
L 228.570649 223.496421 
L 228.781267 223.496421 
L 228.781267 223.787389 
L 229.097194 223.787389 
L 229.097194 224.078356 
L 229.149848 224.078356 
L 229.41312 224.078356 
L 229.41312 224.37154 
L 229.465775 224.37154 
L 229.623738 224.37154 
L 229.729047 224.961853 
L 230.255591 224.961853 
L 230.255591 225.258438 
L 230.3609 225.258438 
L 231.045407 225.258438 
L 231.045407 225.55852 
L 231.098062 225.55852 
L 231.571952 225.55852 
L 231.571952 225.861584 
L 231.624606 225.861584 
L 232.15115 225.861584 
L 232.15115 226.166471 
L 232.467077 226.166471 
L 232.467077 226.471971 
L 232.572386 226.471971 
L 233.362202 226.471971 
L 233.362202 226.782479 
L 233.467511 226.782479 
L 234.152018 226.782479 
L 234.152018 227.096861 
L 234.204673 227.096861 
L 235.626342 227.096861 
L 235.626342 227.419303 
L 236.679431 227.419303 
L 236.679431 227.743831 
L 237.416593 227.743831 
L 237.469247 228.397119 
L 238.680299 228.397119 
L 238.732953 229.059814 
L 238.838262 229.059814 
L 238.838262 229.391529 
L 238.943571 229.391529 
L 240.575858 229.391529 
L 240.575858 229.732374 
L 240.628513 229.732374 
L 240.997094 229.732374 
L 240.997094 230.076383 
L 241.734256 230.076383 
L 241.734256 230.422808 
L 241.997528 230.422808 
L 241.997528 230.770867 
L 242.050182 230.770867 
L 242.208145 230.770867 
L 242.208145 231.119752 
L 242.73469 231.119752 
L 242.73469 231.47114 
L 244.261668 231.47114 
L 244.261668 231.833835 
L 244.366977 231.833835 
L 244.682903 231.833835 
L 244.682903 232.200166 
L 244.735558 232.200166 
L 245.262102 232.200166 
L 245.367411 232.938393 
L 245.683337 232.938393 
L 245.683337 233.310346 
L 246.104573 233.310346 
L 246.104573 233.684221 
L 246.209882 233.684221 
L 246.473154 233.684221 
L 246.473154 234.063999 
L 246.578463 234.063999 
L 248.052787 234.063999 
L 248.052787 234.457267 
L 248.158095 234.457267 
L 248.68464 234.457267 
L 248.68464 235.646848 
L 248.789948 235.646848 
L 249.211184 235.646848 
L 249.211184 236.044482 
L 249.790383 236.044482 
L 249.790383 236.446623 
L 250.211618 236.446623 
L 250.264272 236.849909 
L 250.264272 236.849909 
L 250.369581 236.849909 
L 250.369581 237.25435 
L 250.685508 237.25435 
L 250.685508 237.658792 
L 250.790817 237.658792 
L 252.317795 237.658792 
L 252.317795 238.077721 
L 253.160266 238.077721 
L 253.160266 238.50693 
L 253.370883 238.50693 
L 253.370883 238.93614 
L 253.528847 238.93614 
L 253.581501 239.794558 
L 254.055391 239.794558 
L 254.055391 240.230538 
L 254.108045 240.230538 
L 254.792553 240.230538 
L 254.792553 240.673526 
L 254.897862 240.673526 
L 256.477494 240.673526 
L 256.530149 241.582973 
L 256.89873 241.582973 
L 256.89873 242.04229 
L 257.688546 242.04229 
L 257.688546 242.504731 
L 258.425708 242.504731 
L 258.425708 243.43597 
L 259.689414 243.43597 
L 259.689414 243.908124 
L 260.11065 243.908124 
L 260.11065 244.383628 
L 260.268613 244.383628 
L 260.268613 244.859131 
L 260.373922 244.859131 
L 262.953989 244.859131 
L 262.953989 245.350425 
L 263.375224 245.350425 
L 263.375224 245.84172 
L 263.901768 245.84172 
L 263.901768 246.340431 
L 265.639364 246.340431 
L 265.639364 246.850739 
L 265.902636 246.850739 
L 265.902636 247.363041 
L 267.429615 247.363041 
L 267.429615 247.894085 
L 268.061468 247.894085 
L 268.061468 248.427306 
L 270.430917 248.427306 
L 270.430917 248.967192 
L 271.484006 248.967192 
L 271.484006 250.060691 
L 272.221167 250.060691 
L 272.221167 250.612153 
L 276.433521 250.612153 
L 276.433521 251.210218 
L 278.43439 251.210218 
L 278.43439 251.828705 
L 279.224206 251.828705 
L 279.224206 252.450239 
L 279.382169 252.450239 
L 279.382169 253.071772 
L 279.908713 253.071772 
L 279.908713 253.696413 
L 280.066677 253.696413 
L 280.066677 254.321054 
L 281.17242 254.321054 
L 281.17242 254.955305 
L 286.64848 254.955305 
L 286.64848 255.646568 
L 287.017061 255.646568 
L 287.017061 256.33783 
L 287.069715 256.33783 
L 289.8604 256.33783 
L 289.8604 257.06201 
L 291.071451 257.06201 
L 291.071451 257.80854 
L 292.335158 257.80854 
L 292.335158 258.574091 
L 292.387812 258.574091 
L 293.124974 258.574091 
L 293.124974 259.349584 
L 293.177628 259.349584 
L 295.33646 259.349584 
L 295.33646 260.162258 
L 297.6006 260.162258 
L 297.6006 261.003956 
L 297.705909 261.003956 
L 297.916527 261.003956 
L 297.916527 261.857942 
L 298.179799 261.857942 
L 298.179799 262.711928 
L 302.497462 262.711928 
L 302.497462 263.64167 
L 302.971351 263.64167 
L 302.971351 264.579034 
L 304.919565 264.579034 
L 304.919565 265.532151 
L 305.709382 265.532151 
L 305.709382 266.501701 
L 306.077963 266.501701 
L 306.077963 267.488412 
L 306.130617 267.488412 
L 312.080567 267.488412 
L 312.080567 268.639574 
L 316.450884 268.639574 
L 316.450884 269.868343 
L 321.979599 269.868343 
L 321.979599 271.187022 
L 322.874724 271.187022 
L 322.874724 272.556419 
L 323.085342 272.556419 
L 323.085342 273.943835 
L 323.822504 273.943835 
L 323.822504 275.369262 
L 324.822938 275.369262 
L 324.822938 276.794688 
L 330.509616 276.794688 
L 330.509616 278.427032 
L 349.991753 278.427032 
L 349.991753 280.545606 
L 357.626644 280.545606 
L 357.626644 283.044437 
L 358.837696 283.044437 
L 358.837696 285.610803 
L 361.786344 285.610803 
L 361.786344 288.497966 
L 365.998698 288.497966 
L 365.998698 291.812856 
L 386.639232 291.812856 
L 386.639232 296.122213 
L 393.74758 296.122213 
L 393.74758 301.239575 
L 453.247079 301.239575 
L 453.247079 309.768511 
L 482.470285 309.768511 
L 482.470285 319.515866 
L 507.902372 319.515866 
L 507.902372 339.010578 
L 622.636364 339.010578 
L 622.636364 339.010578 
" style="fill:none;stroke:#008000;stroke-linecap:square;stroke-width:1.5;"/>
   </g>
   <g id="line2d_14">
    <path clip-path="url(#p0af1087541)" d="M 115.363636 81.555933 
L 115.574254 81.621417 
L 115.679563 81.818666 
L 115.784872 81.884572 
L 115.784872 81.950596 
L 115.890181 81.950596 
L 116.258762 82.01693 
L 116.36407 82.34981 
L 116.416725 82.34981 
L 116.522034 82.616311 
L 116.627343 82.682974 
L 116.627343 82.81636 
L 116.732651 82.81636 
L 116.890615 82.883159 
L 116.995924 83.016969 
L 117.101232 83.083934 
L 117.206541 83.284937 
L 117.31185 83.352009 
L 117.417159 83.486307 
L 117.575122 83.553532 
L 117.575122 83.620772 
L 117.680431 83.620772 
L 118.312284 83.688275 
L 118.417593 84.093989 
L 118.470247 84.093989 
L 118.575556 84.364621 
L 118.73352 84.43231 
L 118.838828 84.635737 
L 118.996792 84.70363 
L 118.996792 84.771538 
L 119.102101 84.771538 
L 119.260064 84.839525 
L 119.365373 85.179903 
L 119.470681 85.248001 
L 119.470681 85.316114 
L 119.57599 85.316114 
L 119.681299 85.384323 
L 119.786608 85.794261 
L 119.997226 85.862709 
L 120.102535 86.204999 
L 120.260498 86.273576 
L 120.365807 86.548029 
L 120.418461 86.548029 
L 120.52377 87.097776 
L 120.629079 87.166547 
L 120.681733 87.372861 
L 120.734388 87.372861 
L 120.787042 87.372861 
L 120.787042 87.579224 
L 120.892351 87.579224 
L 120.99766 87.579224 
L 121.050314 87.785831 
L 121.102969 87.785831 
L 121.208278 87.854716 
L 121.313586 88.337323 
L 121.47155 88.406291 
L 121.576858 88.613439 
L 121.682167 88.682505 
L 121.787476 88.889802 
L 121.840131 88.889802 
L 121.892785 89.235495 
L 121.945439 89.235495 
L 122.103403 89.235495 
L 122.208712 89.581769 
L 122.31402 89.651067 
L 122.366675 89.859145 
L 122.419329 89.859145 
L 122.629947 89.92861 
L 122.682601 90.206537 
L 122.840565 90.276052 
L 122.945874 91.040721 
L 123.051182 91.040721 
L 123.156491 91.319018 
L 123.314454 91.388635 
L 123.419763 91.597484 
L 123.472418 91.597484 
L 123.577727 91.945669 
L 123.630381 91.945669 
L 123.73569 92.293955 
L 123.840999 92.363639 
L 123.946308 92.642615 
L 124.104271 92.712419 
L 124.20958 93.271087 
L 124.367543 93.271087 
L 124.472852 93.620482 
L 124.578161 93.690372 
L 124.630815 93.900125 
L 124.736124 93.900125 
L 124.841433 94.320115 
L 124.946742 94.320115 
L 124.999396 94.600449 
L 125.052051 94.600449 
L 125.262668 94.670615 
L 125.315323 94.811051 
L 125.367977 94.811051 
L 125.420631 94.811051 
L 125.52594 95.162419 
L 125.578595 95.162419 
L 125.631249 95.443622 
L 125.683904 95.443622 
L 125.841867 95.51398 
L 125.947176 95.866031 
L 126.157793 95.866031 
L 126.263102 96.218435 
L 126.421066 96.288933 
L 126.47372 96.429982 
L 126.526374 96.429982 
L 126.631683 96.500587 
L 126.736992 96.712666 
L 126.789647 96.712666 
L 126.894955 96.925047 
L 127.105573 96.9959 
L 127.210882 97.42136 
L 127.316191 97.492321 
L 127.368845 97.634242 
L 127.526808 97.705221 
L 127.632117 98.131597 
L 127.790081 98.20272 
L 127.842735 98.487211 
L 127.895389 98.487211 
L 127.948044 98.487211 
L 128.053353 98.914165 
L 128.158662 98.985343 
L 128.26397 99.55527 
L 128.421934 99.626556 
L 128.527243 99.840452 
L 128.632551 99.840452 
L 128.73786 100.268866 
L 128.895824 100.340317 
L 129.001132 100.626343 
L 129.106441 100.697868 
L 129.159096 100.984152 
L 129.422368 101.055751 
L 129.527677 101.342313 
L 129.68564 101.413986 
L 129.738294 101.629117 
L 129.790949 101.629117 
L 129.896258 101.70092 
L 130.001566 101.98832 
L 130.054221 101.98832 
L 130.15953 102.204123 
L 130.212184 102.204123 
L 130.317493 102.852 
L 130.686074 102.924255 
L 130.791383 103.14104 
L 130.844037 103.14104 
L 130.949346 103.647569 
L 131.107309 103.719957 
L 131.159964 104.154633 
L 131.212618 104.154633 
L 131.317927 104.227117 
L 131.423236 104.589922 
L 131.581199 104.589922 
L 131.633854 104.808011 
L 131.844471 104.880726 
L 131.94978 105.244555 
L 132.055089 105.317387 
L 132.107743 105.608754 
L 132.160398 105.608754 
L 132.213052 105.608754 
L 132.318361 105.900647 
L 132.42367 105.973675 
L 132.528979 106.339262 
L 132.634288 106.339262 
L 132.739597 106.852126 
L 132.844905 106.925449 
L 132.950214 107.439126 
L 133.055523 107.512528 
L 133.108177 107.732855 
L 133.160832 107.732855 
L 133.213486 107.732855 
L 133.318795 107.953641 
L 133.37145 107.953641 
L 133.476758 108.46962 
L 133.582067 108.543424 
L 133.687376 108.913029 
L 133.792685 108.986994 
L 133.845339 109.282979 
L 133.897994 109.282979 
L 134.003303 109.357149 
L 134.003303 109.431359 
L 134.108612 109.431359 
L 134.21392 109.505714 
L 134.319229 109.80338 
L 134.371884 109.80338 
L 134.477193 110.325703 
L 134.582501 110.400389 
L 134.68781 110.774592 
L 134.845773 110.84955 
L 134.951082 111.150141 
L 135.214354 111.225523 
L 135.319663 111.679436 
L 135.477627 111.755332 
L 135.582935 112.211774 
L 135.63559 112.211774 
L 135.740899 112.822499 
L 135.793553 112.822499 
L 135.793553 113.052289 
L 135.898862 113.052289 
L 135.951516 113.052289 
L 136.056825 113.282856 
L 136.162134 113.359876 
L 136.162134 113.668404 
L 136.267443 113.668404 
L 136.58337 113.745876 
L 136.688678 113.979614 
L 136.741333 113.979614 
L 136.741333 114.291972 
L 136.846642 114.291972 
L 136.899296 114.291972 
L 136.95195 114.526866 
L 137.004605 114.526866 
L 137.109914 114.605328 
L 137.162568 115.07661 
L 137.215223 115.07661 
L 137.373186 115.155377 
L 137.42584 115.471296 
L 137.478495 115.471296 
L 137.531149 115.471296 
L 137.531149 115.629589 
L 137.636458 115.629589 
L 137.847076 115.629589 
L 137.952385 115.947663 
L 138.110348 116.027362 
L 138.215657 116.347574 
L 138.37362 116.427811 
L 138.478929 116.829958 
L 138.742201 116.91074 
L 138.84751 117.153941 
L 138.952819 117.2351 
L 139.005473 117.723272 
L 139.058127 117.723272 
L 139.216091 117.804838 
L 139.3214 118.295105 
L 139.374054 118.295105 
L 139.479363 118.951574 
L 139.532017 118.951574 
L 139.584672 119.445417 
L 139.637326 119.445417 
L 139.900598 119.527944 
L 140.005907 120.107004 
L 140.058562 120.107004 
L 140.111216 120.438806 
L 140.16387 120.438806 
L 140.269179 120.522078 
L 140.321834 120.771949 
L 140.374488 120.771949 
L 140.532451 120.855437 
L 140.63776 121.274513 
L 140.690415 121.274513 
L 140.690415 121.442363 
L 140.795723 121.442363 
L 140.901032 121.526563 
L 141.006341 122.117072 
L 141.11165 122.201661 
L 141.216959 122.540355 
L 141.269613 122.540355 
L 141.374922 122.96482 
L 141.480231 123.04986 
L 141.58554 123.39116 
L 142.006775 123.477118 
L 142.112084 123.649151 
L 142.217393 123.649151 
L 142.322702 123.994151 
L 142.375356 123.994151 
L 142.428011 124.340031 
L 142.480665 124.340031 
L 142.691283 124.426782 
L 142.796592 124.68772 
L 142.849246 124.68772 
L 142.954555 125.036395 
L 143.112518 125.123896 
L 143.112518 125.211548 
L 143.217827 125.211548 
L 143.323136 125.299352 
L 143.428445 125.563285 
L 143.586408 125.651673 
L 143.691717 126.094421 
L 143.744371 126.094421 
L 143.84968 126.538074 
L 143.954989 126.538074 
L 144.060298 127.073606 
L 144.165607 127.162999 
L 144.218261 127.521434 
L 144.270916 127.521434 
L 144.32357 127.521434 
L 144.428879 128.420465 
L 144.586842 128.510598 
L 144.692151 128.691224 
L 144.79746 128.781586 
L 144.902769 129.053132 
L 145.008077 129.143757 
L 145.113386 129.506753 
L 145.218695 129.506753 
L 145.27135 129.779823 
L 145.324004 129.779823 
L 145.429313 129.871148 
L 145.534622 130.236749 
L 145.639931 130.328412 
L 145.745239 130.787643 
L 145.850548 130.879783 
L 145.850548 131.064477 
L 145.955857 131.064477 
L 146.11382 131.157066 
L 146.219129 131.435425 
L 146.482401 131.528574 
L 146.58771 132.088101 
L 146.693019 132.181391 
L 146.798328 132.462007 
L 146.850982 132.462007 
L 146.956291 133.024272 
L 147.166909 133.118313 
L 147.219563 133.495707 
L 147.272218 133.495707 
L 147.324872 133.495707 
L 147.377527 133.968563 
L 147.430181 133.968563 
L 147.53549 134.06348 
L 147.588144 134.348972 
L 147.640799 134.348972 
L 147.798762 134.444446 
L 147.904071 134.635884 
L 148.219997 134.732304 
L 148.219997 135.021793 
L 148.325306 135.021793 
L 148.430615 135.11852 
L 148.535924 135.505891 
L 148.693887 135.603122 
L 148.693887 135.797741 
L 148.799196 135.797741 
L 149.009814 135.797741 
L 149.009814 135.993618 
L 149.115123 135.993618 
L 149.32574 136.091915 
L 149.378395 136.289069 
L 149.431049 136.289069 
L 149.483704 136.289069 
L 149.483704 136.585404 
L 149.589012 136.585404 
L 150.062902 136.684629 
L 150.168211 136.884394 
L 150.378829 136.984442 
L 150.484138 137.386135 
L 150.958027 137.487233 
L 151.063336 137.69007 
L 151.273954 137.791983 
L 151.379263 138.098631 
L 151.642535 138.201549 
L 151.747844 138.510568 
L 151.905807 138.613663 
L 151.958462 139.026309 
L 152.011116 139.026309 
L 152.06377 139.026309 
L 152.06377 139.232944 
L 152.169079 139.232944 
L 152.327042 139.336396 
L 152.379697 139.54348 
L 152.432351 139.54348 
L 152.642969 139.647382 
L 152.695623 139.960501 
L 152.748278 139.960501 
L 152.853587 140.065179 
L 152.958896 140.379493 
L 153.222168 140.379493 
L 153.222168 140.696038 
L 153.327477 140.696038 
L 153.432785 140.801836 
L 153.48544 141.013526 
L 153.538094 141.013526 
L 153.643403 141.013526 
L 153.696058 141.438519 
L 153.748712 141.438519 
L 153.906675 141.545175 
L 153.906675 141.758678 
L 154.011984 141.758678 
L 154.169947 141.758678 
L 154.275256 142.186797 
L 154.380565 142.294082 
L 154.433219 142.508897 
L 154.485874 142.508897 
L 155.117727 142.617569 
L 155.223036 142.835516 
L 155.27569 142.835516 
L 155.27569 143.053766 
L 155.380999 143.053766 
L 155.74958 143.163503 
L 155.802235 143.383593 
L 155.854889 143.383593 
L 156.012852 143.494105 
L 156.012852 143.604773 
L 156.118161 143.604773 
L 156.170815 143.604773 
L 156.170815 143.826949 
L 156.276124 143.826949 
L 156.328779 143.826949 
L 156.328779 143.938354 
L 156.434088 143.938354 
L 156.539396 143.938354 
L 156.539396 144.050078 
L 156.644705 144.050078 
L 156.750014 144.050078 
L 156.855323 144.498526 
L 156.907977 144.498526 
L 157.013286 144.723263 
L 157.065941 144.723263 
L 157.065941 144.948979 
L 157.17125 144.948979 
L 157.223904 144.948979 
L 157.329213 145.175848 
L 157.539831 145.175848 
L 157.645139 145.404219 
L 157.697794 145.404219 
L 157.750448 145.518629 
L 157.803103 145.518629 
L 157.908411 145.518629 
L 158.01372 145.748468 
L 158.066375 145.748468 
L 158.119029 145.863444 
L 158.171684 145.863444 
L 158.224338 145.863444 
L 158.224338 146.094196 
L 158.329647 146.094196 
L 158.48761 146.094196 
L 158.592919 146.557546 
L 158.698228 146.557546 
L 158.803537 146.906689 
L 158.856191 146.906689 
L 158.9615 147.374018 
L 159.172118 147.374018 
L 159.172118 147.491624 
L 159.277427 147.491624 
L 159.330081 147.491624 
L 159.43539 147.963857 
L 159.751316 147.963857 
L 159.803971 148.201805 
L 159.856625 148.201805 
L 159.90928 148.201805 
L 159.90928 148.320933 
L 160.014588 148.320933 
L 160.119897 148.320933 
L 160.119897 148.44062 
L 160.225206 148.44062 
L 160.277861 148.44062 
L 160.277861 148.560557 
L 160.383169 148.560557 
L 160.541133 148.560557 
L 160.646442 149.042763 
L 160.804405 149.042763 
L 160.857059 149.284789 
L 160.909714 149.284789 
L 160.962368 149.284789 
L 161.067677 149.52778 
L 161.22564 149.52778 
L 161.22564 149.770965 
L 161.330949 149.770965 
L 161.436258 149.770965 
L 161.436258 149.892882 
L 161.488912 149.892882 
L 161.646876 149.892882 
L 161.752184 150.381924 
L 161.804839 150.381924 
L 161.857493 150.627004 
L 161.962802 150.627004 
L 162.015457 151.118489 
L 162.489346 151.118489 
L 162.594655 151.365704 
L 162.963236 151.365704 
L 163.015891 151.738321 
L 163.068545 151.738321 
L 163.173854 151.738321 
L 163.173854 151.862778 
L 163.279163 151.862778 
L 163.331817 151.862778 
L 163.384472 152.113345 
L 163.437126 152.113345 
L 163.753053 152.113345 
L 163.753053 152.239751 
L 163.858361 152.239751 
L 163.911016 152.239751 
L 163.911016 152.493842 
L 164.016325 152.493842 
L 164.384906 152.493842 
L 164.490215 152.880132 
L 164.91145 152.880132 
L 165.016759 153.139861 
L 165.174722 153.139861 
L 165.227377 153.401023 
L 165.332685 153.401023 
L 165.437994 154.055297 
L 165.490649 154.055297 
L 165.595957 154.449798 
L 165.85923 154.449798 
L 165.964538 154.84679 
L 166.069847 154.84679 
L 166.069847 154.979146 
L 166.175156 154.979146 
L 166.543737 154.979146 
L 166.543737 155.112692 
L 166.649046 155.112692 
L 166.859664 155.112692 
L 166.859664 155.247204 
L 166.912318 155.247204 
L 167.070281 155.247204 
L 167.17559 155.517044 
L 167.333554 155.517044 
L 167.333554 155.65221 
L 167.438862 155.65221 
L 167.544171 155.65221 
L 167.64948 155.924279 
L 167.754789 155.924279 
L 167.754789 156.196764 
L 167.860098 156.196764 
L 168.018061 156.196764 
L 168.018061 156.333511 
L 168.070715 156.333511 
L 168.228679 156.333511 
L 168.281333 156.745532 
L 168.333988 156.745532 
L 168.439296 156.745532 
L 168.439296 156.883558 
L 168.491951 156.883558 
L 168.59726 156.883558 
L 168.649914 157.29841 
L 168.702569 157.29841 
L 169.018495 157.29841 
L 169.07115 157.576986 
L 169.123804 157.576986 
L 169.229113 157.576986 
L 169.281767 157.856179 
L 169.387076 157.856179 
L 169.387076 157.995864 
L 169.492385 157.995864 
L 169.755657 157.995864 
L 169.808311 158.418047 
L 169.860966 158.418047 
L 169.91362 158.418047 
L 169.91362 158.559076 
L 170.018929 158.559076 
L 170.282201 158.559076 
L 170.38751 158.842867 
L 170.598128 158.842867 
L 170.598128 158.985547 
L 170.703437 158.985547 
L 171.124672 158.985547 
L 171.229981 159.273346 
L 171.282635 159.273346 
L 171.387944 159.850274 
L 171.440599 159.850274 
L 171.545907 160.139405 
L 171.80918 160.139405 
L 171.861834 160.576097 
L 171.967143 160.576097 
L 172.072452 160.868138 
L 172.177761 160.868138 
L 172.283069 161.161958 
L 172.65165 161.161958 
L 172.65165 161.309869 
L 172.756959 161.309869 
L 172.914923 161.309869 
L 172.914923 161.458695 
L 173.020231 161.458695 
L 173.494121 161.458695 
L 173.59943 161.760285 
L 173.862702 161.760285 
L 173.862702 161.912352 
L 173.915357 161.912352 
L 174.07332 161.912352 
L 174.125974 162.217131 
L 174.231283 162.217131 
L 174.336592 162.676136 
L 174.705173 162.676136 
L 174.810482 163.139753 
L 175.179063 163.139753 
L 175.231717 163.452163 
L 175.284372 163.452163 
L 175.494989 163.452163 
L 175.494989 163.609572 
L 175.600298 163.609572 
L 175.810916 163.609572 
L 175.810916 163.76756 
L 175.916225 163.76756 
L 176.021534 163.76756 
L 176.021534 163.926134 
L 176.126842 163.926134 
L 176.232151 163.926134 
L 176.33746 164.243633 
L 176.548078 164.243633 
L 176.653387 164.722908 
L 176.81135 164.722908 
L 176.81135 164.883267 
L 176.916659 164.883267 
L 177.179931 164.883267 
L 177.232585 165.205683 
L 177.28524 165.205683 
L 177.653821 165.205683 
L 177.653821 165.367997 
L 177.75913 165.367997 
L 177.811784 165.367997 
L 177.811784 165.530809 
L 177.969747 165.530809 
L 177.969747 165.69387 
L 178.075056 165.69387 
L 178.233019 165.69387 
L 178.233019 165.85756 
L 178.285674 165.85756 
L 178.390983 165.85756 
L 178.390983 166.1857 
L 178.443637 166.1857 
L 178.548946 166.1857 
L 178.548946 166.349897 
L 178.654255 166.349897 
L 179.022836 166.349897 
L 179.022836 166.680601 
L 179.07549 166.680601 
L 179.233453 166.680601 
L 179.338762 166.846212 
L 179.338762 166.846212 
L 179.602034 166.846212 
L 179.602034 167.013927 
L 179.707343 167.013927 
L 180.286542 167.013927 
L 180.286542 167.18394 
L 180.339196 167.18394 
L 180.760432 167.18394 
L 180.760432 167.354918 
L 180.813086 167.354918 
L 181.129013 167.354918 
L 181.234322 167.871768 
L 181.286976 167.871768 
L 181.286976 168.044429 
L 181.392285 168.044429 
L 181.760866 168.044429 
L 181.81352 168.392614 
L 181.866175 168.392614 
L 181.918829 168.392614 
L 181.971484 168.74196 
L 182.024138 168.74196 
L 182.182101 168.74196 
L 182.182101 168.917365 
L 182.234756 168.917365 
L 182.340065 168.917365 
L 182.340065 169.093064 
L 182.392719 169.093064 
L 182.498028 169.093064 
L 182.498028 169.269357 
L 182.603337 169.269357 
L 183.077226 169.269357 
L 183.077226 169.446398 
L 183.182535 169.446398 
L 183.919697 169.446398 
L 183.919697 169.625107 
L 183.972352 169.625107 
L 184.130315 169.625107 
L 184.130315 169.804277 
L 184.235624 169.804277 
L 184.55155 169.804277 
L 184.55155 169.984689 
L 184.656859 169.984689 
L 184.709514 169.984689 
L 184.709514 170.165415 
L 184.814823 170.165415 
L 185.078095 170.165415 
L 185.078095 170.529398 
L 185.183403 170.529398 
L 185.341367 170.529398 
L 185.341367 170.71187 
L 185.446676 170.71187 
L 185.49933 170.71187 
L 185.49933 170.895149 
L 185.604639 170.895149 
L 185.657293 170.895149 
L 185.762602 171.262031 
L 185.867911 171.262031 
L 185.867911 171.446125 
L 185.97322 171.446125 
L 186.131183 171.446125 
L 186.131183 171.630548 
L 186.183838 171.630548 
L 186.341801 171.630548 
L 186.341801 171.815467 
L 186.44711 171.815467 
L 186.499764 171.815467 
L 186.499764 172.000885 
L 186.605073 172.000885 
L 186.710382 172.000885 
L 186.710382 172.373734 
L 186.815691 172.373734 
L 187.184272 172.373734 
L 187.28958 172.75034 
L 187.342235 172.75034 
L 187.447544 173.127637 
L 187.552853 173.127637 
L 187.605507 173.505457 
L 187.658161 173.505457 
L 188.026742 173.505457 
L 188.079397 173.885205 
L 188.132051 173.885205 
L 188.447978 173.885205 
L 188.500632 174.267264 
L 188.921868 174.267264 
L 188.921868 174.459284 
L 189.027176 174.459284 
L 189.18514 174.459284 
L 189.18514 174.65258 
L 189.65903 174.65258 
L 189.65903 174.846428 
L 189.764338 174.846428 
L 190.132919 174.846428 
L 190.132919 175.041581 
L 190.185574 175.041581 
L 190.290883 175.041581 
L 190.343537 175.432261 
L 190.448846 175.432261 
L 190.448846 175.627601 
L 190.554155 175.627601 
L 190.659464 175.627601 
L 190.659464 175.823889 
L 190.712118 175.823889 
L 191.133353 175.823889 
L 191.133353 176.021326 
L 191.238662 176.021326 
L 191.607243 176.021326 
L 191.607243 176.219151 
L 191.659898 176.219151 
L 191.870515 176.219151 
L 191.870515 176.417364 
L 191.975824 176.417364 
L 192.133788 176.417364 
L 192.133788 176.617346 
L 192.186442 176.617346 
L 192.39706 176.617346 
L 192.39706 176.818127 
L 192.555023 176.818127 
L 192.660332 177.220894 
L 193.186876 177.220894 
L 193.186876 177.424938 
L 193.23953 177.424938 
L 193.344839 177.424938 
L 193.450148 177.833649 
L 193.871384 177.833649 
L 193.871384 178.039159 
L 193.976692 178.039159 
L 194.239965 178.039159 
L 194.345273 178.866298 
L 194.397928 178.866298 
L 194.503237 179.486868 
L 194.766509 179.486868 
L 194.766509 179.903038 
L 194.819163 179.903038 
L 195.187744 179.903038 
L 195.187744 180.111781 
L 195.293053 180.111781 
L 195.661634 180.111781 
L 195.714288 180.533044 
L 195.766943 180.533044 
L 195.977561 180.533044 
L 195.977561 180.744464 
L 196.082869 180.744464 
L 196.240833 180.744464 
L 196.293487 181.383521 
L 196.820031 181.383521 
L 196.820031 181.599346 
L 196.872686 181.599346 
L 197.083303 181.599346 
L 197.083303 181.816363 
L 197.188612 181.816363 
L 197.293921 181.816363 
L 197.346576 182.252327 
L 197.39923 182.252327 
L 197.609848 182.252327 
L 197.662502 182.690241 
L 197.820465 182.690241 
L 197.87312 182.909691 
L 197.87312 182.909691 
L 198.452318 182.909691 
L 198.452318 183.130631 
L 198.504973 183.130631 
L 198.715591 183.130631 
L 198.820899 183.575031 
L 199.452753 183.575031 
L 199.505407 184.023015 
L 200.084606 184.023015 
L 200.13726 184.472556 
L 200.189915 184.472556 
L 200.295223 184.472556 
L 200.295223 184.698375 
L 200.347878 184.698375 
L 200.663804 184.698375 
L 200.769113 184.925789 
L 200.769113 184.925789 
L 201.032385 184.925789 
L 201.032385 185.154009 
L 201.664238 185.154009 
L 201.716893 185.612348 
L 201.822202 185.612348 
L 201.822202 185.842202 
L 202.190783 185.842202 
L 202.190783 186.30412 
L 202.243437 186.30412 
L 202.4014 186.30412 
L 202.4014 186.535637 
L 202.612018 186.535637 
L 202.612018 186.767434 
L 202.822636 186.767434 
L 202.822636 186.999231 
L 202.87529 186.999231 
L 203.085908 186.999231 
L 203.085908 187.231875 
L 203.138562 187.231875 
L 203.296526 187.231875 
L 203.296526 187.464803 
L 203.401834 187.464803 
L 203.454489 187.464803 
L 203.559798 187.933239 
L 203.665107 187.933239 
L 203.665107 188.168179 
L 204.138996 188.168179 
L 204.138996 188.403702 
L 204.244305 188.403702 
L 204.454923 188.403702 
L 204.560232 189.115283 
L 204.665541 189.115283 
L 204.665541 189.352575 
L 205.665975 189.352575 
L 205.665975 189.591672 
L 205.823938 189.591672 
L 205.929247 190.069866 
L 206.034556 190.069866 
L 206.139864 190.549586 
L 206.5611 190.549586 
L 206.5611 190.79177 
L 206.666409 190.79177 
L 206.771718 190.79177 
L 206.771718 191.035213 
L 206.824372 191.035213 
L 207.50888 191.035213 
L 207.50888 191.280252 
L 207.614188 191.280252 
L 207.666843 191.280252 
L 207.666843 191.52626 
L 207.719497 191.52626 
L 207.982769 191.52626 
L 207.982769 191.772918 
L 208.088078 191.772918 
L 208.140733 191.772918 
L 208.140733 192.267545 
L 208.614622 192.267545 
L 208.614622 192.514859 
L 208.983203 192.514859 
L 209.035858 192.762834 
L 209.088512 192.762834 
L 209.141167 192.762834 
L 209.141167 193.012144 
L 209.246476 193.012144 
L 209.29913 193.012144 
L 209.29913 193.262127 
L 210.352218 193.262127 
L 210.352218 193.514157 
L 210.457527 193.514157 
L 210.773454 193.514157 
L 210.773454 193.76827 
L 211.457961 193.76827 
L 211.457961 194.023085 
L 211.721234 194.023085 
L 211.721234 194.278964 
L 211.826542 194.278964 
L 212.142469 194.278964 
L 212.142469 194.537362 
L 212.247778 194.537362 
L 212.51105 194.537362 
L 212.51105 194.796125 
L 212.616359 194.796125 
L 213.037594 194.796125 
L 213.037594 195.057471 
L 213.142903 195.057471 
L 213.774756 195.057471 
L 213.774756 195.322222 
L 213.82741 195.322222 
L 214.090683 195.322222 
L 214.195991 195.854426 
L 214.564572 195.854426 
L 214.669881 196.390151 
L 214.933153 196.390151 
L 214.933153 196.659203 
L 215.038462 196.659203 
L 215.407043 196.659203 
L 215.407043 196.930265 
L 216.091551 196.930265 
L 216.19686 197.478551 
L 217.565875 197.478551 
L 217.565875 197.759299 
L 217.671183 197.759299 
L 217.881801 197.759299 
L 217.881801 198.040925 
L 217.98711 198.040925 
L 218.197728 198.040925 
L 218.197728 198.32388 
L 219.092853 198.32388 
L 219.092853 198.608628 
L 219.198162 198.608628 
L 219.461434 198.608628 
L 219.461434 198.894739 
L 219.619397 198.894739 
L 219.619397 199.180849 
L 219.672052 199.180849 
L 220.198596 199.180849 
L 220.198596 199.468803 
L 220.25125 199.468803 
L 220.672486 199.468803 
L 220.672486 199.760045 
L 220.777795 199.760045 
L 221.725574 199.760045 
L 221.725574 200.057607 
L 222.094155 200.057607 
L 222.094155 200.357174 
L 222.199464 200.357174 
L 222.357427 200.357174 
L 222.462736 200.95987 
L 222.568045 200.95987 
L 222.568045 201.262503 
L 222.936626 201.262503 
L 222.936626 201.566175 
L 222.98928 201.566175 
L 223.147244 201.566175 
L 223.147244 201.871953 
L 223.252553 201.871953 
L 223.410516 201.871953 
L 223.410516 202.484572 
L 224.042369 202.484572 
L 224.042369 202.793578 
L 224.147678 202.793578 
L 225.042803 202.793578 
L 225.042803 203.107007 
L 225.148112 203.107007 
L 225.622002 203.107007 
L 225.622002 203.424417 
L 225.72731 203.424417 
L 225.779965 203.424417 
L 225.779965 203.742405 
L 226.2012 203.742405 
L 226.2012 204.060394 
L 226.306509 204.060394 
L 227.306943 204.060394 
L 227.306943 204.383102 
L 227.675524 204.383102 
L 227.675524 204.70641 
L 227.780833 204.70641 
L 229.834356 204.70641 
L 229.834356 205.039667 
L 230.255591 205.039667 
L 230.255591 205.374213 
L 230.3609 205.374213 
L 230.676826 205.374213 
L 230.782135 206.049202 
L 232.62504 206.049202 
L 232.62504 206.391052 
L 232.677695 206.391052 
L 233.046276 206.391052 
L 233.046276 206.734958 
L 235.047144 206.734958 
L 235.047144 207.088811 
L 235.521033 207.088811 
L 235.521033 207.444136 
L 235.731651 207.444136 
L 235.731651 207.800948 
L 235.784306 207.800948 
L 236.258195 207.800948 
L 236.258195 208.164621 
L 236.363504 208.164621 
L 236.416159 208.164621 
L 236.416159 208.529858 
L 237.732519 208.529858 
L 237.732519 208.89988 
L 238.1011 208.89988 
L 238.1011 209.272347 
L 238.996225 209.272347 
L 238.996225 209.648133 
L 239.04888 209.648133 
L 239.680733 209.648133 
L 239.680733 210.027304 
L 239.733387 210.027304 
L 240.312586 210.027304 
L 240.312586 210.412562 
L 240.628513 210.412562 
L 240.628513 210.798708 
L 240.733822 210.798708 
L 240.944439 210.798708 
L 240.944439 211.188455 
L 241.365675 211.188455 
L 241.365675 211.580031 
L 241.418329 211.580031 
L 242.629381 211.580031 
L 242.629381 211.978165 
L 242.682035 211.978165 
L 243.471852 211.978165 
L 243.471852 212.381131 
L 244.577595 212.381131 
L 244.577595 212.789059 
L 244.840867 212.789059 
L 244.840867 213.196987 
L 244.893521 213.196987 
L 245.104139 213.196987 
L 245.104139 213.606945 
L 245.156793 213.606945 
L 245.367411 213.606945 
L 245.367411 214.017928 
L 246.262536 214.017928 
L 246.367845 214.84612 
L 248.052787 214.84612 
L 248.052787 215.269896 
L 248.789948 215.269896 
L 248.789948 215.695891 
L 248.842603 215.695891 
L 249.685074 215.695891 
L 249.685074 216.127551 
L 249.737728 216.127551 
L 250.843471 216.127551 
L 250.94878 217.008495 
L 252.212486 217.008495 
L 252.212486 217.460718 
L 252.73903 217.460718 
L 252.73903 217.914219 
L 252.844339 217.914219 
L 253.318229 217.914219 
L 253.318229 218.372917 
L 254.1607 218.372917 
L 254.1607 218.838302 
L 254.318663 218.838302 
L 254.423972 219.769073 
L 255.424406 219.769073 
L 255.424406 220.250018 
L 255.47706 220.250018 
L 256.477494 220.250018 
L 256.530149 221.217809 
L 256.688112 221.217809 
L 256.688112 221.701705 
L 257.109348 221.701705 
L 257.214656 222.672501 
L 258.162436 222.672501 
L 258.162436 223.165605 
L 259.742069 223.165605 
L 259.742069 223.669951 
L 259.847378 223.669951 
L 260.847812 223.669951 
L 260.900466 224.6954 
L 260.953121 224.6954 
L 262.269481 224.6954 
L 262.269481 225.216844 
L 262.690717 225.216844 
L 262.690717 225.741872 
L 264.270349 225.741872 
L 264.375658 226.81035 
L 264.63893 226.81035 
L 264.63893 227.344589 
L 266.271217 227.344589 
L 266.271217 227.888472 
L 266.376526 227.888472 
L 266.745107 227.888472 
L 266.745107 228.436324 
L 268.430049 228.436324 
L 268.430049 228.996488 
L 268.588012 228.996488 
L 268.640667 230.116815 
L 270.220299 230.116815 
L 270.220299 230.685596 
L 270.904807 230.685596 
L 270.904807 231.261043 
L 271.905241 231.261043 
L 271.905241 231.841039 
L 272.695057 231.841039 
L 272.695057 232.423346 
L 275.538396 232.423346 
L 275.538396 233.037593 
L 275.749014 233.037593 
L 275.749014 233.651841 
L 276.644139 233.651841 
L 276.644139 234.271361 
L 279.961368 234.271361 
L 279.961368 234.921716 
L 280.066677 234.921716 
L 282.225508 234.921716 
L 282.225508 235.593445 
L 282.96267 235.593445 
L 282.96267 236.268358 
L 283.857795 236.268358 
L 283.857795 236.943271 
L 283.963104 236.943271 
L 285.121502 236.943271 
L 285.22681 237.628012 
L 285.22681 237.628012 
L 286.911752 237.628012 
L 286.911752 238.344196 
L 287.12237 238.344196 
L 287.12237 239.064071 
L 291.703305 239.064071 
L 291.703305 239.871838 
L 294.86257 239.871838 
L 294.915224 240.714083 
L 294.915224 240.714083 
L 297.653255 240.714083 
L 297.653255 241.594121 
L 298.07449 241.594121 
L 298.07449 242.474159 
L 299.02227 242.474159 
L 299.02227 243.365776 
L 299.232887 243.365776 
L 299.232887 244.263338 
L 299.759432 244.263338 
L 299.759432 245.160899 
L 302.444807 245.160899 
L 302.444807 246.089844 
L 303.392587 246.089844 
L 303.392587 247.018789 
L 308.55272 247.018789 
L 308.55272 248.00361 
L 317.451318 248.00361 
L 317.451318 249.143929 
L 319.294223 249.143929 
L 319.294223 250.284248 
L 319.346878 250.284248 
L 322.084908 250.284248 
L 322.084908 251.466801 
L 329.561836 251.466801 
L 329.561836 252.904679 
L 329.667145 252.904679 
L 330.404307 252.904679 
L 330.404307 254.376388 
L 338.039198 254.376388 
L 338.039198 256.003015 
L 340.040066 256.003015 
L 340.040066 257.721282 
L 340.145375 257.721282 
L 347.674958 257.721282 
L 347.674958 259.661262 
L 349.412554 259.661262 
L 349.412554 261.601241 
L 362.57616 261.601241 
L 362.57616 263.797444 
L 371.053523 263.797444 
L 371.053523 266.335278 
L 376.582237 266.335278 
L 376.582237 268.993962 
L 387.376394 268.993962 
L 387.376394 272.108421 
L 453.668315 272.108421 
L 453.668315 279.672105 
L 455.300602 279.672105 
L 455.300602 287.866096 
L 462.514258 287.866096 
L 462.514258 296.060087 
L 565.874894 296.060087 
L 565.874894 296.060087 
" style="fill:none;stroke:#0000ff;stroke-linecap:square;stroke-width:1.5;"/>
   </g>
   <g id="patch_3">
    <path d="M 90 378 
L 90 51.84 
" style="fill:none;stroke:#000000;stroke-linecap:square;stroke-linejoin:miter;stroke-width:0.8;"/>
   </g>
   <g id="patch_4">
    <path d="M 648 378 
L 648 51.84 
" style="fill:none;stroke:#000000;stroke-linecap:square;stroke-linejoin:miter;stroke-width:0.8;"/>
   </g>
   <g id="patch_5">
    <path d="M 90 378 
L 648 378 
" style="fill:none;stroke:#000000;stroke-linecap:square;stroke-linejoin:miter;stroke-width:0.8;"/>
   </g>
   <g id="patch_6">
    <path d="M 90 51.84 
L 648 51.84 
" style="fill:none;stroke:#000000;stroke-linecap:square;stroke-linejoin:miter;stroke-width:0.8;"/>
   </g>
   <g id="text_15">
    <!-- Survival based on ATG7(1) expression -->
    <g transform="translate(140.925 45.84)scale(0.24 -0.24)">
     <defs>
      <path d="M 53.515625 70.515625 
L 53.515625 60.890625 
Q 47.90625 63.578125 42.921875 64.890625 
Q 37.9375 66.21875 33.296875 66.21875 
Q 25.25 66.21875 20.875 63.09375 
Q 16.5 59.96875 16.5 54.203125 
Q 16.5 49.359375 19.40625 46.890625 
Q 22.3125 44.4375 30.421875 42.921875 
L 36.375 41.703125 
Q 47.40625 39.59375 52.65625 34.296875 
Q 57.90625 29 57.90625 20.125 
Q 57.90625 9.515625 50.796875 4.046875 
Q 43.703125 -1.421875 29.984375 -1.421875 
Q 24.8125 -1.421875 18.96875 -0.25 
Q 13.140625 0.921875 6.890625 3.21875 
L 6.890625 13.375 
Q 12.890625 10.015625 18.65625 8.296875 
Q 24.421875 6.59375 29.984375 6.59375 
Q 38.421875 6.59375 43.015625 9.90625 
Q 47.609375 13.234375 47.609375 19.390625 
Q 47.609375 24.75 44.3125 27.78125 
Q 41.015625 30.8125 33.5 32.328125 
L 27.484375 33.5 
Q 16.453125 35.6875 11.515625 40.375 
Q 6.59375 45.0625 6.59375 53.421875 
Q 6.59375 63.09375 13.40625 68.65625 
Q 20.21875 74.21875 32.171875 74.21875 
Q 37.3125 74.21875 42.625 73.28125 
Q 47.953125 72.359375 53.515625 70.515625 
z
" id="DejaVuSans-83"/>
      <path d="M 34.1875 63.1875 
L 20.796875 26.90625 
L 47.609375 26.90625 
z
M 28.609375 72.90625 
L 39.796875 72.90625 
L 67.578125 0 
L 57.328125 0 
L 50.6875 18.703125 
L 17.828125 18.703125 
L 11.1875 0 
L 0.78125 0 
z
" id="DejaVuSans-65"/>
      <path d="M -0.296875 72.90625 
L 61.375 72.90625 
L 61.375 64.59375 
L 35.5 64.59375 
L 35.5 0 
L 25.59375 0 
L 25.59375 64.59375 
L -0.296875 64.59375 
z
" id="DejaVuSans-84"/>
      <path d="M 59.515625 10.40625 
L 59.515625 29.984375 
L 43.40625 29.984375 
L 43.40625 38.09375 
L 69.28125 38.09375 
L 69.28125 6.78125 
Q 63.578125 2.734375 56.6875 0.65625 
Q 49.8125 -1.421875 42 -1.421875 
Q 24.90625 -1.421875 15.25 8.5625 
Q 5.609375 18.5625 5.609375 36.375 
Q 5.609375 54.25 15.25 64.234375 
Q 24.90625 74.21875 42 74.21875 
Q 49.125 74.21875 55.546875 72.453125 
Q 61.96875 70.703125 67.390625 67.28125 
L 67.390625 56.78125 
Q 61.921875 61.421875 55.765625 63.765625 
Q 49.609375 66.109375 42.828125 66.109375 
Q 29.4375 66.109375 22.71875 58.640625 
Q 16.015625 51.171875 16.015625 36.375 
Q 16.015625 21.625 22.71875 14.15625 
Q 29.4375 6.6875 42.828125 6.6875 
Q 48.046875 6.6875 52.140625 7.59375 
Q 56.25 8.5 59.515625 10.40625 
z
" id="DejaVuSans-71"/>
      <path d="M 8.203125 72.90625 
L 55.078125 72.90625 
L 55.078125 68.703125 
L 28.609375 0 
L 18.3125 0 
L 43.21875 64.59375 
L 8.203125 64.59375 
z
" id="DejaVuSans-55"/>
      <path d="M 54.890625 54.6875 
L 35.109375 28.078125 
L 55.90625 0 
L 45.3125 0 
L 29.390625 21.484375 
L 13.484375 0 
L 2.875 0 
L 24.125 28.609375 
L 4.6875 54.6875 
L 15.28125 54.6875 
L 29.78125 35.203125 
L 44.28125 54.6875 
z
" id="DejaVuSans-120"/>
     </defs>
     <use xlink:href="#DejaVuSans-83"/>
     <use x="63.476562" xlink:href="#DejaVuSans-117"/>
     <use x="126.855469" xlink:href="#DejaVuSans-114"/>
     <use x="167.96875" xlink:href="#DejaVuSans-118"/>
     <use x="227.148438" xlink:href="#DejaVuSans-105"/>
     <use x="254.931641" xlink:href="#DejaVuSans-118"/>
     <use x="314.111328" xlink:href="#DejaVuSans-97"/>
     <use x="375.390625" xlink:href="#DejaVuSans-108"/>
     <use x="403.173828" xlink:href="#DejaVuSans-32"/>
     <use x="434.960938" xlink:href="#DejaVuSans-98"/>
     <use x="498.4375" xlink:href="#DejaVuSans-97"/>
     <use x="559.716797" xlink:href="#DejaVuSans-115"/>
     <use x="611.816406" xlink:href="#DejaVuSans-101"/>
     <use x="673.339844" xlink:href="#DejaVuSans-100"/>
     <use x="736.816406" xlink:href="#DejaVuSans-32"/>
     <use x="768.603516" xlink:href="#DejaVuSans-111"/>
     <use x="829.785156" xlink:href="#DejaVuSans-110"/>
     <use x="893.164062" xlink:href="#DejaVuSans-32"/>
     <use x="924.951172" xlink:href="#DejaVuSans-65"/>
     <use x="985.609375" xlink:href="#DejaVuSans-84"/>
     <use x="1046.693359" xlink:href="#DejaVuSans-71"/>
     <use x="1124.183594" xlink:href="#DejaVuSans-55"/>
     <use x="1187.806641" xlink:href="#DejaVuSans-40"/>
     <use x="1226.820312" xlink:href="#DejaVuSans-49"/>
     <use x="1290.443359" xlink:href="#DejaVuSans-41"/>
     <use x="1329.457031" xlink:href="#DejaVuSans-32"/>
     <use x="1361.244141" xlink:href="#DejaVuSans-101"/>
     <use x="1421.017578" xlink:href="#DejaVuSans-120"/>
     <use x="1480.197266" xlink:href="#DejaVuSans-112"/>
     <use x="1543.673828" xlink:href="#DejaVuSans-114"/>
     <use x="1582.537109" xlink:href="#DejaVuSans-101"/>
     <use x="1644.060547" xlink:href="#DejaVuSans-115"/>
     <use x="1696.160156" xlink:href="#DejaVuSans-115"/>
     <use x="1748.259766" xlink:href="#DejaVuSans-105"/>
     <use x="1776.042969" xlink:href="#DejaVuSans-111"/>
     <use x="1837.224609" xlink:href="#DejaVuSans-110"/>
    </g>
   </g>
   <g id="legend_1">
    <g id="patch_7">
     <path d="M 436.775 126.5525 
L 634 126.5525 
Q 638 126.5525 638 122.5525 
L 638 65.84 
Q 638 61.84 634 61.84 
L 436.775 61.84 
Q 432.775 61.84 432.775 65.84 
L 432.775 122.5525 
Q 432.775 126.5525 436.775 126.5525 
z
" style="fill:#ffffff;opacity:0.8;stroke:#cccccc;stroke-linejoin:miter;"/>
    </g>
    <g id="line2d_15">
     <path d="M 440.775 78.036875 
L 480.775 78.036875 
" style="fill:none;stroke:#008000;stroke-linecap:square;stroke-width:1.5;"/>
    </g>
    <g id="line2d_16"/>
    <g id="text_16">
     <!-- Low ATG7(1) -->
     <g transform="translate(496.775 85.036875)scale(0.2 -0.2)">
      <defs>
       <path d="M 9.8125 72.90625 
L 19.671875 72.90625 
L 19.671875 8.296875 
L 55.171875 8.296875 
L 55.171875 0 
L 9.8125 0 
z
" id="DejaVuSans-76"/>
       <path d="M 4.203125 54.6875 
L 13.1875 54.6875 
L 24.421875 12.015625 
L 35.59375 54.6875 
L 46.1875 54.6875 
L 57.421875 12.015625 
L 68.609375 54.6875 
L 77.59375 54.6875 
L 63.28125 0 
L 52.6875 0 
L 40.921875 44.828125 
L 29.109375 0 
L 18.5 0 
z
" id="DejaVuSans-119"/>
      </defs>
      <use xlink:href="#DejaVuSans-76"/>
      <use x="53.962891" xlink:href="#DejaVuSans-111"/>
      <use x="115.144531" xlink:href="#DejaVuSans-119"/>
      <use x="196.931641" xlink:href="#DejaVuSans-32"/>
      <use x="228.71875" xlink:href="#DejaVuSans-65"/>
      <use x="289.376953" xlink:href="#DejaVuSans-84"/>
      <use x="350.460938" xlink:href="#DejaVuSans-71"/>
      <use x="427.951172" xlink:href="#DejaVuSans-55"/>
      <use x="491.574219" xlink:href="#DejaVuSans-40"/>
      <use x="530.587891" xlink:href="#DejaVuSans-49"/>
      <use x="594.210938" xlink:href="#DejaVuSans-41"/>
     </g>
    </g>
    <g id="line2d_17">
     <path d="M 440.775 107.393125 
L 480.775 107.393125 
" style="fill:none;stroke:#0000ff;stroke-linecap:square;stroke-width:1.5;"/>
    </g>
    <g id="line2d_18"/>
    <g id="text_17">
     <!-- High ATG7(1) -->
     <g transform="translate(496.775 114.393125)scale(0.2 -0.2)">
      <defs>
       <path d="M 9.8125 72.90625 
L 19.671875 72.90625 
L 19.671875 43.015625 
L 55.515625 43.015625 
L 55.515625 72.90625 
L 65.375 72.90625 
L 65.375 0 
L 55.515625 0 
L 55.515625 34.71875 
L 19.671875 34.71875 
L 19.671875 0 
L 9.8125 0 
z
" id="DejaVuSans-72"/>
       <path d="M 45.40625 27.984375 
Q 45.40625 37.75 41.375 43.109375 
Q 37.359375 48.484375 30.078125 48.484375 
Q 22.859375 48.484375 18.828125 43.109375 
Q 14.796875 37.75 14.796875 27.984375 
Q 14.796875 18.265625 18.828125 12.890625 
Q 22.859375 7.515625 30.078125 7.515625 
Q 37.359375 7.515625 41.375 12.890625 
Q 45.40625 18.265625 45.40625 27.984375 
z
M 54.390625 6.78125 
Q 54.390625 -7.171875 48.1875 -13.984375 
Q 42 -20.796875 29.203125 -20.796875 
Q 24.46875 -20.796875 20.265625 -20.09375 
Q 16.0625 -19.390625 12.109375 -17.921875 
L 12.109375 -9.1875 
Q 16.0625 -11.328125 19.921875 -12.34375 
Q 23.78125 -13.375 27.78125 -13.375 
Q 36.625 -13.375 41.015625 -8.765625 
Q 45.40625 -4.15625 45.40625 5.171875 
L 45.40625 9.625 
Q 42.625 4.78125 38.28125 2.390625 
Q 33.9375 0 27.875 0 
Q 17.828125 0 11.671875 7.65625 
Q 5.515625 15.328125 5.515625 27.984375 
Q 5.515625 40.671875 11.671875 48.328125 
Q 17.828125 56 27.875 56 
Q 33.9375 56 38.28125 53.609375 
Q 42.625 51.21875 45.40625 46.390625 
L 45.40625 54.6875 
L 54.390625 54.6875 
z
" id="DejaVuSans-103"/>
       <path d="M 54.890625 33.015625 
L 54.890625 0 
L 45.90625 0 
L 45.90625 32.71875 
Q 45.90625 40.484375 42.875 44.328125 
Q 39.84375 48.1875 33.796875 48.1875 
Q 26.515625 48.1875 22.3125 43.546875 
Q 18.109375 38.921875 18.109375 30.90625 
L 18.109375 0 
L 9.078125 0 
L 9.078125 75.984375 
L 18.109375 75.984375 
L 18.109375 46.1875 
Q 21.34375 51.125 25.703125 53.5625 
Q 30.078125 56 35.796875 56 
Q 45.21875 56 50.046875 50.171875 
Q 54.890625 44.34375 54.890625 33.015625 
z
" id="DejaVuSans-104"/>
      </defs>
      <use xlink:href="#DejaVuSans-72"/>
      <use x="75.195312" xlink:href="#DejaVuSans-105"/>
      <use x="102.978516" xlink:href="#DejaVuSans-103"/>
      <use x="166.455078" xlink:href="#DejaVuSans-104"/>
      <use x="229.833984" xlink:href="#DejaVuSans-32"/>
      <use x="261.621094" xlink:href="#DejaVuSans-65"/>
      <use x="322.279297" xlink:href="#DejaVuSans-84"/>
      <use x="383.363281" xlink:href="#DejaVuSans-71"/>
      <use x="460.853516" xlink:href="#DejaVuSans-55"/>
      <use x="524.476562" xlink:href="#DejaVuSans-40"/>
      <use x="563.490234" xlink:href="#DejaVuSans-49"/>
      <use x="627.113281" xlink:href="#DejaVuSans-41"/>
     </g>
    </g>
   </g>
  </g>
 </g>
 <defs>
  <clipPath id="p0af1087541">
   <rect height="326.16" width="558" x="90" y="51.84"/>
  </clipPath>
 </defs>
</svg>
