<?xml version="1.0" encoding="utf-8" standalone="no"?>
<!DOCTYPE svg PUBLIC "-//W3C//DTD SVG 1.1//EN"
  "http://www.w3.org/Graphics/SVG/1.1/DTD/svg11.dtd">
<!-- Created with matplotlib (https://matplotlib.org/) -->
<svg height="432pt" version="1.1" viewBox="0 0 720 432" width="720pt" xmlns="http://www.w3.org/2000/svg" xmlns:xlink="http://www.w3.org/1999/xlink">
 <metadata>
  <rdf:RDF xmlns:cc="http://creativecommons.org/ns#" xmlns:dc="http://purl.org/dc/elements/1.1/" xmlns:rdf="http://www.w3.org/1999/02/22-rdf-syntax-ns#">
   <cc:Work>
    <dc:type rdf:resource="http://purl.org/dc/dcmitype/StillImage"/>
    <dc:date>2022-02-25T09:51:19.256113</dc:date>
    <dc:format>image/svg+xml</dc:format>
    <dc:creator>
     <cc:Agent>
      <dc:title>Matplotlib v3.3.2, https://matplotlib.org/</dc:title>
     </cc:Agent>
    </dc:creator>
   </cc:Work>
  </rdf:RDF>
 </metadata>
 <defs>
  <style type="text/css">*{stroke-linecap:butt;stroke-linejoin:round;}</style>
 </defs>
 <g id="figure_1">
  <g id="patch_1">
   <path d="M 0 432 
L 720 432 
L 720 0 
L 0 0 
z
" style="fill:none;"/>
  </g>
  <g id="axes_1">
   <g id="patch_2">
    <path d="M 90 378 
L 648 378 
L 648 51.84 
L 90 51.84 
z
" style="fill:#ffffff;"/>
   </g>
   <g id="matplotlib.axis_1">
    <g id="xtick_1">
     <g id="line2d_1">
      <defs>
       <path d="M 0 0 
L 0 3.5 
" id="m15c14c9823" style="stroke:#000000;stroke-width:0.8;"/>
      </defs>
      <g>
       <use style="stroke:#000000;stroke-width:0.8;" x="115.363636" xlink:href="#m15c14c9823" y="378"/>
      </g>
     </g>
     <g id="text_1">
      <!-- 0 -->
      <g transform="translate(109.001136 400.196875)scale(0.2 -0.2)">
       <defs>
        <path d="M 31.78125 66.40625 
Q 24.171875 66.40625 20.328125 58.90625 
Q 16.5 51.421875 16.5 36.375 
Q 16.5 21.390625 20.328125 13.890625 
Q 24.171875 6.390625 31.78125 6.390625 
Q 39.453125 6.390625 43.28125 13.890625 
Q 47.125 21.390625 47.125 36.375 
Q 47.125 51.421875 43.28125 58.90625 
Q 39.453125 66.40625 31.78125 66.40625 
z
M 31.78125 74.21875 
Q 44.046875 74.21875 50.515625 64.515625 
Q 56.984375 54.828125 56.984375 36.375 
Q 56.984375 17.96875 50.515625 8.265625 
Q 44.046875 -1.421875 31.78125 -1.421875 
Q 19.53125 -1.421875 13.0625 8.265625 
Q 6.59375 17.96875 6.59375 36.375 
Q 6.59375 54.828125 13.0625 64.515625 
Q 19.53125 74.21875 31.78125 74.21875 
z
" id="DejaVuSans-48"/>
       </defs>
       <use xlink:href="#DejaVuSans-48"/>
      </g>
     </g>
    </g>
    <g id="xtick_2">
     <g id="line2d_2">
      <g>
       <use style="stroke:#000000;stroke-width:0.8;" x="220.672486" xlink:href="#m15c14c9823" y="378"/>
      </g>
     </g>
     <g id="text_2">
      <!-- 2000 -->
      <g transform="translate(195.222486 400.196875)scale(0.2 -0.2)">
       <defs>
        <path d="M 19.1875 8.296875 
L 53.609375 8.296875 
L 53.609375 0 
L 7.328125 0 
L 7.328125 8.296875 
Q 12.9375 14.109375 22.625 23.890625 
Q 32.328125 33.6875 34.8125 36.53125 
Q 39.546875 41.84375 41.421875 45.53125 
Q 43.3125 49.21875 43.3125 52.78125 
Q 43.3125 58.59375 39.234375 62.25 
Q 35.15625 65.921875 28.609375 65.921875 
Q 23.96875 65.921875 18.8125 64.3125 
Q 13.671875 62.703125 7.8125 59.421875 
L 7.8125 69.390625 
Q 13.765625 71.78125 18.9375 73 
Q 24.125 74.21875 28.421875 74.21875 
Q 39.75 74.21875 46.484375 68.546875 
Q 53.21875 62.890625 53.21875 53.421875 
Q 53.21875 48.921875 51.53125 44.890625 
Q 49.859375 40.875 45.40625 35.40625 
Q 44.1875 33.984375 37.640625 27.21875 
Q 31.109375 20.453125 19.1875 8.296875 
z
" id="DejaVuSans-50"/>
       </defs>
       <use xlink:href="#DejaVuSans-50"/>
       <use x="63.623047" xlink:href="#DejaVuSans-48"/>
       <use x="127.246094" xlink:href="#DejaVuSans-48"/>
       <use x="190.869141" xlink:href="#DejaVuSans-48"/>
      </g>
     </g>
    </g>
    <g id="xtick_3">
     <g id="line2d_3">
      <g>
       <use style="stroke:#000000;stroke-width:0.8;" x="325.981335" xlink:href="#m15c14c9823" y="378"/>
      </g>
     </g>
     <g id="text_3">
      <!-- 4000 -->
      <g transform="translate(300.531335 400.196875)scale(0.2 -0.2)">
       <defs>
        <path d="M 37.796875 64.3125 
L 12.890625 25.390625 
L 37.796875 25.390625 
z
M 35.203125 72.90625 
L 47.609375 72.90625 
L 47.609375 25.390625 
L 58.015625 25.390625 
L 58.015625 17.1875 
L 47.609375 17.1875 
L 47.609375 0 
L 37.796875 0 
L 37.796875 17.1875 
L 4.890625 17.1875 
L 4.890625 26.703125 
z
" id="DejaVuSans-52"/>
       </defs>
       <use xlink:href="#DejaVuSans-52"/>
       <use x="63.623047" xlink:href="#DejaVuSans-48"/>
       <use x="127.246094" xlink:href="#DejaVuSans-48"/>
       <use x="190.869141" xlink:href="#DejaVuSans-48"/>
      </g>
     </g>
    </g>
    <g id="xtick_4">
     <g id="line2d_4">
      <g>
       <use style="stroke:#000000;stroke-width:0.8;" x="431.290184" xlink:href="#m15c14c9823" y="378"/>
      </g>
     </g>
     <g id="text_4">
      <!-- 6000 -->
      <g transform="translate(405.840184 400.196875)scale(0.2 -0.2)">
       <defs>
        <path d="M 33.015625 40.375 
Q 26.375 40.375 22.484375 35.828125 
Q 18.609375 31.296875 18.609375 23.390625 
Q 18.609375 15.53125 22.484375 10.953125 
Q 26.375 6.390625 33.015625 6.390625 
Q 39.65625 6.390625 43.53125 10.953125 
Q 47.40625 15.53125 47.40625 23.390625 
Q 47.40625 31.296875 43.53125 35.828125 
Q 39.65625 40.375 33.015625 40.375 
z
M 52.59375 71.296875 
L 52.59375 62.3125 
Q 48.875 64.0625 45.09375 64.984375 
Q 41.3125 65.921875 37.59375 65.921875 
Q 27.828125 65.921875 22.671875 59.328125 
Q 17.53125 52.734375 16.796875 39.40625 
Q 19.671875 43.65625 24.015625 45.921875 
Q 28.375 48.1875 33.59375 48.1875 
Q 44.578125 48.1875 50.953125 41.515625 
Q 57.328125 34.859375 57.328125 23.390625 
Q 57.328125 12.15625 50.6875 5.359375 
Q 44.046875 -1.421875 33.015625 -1.421875 
Q 20.359375 -1.421875 13.671875 8.265625 
Q 6.984375 17.96875 6.984375 36.375 
Q 6.984375 53.65625 15.1875 63.9375 
Q 23.390625 74.21875 37.203125 74.21875 
Q 40.921875 74.21875 44.703125 73.484375 
Q 48.484375 72.75 52.59375 71.296875 
z
" id="DejaVuSans-54"/>
       </defs>
       <use xlink:href="#DejaVuSans-54"/>
       <use x="63.623047" xlink:href="#DejaVuSans-48"/>
       <use x="127.246094" xlink:href="#DejaVuSans-48"/>
       <use x="190.869141" xlink:href="#DejaVuSans-48"/>
      </g>
     </g>
    </g>
    <g id="xtick_5">
     <g id="line2d_5">
      <g>
       <use style="stroke:#000000;stroke-width:0.8;" x="536.599034" xlink:href="#m15c14c9823" y="378"/>
      </g>
     </g>
     <g id="text_5">
      <!-- 8000 -->
      <g transform="translate(511.149034 400.196875)scale(0.2 -0.2)">
       <defs>
        <path d="M 31.78125 34.625 
Q 24.75 34.625 20.71875 30.859375 
Q 16.703125 27.09375 16.703125 20.515625 
Q 16.703125 13.921875 20.71875 10.15625 
Q 24.75 6.390625 31.78125 6.390625 
Q 38.8125 6.390625 42.859375 10.171875 
Q 46.921875 13.96875 46.921875 20.515625 
Q 46.921875 27.09375 42.890625 30.859375 
Q 38.875 34.625 31.78125 34.625 
z
M 21.921875 38.8125 
Q 15.578125 40.375 12.03125 44.71875 
Q 8.5 49.078125 8.5 55.328125 
Q 8.5 64.0625 14.71875 69.140625 
Q 20.953125 74.21875 31.78125 74.21875 
Q 42.671875 74.21875 48.875 69.140625 
Q 55.078125 64.0625 55.078125 55.328125 
Q 55.078125 49.078125 51.53125 44.71875 
Q 48 40.375 41.703125 38.8125 
Q 48.828125 37.15625 52.796875 32.3125 
Q 56.78125 27.484375 56.78125 20.515625 
Q 56.78125 9.90625 50.3125 4.234375 
Q 43.84375 -1.421875 31.78125 -1.421875 
Q 19.734375 -1.421875 13.25 4.234375 
Q 6.78125 9.90625 6.78125 20.515625 
Q 6.78125 27.484375 10.78125 32.3125 
Q 14.796875 37.15625 21.921875 38.8125 
z
M 18.3125 54.390625 
Q 18.3125 48.734375 21.84375 45.5625 
Q 25.390625 42.390625 31.78125 42.390625 
Q 38.140625 42.390625 41.71875 45.5625 
Q 45.3125 48.734375 45.3125 54.390625 
Q 45.3125 60.0625 41.71875 63.234375 
Q 38.140625 66.40625 31.78125 66.40625 
Q 25.390625 66.40625 21.84375 63.234375 
Q 18.3125 60.0625 18.3125 54.390625 
z
" id="DejaVuSans-56"/>
       </defs>
       <use xlink:href="#DejaVuSans-56"/>
       <use x="63.623047" xlink:href="#DejaVuSans-48"/>
       <use x="127.246094" xlink:href="#DejaVuSans-48"/>
       <use x="190.869141" xlink:href="#DejaVuSans-48"/>
      </g>
     </g>
    </g>
    <g id="xtick_6">
     <g id="line2d_6">
      <g>
       <use style="stroke:#000000;stroke-width:0.8;" x="641.907883" xlink:href="#m15c14c9823" y="378"/>
      </g>
     </g>
     <g id="text_6">
      <!-- 10000 -->
      <g transform="translate(610.095383 400.196875)scale(0.2 -0.2)">
       <defs>
        <path d="M 12.40625 8.296875 
L 28.515625 8.296875 
L 28.515625 63.921875 
L 10.984375 60.40625 
L 10.984375 69.390625 
L 28.421875 72.90625 
L 38.28125 72.90625 
L 38.28125 8.296875 
L 54.390625 8.296875 
L 54.390625 0 
L 12.40625 0 
z
" id="DejaVuSans-49"/>
       </defs>
       <use xlink:href="#DejaVuSans-49"/>
       <use x="63.623047" xlink:href="#DejaVuSans-48"/>
       <use x="127.246094" xlink:href="#DejaVuSans-48"/>
       <use x="190.869141" xlink:href="#DejaVuSans-48"/>
       <use x="254.492188" xlink:href="#DejaVuSans-48"/>
      </g>
     </g>
    </g>
    <g id="text_7">
     <!-- timeline (days) -->
     <g transform="translate(293.775 423.553125)scale(0.2 -0.2)">
      <defs>
       <path d="M 18.3125 70.21875 
L 18.3125 54.6875 
L 36.8125 54.6875 
L 36.8125 47.703125 
L 18.3125 47.703125 
L 18.3125 18.015625 
Q 18.3125 11.328125 20.140625 9.421875 
Q 21.96875 7.515625 27.59375 7.515625 
L 36.8125 7.515625 
L 36.8125 0 
L 27.59375 0 
Q 17.1875 0 13.234375 3.875 
Q 9.28125 7.765625 9.28125 18.015625 
L 9.28125 47.703125 
L 2.6875 47.703125 
L 2.6875 54.6875 
L 9.28125 54.6875 
L 9.28125 70.21875 
z
" id="DejaVuSans-116"/>
       <path d="M 9.421875 54.6875 
L 18.40625 54.6875 
L 18.40625 0 
L 9.421875 0 
z
M 9.421875 75.984375 
L 18.40625 75.984375 
L 18.40625 64.59375 
L 9.421875 64.59375 
z
" id="DejaVuSans-105"/>
       <path d="M 52 44.1875 
Q 55.375 50.25 60.0625 53.125 
Q 64.75 56 71.09375 56 
Q 79.640625 56 84.28125 50.015625 
Q 88.921875 44.046875 88.921875 33.015625 
L 88.921875 0 
L 79.890625 0 
L 79.890625 32.71875 
Q 79.890625 40.578125 77.09375 44.375 
Q 74.3125 48.1875 68.609375 48.1875 
Q 61.625 48.1875 57.5625 43.546875 
Q 53.515625 38.921875 53.515625 30.90625 
L 53.515625 0 
L 44.484375 0 
L 44.484375 32.71875 
Q 44.484375 40.625 41.703125 44.40625 
Q 38.921875 48.1875 33.109375 48.1875 
Q 26.21875 48.1875 22.15625 43.53125 
Q 18.109375 38.875 18.109375 30.90625 
L 18.109375 0 
L 9.078125 0 
L 9.078125 54.6875 
L 18.109375 54.6875 
L 18.109375 46.1875 
Q 21.1875 51.21875 25.484375 53.609375 
Q 29.78125 56 35.6875 56 
Q 41.65625 56 45.828125 52.96875 
Q 50 49.953125 52 44.1875 
z
" id="DejaVuSans-109"/>
       <path d="M 56.203125 29.59375 
L 56.203125 25.203125 
L 14.890625 25.203125 
Q 15.484375 15.921875 20.484375 11.0625 
Q 25.484375 6.203125 34.421875 6.203125 
Q 39.59375 6.203125 44.453125 7.46875 
Q 49.3125 8.734375 54.109375 11.28125 
L 54.109375 2.78125 
Q 49.265625 0.734375 44.1875 -0.34375 
Q 39.109375 -1.421875 33.890625 -1.421875 
Q 20.796875 -1.421875 13.15625 6.1875 
Q 5.515625 13.8125 5.515625 26.8125 
Q 5.515625 40.234375 12.765625 48.109375 
Q 20.015625 56 32.328125 56 
Q 43.359375 56 49.78125 48.890625 
Q 56.203125 41.796875 56.203125 29.59375 
z
M 47.21875 32.234375 
Q 47.125 39.59375 43.09375 43.984375 
Q 39.0625 48.390625 32.421875 48.390625 
Q 24.90625 48.390625 20.390625 44.140625 
Q 15.875 39.890625 15.1875 32.171875 
z
" id="DejaVuSans-101"/>
       <path d="M 9.421875 75.984375 
L 18.40625 75.984375 
L 18.40625 0 
L 9.421875 0 
z
" id="DejaVuSans-108"/>
       <path d="M 54.890625 33.015625 
L 54.890625 0 
L 45.90625 0 
L 45.90625 32.71875 
Q 45.90625 40.484375 42.875 44.328125 
Q 39.84375 48.1875 33.796875 48.1875 
Q 26.515625 48.1875 22.3125 43.546875 
Q 18.109375 38.921875 18.109375 30.90625 
L 18.109375 0 
L 9.078125 0 
L 9.078125 54.6875 
L 18.109375 54.6875 
L 18.109375 46.1875 
Q 21.34375 51.125 25.703125 53.5625 
Q 30.078125 56 35.796875 56 
Q 45.21875 56 50.046875 50.171875 
Q 54.890625 44.34375 54.890625 33.015625 
z
" id="DejaVuSans-110"/>
       <path id="DejaVuSans-32"/>
       <path d="M 31 75.875 
Q 24.46875 64.65625 21.28125 53.65625 
Q 18.109375 42.671875 18.109375 31.390625 
Q 18.109375 20.125 21.3125 9.0625 
Q 24.515625 -2 31 -13.1875 
L 23.1875 -13.1875 
Q 15.875 -1.703125 12.234375 9.375 
Q 8.59375 20.453125 8.59375 31.390625 
Q 8.59375 42.28125 12.203125 53.3125 
Q 15.828125 64.359375 23.1875 75.875 
z
" id="DejaVuSans-40"/>
       <path d="M 45.40625 46.390625 
L 45.40625 75.984375 
L 54.390625 75.984375 
L 54.390625 0 
L 45.40625 0 
L 45.40625 8.203125 
Q 42.578125 3.328125 38.25 0.953125 
Q 33.9375 -1.421875 27.875 -1.421875 
Q 17.96875 -1.421875 11.734375 6.484375 
Q 5.515625 14.40625 5.515625 27.296875 
Q 5.515625 40.1875 11.734375 48.09375 
Q 17.96875 56 27.875 56 
Q 33.9375 56 38.25 53.625 
Q 42.578125 51.265625 45.40625 46.390625 
z
M 14.796875 27.296875 
Q 14.796875 17.390625 18.875 11.75 
Q 22.953125 6.109375 30.078125 6.109375 
Q 37.203125 6.109375 41.296875 11.75 
Q 45.40625 17.390625 45.40625 27.296875 
Q 45.40625 37.203125 41.296875 42.84375 
Q 37.203125 48.484375 30.078125 48.484375 
Q 22.953125 48.484375 18.875 42.84375 
Q 14.796875 37.203125 14.796875 27.296875 
z
" id="DejaVuSans-100"/>
       <path d="M 34.28125 27.484375 
Q 23.390625 27.484375 19.1875 25 
Q 14.984375 22.515625 14.984375 16.5 
Q 14.984375 11.71875 18.140625 8.90625 
Q 21.296875 6.109375 26.703125 6.109375 
Q 34.1875 6.109375 38.703125 11.40625 
Q 43.21875 16.703125 43.21875 25.484375 
L 43.21875 27.484375 
z
M 52.203125 31.203125 
L 52.203125 0 
L 43.21875 0 
L 43.21875 8.296875 
Q 40.140625 3.328125 35.546875 0.953125 
Q 30.953125 -1.421875 24.3125 -1.421875 
Q 15.921875 -1.421875 10.953125 3.296875 
Q 6 8.015625 6 15.921875 
Q 6 25.140625 12.171875 29.828125 
Q 18.359375 34.515625 30.609375 34.515625 
L 43.21875 34.515625 
L 43.21875 35.40625 
Q 43.21875 41.609375 39.140625 45 
Q 35.0625 48.390625 27.6875 48.390625 
Q 23 48.390625 18.546875 47.265625 
Q 14.109375 46.140625 10.015625 43.890625 
L 10.015625 52.203125 
Q 14.9375 54.109375 19.578125 55.046875 
Q 24.21875 56 28.609375 56 
Q 40.484375 56 46.34375 49.84375 
Q 52.203125 43.703125 52.203125 31.203125 
z
" id="DejaVuSans-97"/>
       <path d="M 32.171875 -5.078125 
Q 28.375 -14.84375 24.75 -17.8125 
Q 21.140625 -20.796875 15.09375 -20.796875 
L 7.90625 -20.796875 
L 7.90625 -13.28125 
L 13.1875 -13.28125 
Q 16.890625 -13.28125 18.9375 -11.515625 
Q 21 -9.765625 23.484375 -3.21875 
L 25.09375 0.875 
L 2.984375 54.6875 
L 12.5 54.6875 
L 29.59375 11.921875 
L 46.6875 54.6875 
L 56.203125 54.6875 
z
" id="DejaVuSans-121"/>
       <path d="M 44.28125 53.078125 
L 44.28125 44.578125 
Q 40.484375 46.53125 36.375 47.5 
Q 32.28125 48.484375 27.875 48.484375 
Q 21.1875 48.484375 17.84375 46.4375 
Q 14.5 44.390625 14.5 40.28125 
Q 14.5 37.15625 16.890625 35.375 
Q 19.28125 33.59375 26.515625 31.984375 
L 29.59375 31.296875 
Q 39.15625 29.25 43.1875 25.515625 
Q 47.21875 21.78125 47.21875 15.09375 
Q 47.21875 7.46875 41.1875 3.015625 
Q 35.15625 -1.421875 24.609375 -1.421875 
Q 20.21875 -1.421875 15.453125 -0.5625 
Q 10.6875 0.296875 5.421875 2 
L 5.421875 11.28125 
Q 10.40625 8.6875 15.234375 7.390625 
Q 20.0625 6.109375 24.8125 6.109375 
Q 31.15625 6.109375 34.5625 8.28125 
Q 37.984375 10.453125 37.984375 14.40625 
Q 37.984375 18.0625 35.515625 20.015625 
Q 33.0625 21.96875 24.703125 23.78125 
L 21.578125 24.515625 
Q 13.234375 26.265625 9.515625 29.90625 
Q 5.8125 33.546875 5.8125 39.890625 
Q 5.8125 47.609375 11.28125 51.796875 
Q 16.75 56 26.8125 56 
Q 31.78125 56 36.171875 55.265625 
Q 40.578125 54.546875 44.28125 53.078125 
z
" id="DejaVuSans-115"/>
       <path d="M 8.015625 75.875 
L 15.828125 75.875 
Q 23.140625 64.359375 26.78125 53.3125 
Q 30.421875 42.28125 30.421875 31.390625 
Q 30.421875 20.453125 26.78125 9.375 
Q 23.140625 -1.703125 15.828125 -13.1875 
L 8.015625 -13.1875 
Q 14.5 -2 17.703125 9.0625 
Q 20.90625 20.125 20.90625 31.390625 
Q 20.90625 42.671875 17.703125 53.65625 
Q 14.5 64.65625 8.015625 75.875 
z
" id="DejaVuSans-41"/>
      </defs>
      <use xlink:href="#DejaVuSans-116"/>
      <use x="39.208984" xlink:href="#DejaVuSans-105"/>
      <use x="66.992188" xlink:href="#DejaVuSans-109"/>
      <use x="164.404297" xlink:href="#DejaVuSans-101"/>
      <use x="225.927734" xlink:href="#DejaVuSans-108"/>
      <use x="253.710938" xlink:href="#DejaVuSans-105"/>
      <use x="281.494141" xlink:href="#DejaVuSans-110"/>
      <use x="344.873047" xlink:href="#DejaVuSans-101"/>
      <use x="406.396484" xlink:href="#DejaVuSans-32"/>
      <use x="438.183594" xlink:href="#DejaVuSans-40"/>
      <use x="477.197266" xlink:href="#DejaVuSans-100"/>
      <use x="540.673828" xlink:href="#DejaVuSans-97"/>
      <use x="601.953125" xlink:href="#DejaVuSans-121"/>
      <use x="661.132812" xlink:href="#DejaVuSans-115"/>
      <use x="713.232422" xlink:href="#DejaVuSans-41"/>
     </g>
    </g>
   </g>
   <g id="matplotlib.axis_2">
    <g id="ytick_1">
     <g id="line2d_7">
      <defs>
       <path d="M 0 0 
L -3.5 0 
" id="m0887360d04" style="stroke:#000000;stroke-width:0.8;"/>
      </defs>
      <g>
       <use style="stroke:#000000;stroke-width:0.8;" x="90" xlink:href="#m0887360d04" y="378"/>
      </g>
     </g>
     <g id="text_8">
      <!-- 0.0 -->
      <g transform="translate(67.096875 381.799219)scale(0.1 -0.1)">
       <defs>
        <path d="M 10.6875 12.40625 
L 21 12.40625 
L 21 0 
L 10.6875 0 
z
" id="DejaVuSans-46"/>
       </defs>
       <use xlink:href="#DejaVuSans-48"/>
       <use x="63.623047" xlink:href="#DejaVuSans-46"/>
       <use x="95.410156" xlink:href="#DejaVuSans-48"/>
      </g>
     </g>
    </g>
    <g id="ytick_2">
     <g id="line2d_8">
      <g>
       <use style="stroke:#000000;stroke-width:0.8;" x="90" xlink:href="#m0887360d04" y="318.698182"/>
      </g>
     </g>
     <g id="text_9">
      <!-- 0.2 -->
      <g transform="translate(67.096875 322.497401)scale(0.1 -0.1)">
       <use xlink:href="#DejaVuSans-48"/>
       <use x="63.623047" xlink:href="#DejaVuSans-46"/>
       <use x="95.410156" xlink:href="#DejaVuSans-50"/>
      </g>
     </g>
    </g>
    <g id="ytick_3">
     <g id="line2d_9">
      <g>
       <use style="stroke:#000000;stroke-width:0.8;" x="90" xlink:href="#m0887360d04" y="259.396364"/>
      </g>
     </g>
     <g id="text_10">
      <!-- 0.4 -->
      <g transform="translate(67.096875 263.195582)scale(0.1 -0.1)">
       <use xlink:href="#DejaVuSans-48"/>
       <use x="63.623047" xlink:href="#DejaVuSans-46"/>
       <use x="95.410156" xlink:href="#DejaVuSans-52"/>
      </g>
     </g>
    </g>
    <g id="ytick_4">
     <g id="line2d_10">
      <g>
       <use style="stroke:#000000;stroke-width:0.8;" x="90" xlink:href="#m0887360d04" y="200.094545"/>
      </g>
     </g>
     <g id="text_11">
      <!-- 0.6 -->
      <g transform="translate(67.096875 203.893764)scale(0.1 -0.1)">
       <use xlink:href="#DejaVuSans-48"/>
       <use x="63.623047" xlink:href="#DejaVuSans-46"/>
       <use x="95.410156" xlink:href="#DejaVuSans-54"/>
      </g>
     </g>
    </g>
    <g id="ytick_5">
     <g id="line2d_11">
      <g>
       <use style="stroke:#000000;stroke-width:0.8;" x="90" xlink:href="#m0887360d04" y="140.792727"/>
      </g>
     </g>
     <g id="text_12">
      <!-- 0.8 -->
      <g transform="translate(67.096875 144.591946)scale(0.1 -0.1)">
       <use xlink:href="#DejaVuSans-48"/>
       <use x="63.623047" xlink:href="#DejaVuSans-46"/>
       <use x="95.410156" xlink:href="#DejaVuSans-56"/>
      </g>
     </g>
    </g>
    <g id="ytick_6">
     <g id="line2d_12">
      <g>
       <use style="stroke:#000000;stroke-width:0.8;" x="90" xlink:href="#m0887360d04" y="81.490909"/>
      </g>
     </g>
     <g id="text_13">
      <!-- 1.0 -->
      <g transform="translate(67.096875 85.290128)scale(0.1 -0.1)">
       <use xlink:href="#DejaVuSans-49"/>
       <use x="63.623047" xlink:href="#DejaVuSans-46"/>
       <use x="95.410156" xlink:href="#DejaVuSans-48"/>
      </g>
     </g>
    </g>
    <g id="text_14">
     <!-- survival probability -->
     <g transform="translate(58.9375 310.629375)rotate(-90)scale(0.2 -0.2)">
      <defs>
       <path d="M 8.5 21.578125 
L 8.5 54.6875 
L 17.484375 54.6875 
L 17.484375 21.921875 
Q 17.484375 14.15625 20.5 10.265625 
Q 23.53125 6.390625 29.59375 6.390625 
Q 36.859375 6.390625 41.078125 11.03125 
Q 45.3125 15.671875 45.3125 23.6875 
L 45.3125 54.6875 
L 54.296875 54.6875 
L 54.296875 0 
L 45.3125 0 
L 45.3125 8.40625 
Q 42.046875 3.421875 37.71875 1 
Q 33.40625 -1.421875 27.6875 -1.421875 
Q 18.265625 -1.421875 13.375 4.4375 
Q 8.5 10.296875 8.5 21.578125 
z
M 31.109375 56 
z
" id="DejaVuSans-117"/>
       <path d="M 41.109375 46.296875 
Q 39.59375 47.171875 37.8125 47.578125 
Q 36.03125 48 33.890625 48 
Q 26.265625 48 22.1875 43.046875 
Q 18.109375 38.09375 18.109375 28.8125 
L 18.109375 0 
L 9.078125 0 
L 9.078125 54.6875 
L 18.109375 54.6875 
L 18.109375 46.1875 
Q 20.953125 51.171875 25.484375 53.578125 
Q 30.03125 56 36.53125 56 
Q 37.453125 56 38.578125 55.875 
Q 39.703125 55.765625 41.0625 55.515625 
z
" id="DejaVuSans-114"/>
       <path d="M 2.984375 54.6875 
L 12.5 54.6875 
L 29.59375 8.796875 
L 46.6875 54.6875 
L 56.203125 54.6875 
L 35.6875 0 
L 23.484375 0 
z
" id="DejaVuSans-118"/>
       <path d="M 18.109375 8.203125 
L 18.109375 -20.796875 
L 9.078125 -20.796875 
L 9.078125 54.6875 
L 18.109375 54.6875 
L 18.109375 46.390625 
Q 20.953125 51.265625 25.265625 53.625 
Q 29.59375 56 35.59375 56 
Q 45.5625 56 51.78125 48.09375 
Q 58.015625 40.1875 58.015625 27.296875 
Q 58.015625 14.40625 51.78125 6.484375 
Q 45.5625 -1.421875 35.59375 -1.421875 
Q 29.59375 -1.421875 25.265625 0.953125 
Q 20.953125 3.328125 18.109375 8.203125 
z
M 48.6875 27.296875 
Q 48.6875 37.203125 44.609375 42.84375 
Q 40.53125 48.484375 33.40625 48.484375 
Q 26.265625 48.484375 22.1875 42.84375 
Q 18.109375 37.203125 18.109375 27.296875 
Q 18.109375 17.390625 22.1875 11.75 
Q 26.265625 6.109375 33.40625 6.109375 
Q 40.53125 6.109375 44.609375 11.75 
Q 48.6875 17.390625 48.6875 27.296875 
z
" id="DejaVuSans-112"/>
       <path d="M 30.609375 48.390625 
Q 23.390625 48.390625 19.1875 42.75 
Q 14.984375 37.109375 14.984375 27.296875 
Q 14.984375 17.484375 19.15625 11.84375 
Q 23.34375 6.203125 30.609375 6.203125 
Q 37.796875 6.203125 41.984375 11.859375 
Q 46.1875 17.53125 46.1875 27.296875 
Q 46.1875 37.015625 41.984375 42.703125 
Q 37.796875 48.390625 30.609375 48.390625 
z
M 30.609375 56 
Q 42.328125 56 49.015625 48.375 
Q 55.71875 40.765625 55.71875 27.296875 
Q 55.71875 13.875 49.015625 6.21875 
Q 42.328125 -1.421875 30.609375 -1.421875 
Q 18.84375 -1.421875 12.171875 6.21875 
Q 5.515625 13.875 5.515625 27.296875 
Q 5.515625 40.765625 12.171875 48.375 
Q 18.84375 56 30.609375 56 
z
" id="DejaVuSans-111"/>
       <path d="M 48.6875 27.296875 
Q 48.6875 37.203125 44.609375 42.84375 
Q 40.53125 48.484375 33.40625 48.484375 
Q 26.265625 48.484375 22.1875 42.84375 
Q 18.109375 37.203125 18.109375 27.296875 
Q 18.109375 17.390625 22.1875 11.75 
Q 26.265625 6.109375 33.40625 6.109375 
Q 40.53125 6.109375 44.609375 11.75 
Q 48.6875 17.390625 48.6875 27.296875 
z
M 18.109375 46.390625 
Q 20.953125 51.265625 25.265625 53.625 
Q 29.59375 56 35.59375 56 
Q 45.5625 56 51.78125 48.09375 
Q 58.015625 40.1875 58.015625 27.296875 
Q 58.015625 14.40625 51.78125 6.484375 
Q 45.5625 -1.421875 35.59375 -1.421875 
Q 29.59375 -1.421875 25.265625 0.953125 
Q 20.953125 3.328125 18.109375 8.203125 
L 18.109375 0 
L 9.078125 0 
L 9.078125 75.984375 
L 18.109375 75.984375 
z
" id="DejaVuSans-98"/>
      </defs>
      <use xlink:href="#DejaVuSans-115"/>
      <use x="52.099609" xlink:href="#DejaVuSans-117"/>
      <use x="115.478516" xlink:href="#DejaVuSans-114"/>
      <use x="156.591797" xlink:href="#DejaVuSans-118"/>
      <use x="215.771484" xlink:href="#DejaVuSans-105"/>
      <use x="243.554688" xlink:href="#DejaVuSans-118"/>
      <use x="302.734375" xlink:href="#DejaVuSans-97"/>
      <use x="364.013672" xlink:href="#DejaVuSans-108"/>
      <use x="391.796875" xlink:href="#DejaVuSans-32"/>
      <use x="423.583984" xlink:href="#DejaVuSans-112"/>
      <use x="487.060547" xlink:href="#DejaVuSans-114"/>
      <use x="525.923828" xlink:href="#DejaVuSans-111"/>
      <use x="587.105469" xlink:href="#DejaVuSans-98"/>
      <use x="650.582031" xlink:href="#DejaVuSans-97"/>
      <use x="711.861328" xlink:href="#DejaVuSans-98"/>
      <use x="775.337891" xlink:href="#DejaVuSans-105"/>
      <use x="803.121094" xlink:href="#DejaVuSans-108"/>
      <use x="830.904297" xlink:href="#DejaVuSans-105"/>
      <use x="858.6875" xlink:href="#DejaVuSans-116"/>
      <use x="897.896484" xlink:href="#DejaVuSans-121"/>
     </g>
    </g>
   </g>
   <g id="line2d_13">
    <path clip-path="url(#p496a0268f7)" d="M 115.363636 81.490909 
L 115.468945 81.490909 
L 115.5216 81.817231 
L 115.574254 81.817231 
L 115.732217 81.882744 
L 115.837526 82.211895 
L 115.942835 82.211895 
L 115.995489 82.476435 
L 116.048144 82.476435 
L 116.206107 82.54271 
L 116.311416 82.675515 
L 116.36407 82.675515 
L 116.469379 82.941439 
L 116.522034 82.941439 
L 116.627343 83.407792 
L 116.732651 83.407792 
L 116.83796 83.674708 
L 116.995924 83.74154 
L 117.101232 84.009123 
L 117.259196 84.076092 
L 117.31185 84.210151 
L 117.364505 84.210151 
L 117.469813 84.277256 
L 117.575122 84.478666 
L 117.78574 84.545926 
L 117.838394 84.680476 
L 117.891049 84.680476 
L 117.996358 84.747829 
L 118.101666 84.882719 
L 118.312284 84.882719 
L 118.364939 85.220739 
L 118.417593 85.220739 
L 118.470247 85.220739 
L 118.575556 85.626625 
L 118.786174 85.694351 
L 118.891483 85.965444 
L 118.944137 85.965444 
L 118.996792 86.304672 
L 119.049446 86.304672 
L 119.260064 86.372571 
L 119.365373 86.644406 
L 119.470681 86.7124 
L 119.470681 86.78041 
L 119.57599 86.78041 
L 119.681299 86.848548 
L 119.786608 87.257788 
L 119.944571 87.326085 
L 119.997226 87.462712 
L 120.04988 87.462712 
L 120.155189 87.531058 
L 120.207843 87.736288 
L 120.365807 87.804779 
L 120.471116 88.147508 
L 120.576424 88.216096 
L 120.681733 88.49048 
L 120.787042 88.49048 
L 120.892351 88.696406 
L 120.99766 88.765092 
L 121.102969 88.971262 
L 121.208278 88.971262 
L 121.260932 89.177646 
L 121.313586 89.177646 
L 121.366241 89.177646 
L 121.47155 89.522023 
L 121.576858 89.522023 
L 121.629513 89.797848 
L 121.840131 89.866812 
L 121.945439 90.142868 
L 122.103403 90.142868 
L 122.208712 90.488269 
L 122.366675 90.557399 
L 122.471984 90.695792 
L 122.629947 90.765022 
L 122.735256 91.180619 
L 122.840565 91.249916 
L 122.945874 91.596483 
L 123.051182 91.596483 
L 123.156491 91.943286 
L 123.314454 92.012667 
L 123.419763 92.221011 
L 123.472418 92.221011 
L 123.577727 92.707334 
L 123.788344 92.776866 
L 123.893653 93.124615 
L 124.104271 93.194215 
L 124.20958 93.751753 
L 124.314889 93.821456 
L 124.420197 94.030667 
L 124.525506 94.100421 
L 124.525506 94.239964 
L 124.630815 94.239964 
L 124.788778 94.239964 
L 124.841433 94.729378 
L 124.894087 94.729378 
L 124.946742 94.729378 
L 124.999396 94.939398 
L 125.052051 94.939398 
L 125.157359 95.009532 
L 125.210014 95.1498 
L 125.473286 95.220003 
L 125.578595 95.571196 
L 125.736558 95.641469 
L 125.789212 95.782068 
L 125.841867 95.782068 
L 125.894521 95.782068 
L 125.99983 96.133786 
L 126.105139 96.204147 
L 126.157793 96.485696 
L 126.47372 96.55611 
L 126.579029 96.908532 
L 126.631683 96.908532 
L 126.631683 97.049606 
L 126.736992 97.049606 
L 126.789647 97.049606 
L 126.894955 97.402879 
L 127.052919 97.473594 
L 127.158227 97.756543 
L 127.316191 97.756543 
L 127.4215 98.110797 
L 127.632117 98.181799 
L 127.684772 98.465969 
L 127.948044 98.537025 
L 128.053353 98.963704 
L 128.158662 99.03485 
L 128.26397 99.462129 
L 128.421934 99.533348 
L 128.527243 99.675895 
L 128.632551 99.675895 
L 128.73786 100.032978 
L 128.790515 100.032978 
L 128.790515 100.175965 
L 128.843169 100.175965 
L 128.948478 100.175965 
L 128.948478 100.390611 
L 129.053787 100.390611 
L 129.106441 100.390611 
L 129.159096 100.677176 
L 129.21175 100.677176 
L 129.422368 100.748891 
L 129.527677 101.035863 
L 129.632985 101.107634 
L 129.738294 101.538521 
L 129.896258 101.610385 
L 130.001566 101.826071 
L 130.054221 101.826071 
L 130.15953 102.041926 
L 130.264839 102.113959 
L 130.317493 102.546156 
L 130.370147 102.546156 
L 130.686074 102.618378 
L 130.791383 103.05224 
L 130.896692 103.124651 
L 130.949346 103.414413 
L 131.159964 103.486902 
L 131.159964 103.776931 
L 131.265273 103.776931 
L 131.317927 103.776931 
L 131.423236 104.212552 
L 131.528545 104.285175 
L 131.581199 104.648365 
L 131.633854 104.648365 
L 131.791817 104.721065 
L 131.844471 105.084642 
L 131.897126 105.084642 
L 131.94978 105.084642 
L 132.055089 105.375752 
L 132.213052 105.375752 
L 132.318361 105.740125 
L 132.42367 105.813059 
L 132.528979 106.324218 
L 132.634288 106.324218 
L 132.739597 106.836419 
L 132.89756 106.836419 
L 132.950214 107.12949 
L 133.002869 107.12949 
L 133.055523 107.12949 
L 133.160832 107.423077 
L 133.266141 107.496563 
L 133.318795 107.643596 
L 133.37145 107.643596 
L 133.424104 107.643596 
L 133.476758 108.158941 
L 133.529413 108.158941 
L 133.582067 108.158941 
L 133.687376 108.602112 
L 133.792685 108.602112 
L 133.845339 109.04589 
L 133.897994 109.04589 
L 134.003303 109.119982 
L 134.108612 109.268309 
L 134.21392 109.342565 
L 134.319229 109.71409 
L 134.371884 109.71409 
L 134.477193 110.384475 
L 134.582501 110.384475 
L 134.68781 110.832743 
L 134.951082 110.907874 
L 135.003737 111.05837 
L 135.056391 111.05837 
L 135.214354 111.133777 
L 135.319663 111.814431 
L 135.530281 111.890463 
L 135.63559 112.500545 
L 135.740899 112.576992 
L 135.846208 113.036755 
L 135.951516 113.113578 
L 136.056825 113.42163 
L 136.10948 113.42163 
L 136.214789 113.807516 
L 136.320097 113.807516 
L 136.320097 113.962332 
L 136.425406 113.962332 
L 136.530715 114.040013 
L 136.636024 114.429128 
L 136.688678 114.429128 
L 136.741333 114.741046 
L 136.793987 114.741046 
L 136.95195 114.819374 
L 137.057259 115.054824 
L 137.109914 115.054824 
L 137.215223 115.684115 
L 137.373186 115.76296 
L 137.42584 116.158324 
L 137.478495 116.158324 
L 137.583804 116.237574 
L 137.583804 116.316824 
L 137.689112 116.316824 
L 137.794421 116.39629 
L 137.89973 116.794325 
L 138.005039 116.874106 
L 138.110348 117.193624 
L 138.215657 117.193624 
L 138.268311 117.513977 
L 138.320966 117.513977 
L 138.426274 117.5942 
L 138.478929 117.83492 
L 138.531583 117.83492 
L 138.636892 117.83492 
L 138.742201 118.3181 
L 138.794855 118.3181 
L 138.900164 118.722061 
L 138.952819 118.722061 
L 139.005473 119.126778 
L 139.058127 119.126778 
L 139.163436 119.207904 
L 139.268745 119.614044 
L 139.3214 119.614044 
L 139.426708 120.265429 
L 139.532017 120.347069 
L 139.584672 120.592271 
L 139.637326 120.592271 
L 139.795289 120.674143 
L 139.900598 121.002182 
L 139.953253 121.002182 
L 140.058562 121.331035 
L 140.16387 121.413459 
L 140.269179 121.743634 
L 140.321834 121.743634 
L 140.427143 122.074795 
L 140.532451 122.157888 
L 140.63776 122.574163 
L 140.690415 122.574163 
L 140.690415 122.740835 
L 140.795723 122.740835 
L 140.848378 122.740835 
L 140.953687 123.326265 
L 141.006341 123.326265 
L 141.11165 123.66197 
L 141.164304 123.66197 
L 141.269613 124.166638 
L 141.480231 124.25094 
L 141.58554 124.504887 
L 141.954121 124.589924 
L 142.05943 124.930873 
L 142.217393 124.930873 
L 142.322702 125.443909 
L 142.691283 125.529696 
L 142.691283 125.701971 
L 142.796592 125.701971 
L 143.059864 125.788257 
L 143.165173 126.048418 
L 143.323136 126.135298 
L 143.428445 126.483599 
L 143.533754 126.483599 
L 143.639062 127.008017 
L 143.744371 127.095501 
L 143.84968 127.533624 
L 143.954989 127.621354 
L 144.007643 127.797058 
L 144.060298 127.797058 
L 144.165607 127.885095 
L 144.218261 128.149923 
L 144.270916 128.149923 
L 144.32357 128.149923 
L 144.428879 129.035697 
L 144.586842 129.124423 
L 144.639496 129.568875 
L 144.692151 129.568875 
L 144.79746 129.657855 
L 144.902769 129.925209 
L 144.955423 129.925209 
L 145.008077 130.460622 
L 145.060732 130.460622 
L 145.113386 130.460622 
L 145.113386 130.639545 
L 145.218695 130.639545 
L 145.376658 130.729494 
L 145.481967 130.909753 
L 145.587276 131.000064 
L 145.639931 131.27146 
L 145.692585 131.27146 
L 145.745239 131.27146 
L 145.850548 131.725273 
L 146.008512 131.816384 
L 146.008512 131.90753 
L 146.11382 131.90753 
L 146.271784 131.99898 
L 146.377092 132.274081 
L 146.535056 132.366148 
L 146.640365 132.734829 
L 146.745673 132.827104 
L 146.850982 133.289137 
L 146.956291 133.289137 
L 147.008946 133.567147 
L 147.0616 133.567147 
L 147.166909 133.567147 
L 147.219563 133.939617 
L 147.272218 133.939617 
L 147.324872 133.939617 
L 147.377527 134.499532 
L 147.430181 134.499532 
L 147.588144 134.59315 
L 147.588144 134.780819 
L 147.693453 134.780819 
L 147.851416 134.874726 
L 147.956725 135.063451 
L 148.219997 135.063451 
L 148.219997 135.538308 
L 148.325306 135.538308 
L 148.377961 135.538308 
L 148.483269 136.014283 
L 148.693887 136.109779 
L 148.799196 136.396681 
L 148.85185 136.396681 
L 148.904505 136.684152 
L 148.957159 136.684152 
L 149.009814 136.684152 
L 149.062468 136.972539 
L 149.115123 136.972539 
L 149.220431 137.068873 
L 149.32574 137.358338 
L 149.483704 137.358338 
L 149.536358 137.745728 
L 149.589012 137.745728 
L 149.694321 137.745728 
L 149.746976 138.037496 
L 150.115557 138.134962 
L 150.220865 138.330731 
L 150.431483 138.428755 
L 150.484138 138.625246 
L 150.536792 138.625246 
L 151.010682 138.724038 
L 151.115991 139.021276 
L 151.168645 139.021276 
L 151.2213 139.418498 
L 151.273954 139.418498 
L 151.431917 139.51799 
L 151.484572 139.617648 
L 151.537226 139.617648 
L 151.695189 139.717683 
L 151.695189 139.918004 
L 151.800498 139.918004 
L 151.958462 140.018334 
L 152.011116 140.319873 
L 152.06377 140.319873 
L 152.327042 140.420799 
L 152.327042 140.521768 
L 152.432351 140.521768 
L 152.800932 140.623385 
L 152.800932 140.725219 
L 152.906241 140.725219 
L 153.01155 140.827229 
L 153.116859 140.929503 
L 153.116859 140.929503 
L 153.222168 140.929503 
L 153.274822 141.134759 
L 153.327477 141.134759 
L 153.801366 141.238238 
L 153.906675 141.549813 
L 154.169947 141.653701 
L 154.275256 142.279048 
L 154.380565 142.383534 
L 154.485874 142.802037 
L 155.223036 142.908125 
L 155.27569 143.226822 
L 155.328345 143.226822 
L 155.380999 143.226822 
L 155.486308 143.54629 
L 155.802235 143.653297 
L 155.907543 144.083193 
L 156.012852 144.19084 
L 156.065507 144.406482 
L 156.118161 144.406482 
L 156.328779 144.514677 
L 156.328779 144.623275 
L 156.434088 144.623275 
L 156.855323 144.732177 
L 156.855323 144.950899 
L 156.907977 144.950899 
L 157.118595 145.060415 
L 157.17125 145.280585 
L 157.223904 145.280585 
L 157.592485 145.390931 
L 157.697794 145.723917 
L 157.908411 145.723917 
L 158.01372 146.058877 
L 158.48761 146.058877 
L 158.592919 146.509907 
L 158.698228 146.509907 
L 158.698228 146.623106 
L 158.803537 146.623106 
L 158.856191 146.623106 
L 158.9615 146.85056 
L 159.172118 146.85056 
L 159.172118 146.965047 
L 159.277427 146.965047 
L 159.330081 146.965047 
L 159.43539 147.309818 
L 159.751316 147.309818 
L 159.856625 147.657418 
L 159.90928 147.657418 
L 159.90928 147.773401 
L 160.014588 147.773401 
L 160.119897 147.773401 
L 160.119897 147.889971 
L 160.225206 147.889971 
L 160.277861 147.889971 
L 160.383169 148.123704 
L 160.541133 148.123704 
L 160.593787 148.475197 
L 160.646442 148.475197 
L 160.804405 148.475197 
L 160.857059 148.710306 
L 160.909714 148.710306 
L 161.120331 148.710306 
L 161.22564 148.946322 
L 161.436258 148.946322 
L 161.436258 149.064635 
L 161.541567 149.064635 
L 161.594221 149.064635 
L 161.69953 149.77629 
L 161.804839 149.77629 
L 161.804839 149.895095 
L 161.857493 149.895095 
L 161.962802 149.895095 
L 162.068111 150.491106 
L 162.489346 150.491106 
L 162.594655 150.970767 
L 162.699964 150.970767 
L 162.699964 151.090952 
L 162.805273 151.090952 
L 163.015891 151.090952 
L 163.015891 151.211584 
L 163.1212 151.211584 
L 163.331817 151.211584 
L 163.384472 151.45505 
L 163.595089 151.45505 
L 163.647744 151.577308 
L 163.647744 151.577308 
L 163.753053 151.577308 
L 163.858361 151.82282 
L 163.911016 151.82282 
L 163.911016 152.068799 
L 164.016325 152.068799 
L 164.174288 152.068799 
L 164.174288 152.315988 
L 164.226942 152.315988 
L 164.384906 152.315988 
L 164.490215 152.937572 
L 164.858796 152.937572 
L 164.91145 153.187781 
L 164.964104 153.187781 
L 165.122068 153.187781 
L 165.227377 153.565335 
L 165.332685 153.565335 
L 165.437994 154.070322 
L 165.490649 154.070322 
L 165.595957 154.451227 
L 165.648612 154.451227 
L 165.648612 154.578316 
L 165.753921 154.578316 
L 165.964538 154.578316 
L 166.017193 155.089505 
L 166.543737 155.089505 
L 166.543737 155.218355 
L 166.649046 155.218355 
L 166.754355 155.218355 
L 166.859664 155.7354 
L 167.070281 155.7354 
L 167.17559 155.995359 
L 167.333554 155.995359 
L 167.438862 156.255928 
L 167.596826 156.255928 
L 167.64948 156.648474 
L 167.702134 156.648474 
L 167.754789 156.648474 
L 167.754789 156.91105 
L 167.860098 156.91105 
L 167.912752 156.91105 
L 168.018061 157.174722 
L 168.228679 157.174722 
L 168.333988 157.440218 
L 168.439296 157.440218 
L 168.439296 157.573406 
L 168.544605 157.573406 
L 168.59726 157.573406 
L 168.59726 157.706836 
L 168.702569 157.706836 
L 169.018495 157.706836 
L 169.07115 158.109648 
L 169.123804 158.109648 
L 169.229113 158.109648 
L 169.281767 158.378791 
L 169.703003 158.378791 
L 169.808311 158.785917 
L 169.91362 158.785917 
L 169.91362 158.921821 
L 170.018929 158.921821 
L 170.071584 158.921821 
L 170.071584 159.057895 
L 170.124238 159.057895 
L 170.38751 159.057895 
L 170.38751 159.194563 
L 170.492819 159.194563 
L 170.545473 159.194563 
L 170.598128 159.468583 
L 170.650782 159.468583 
L 171.124672 159.468583 
L 171.229981 159.883956 
L 171.545907 159.883956 
L 171.651216 160.163055 
L 171.861834 160.163055 
L 171.967143 160.584948 
L 172.072452 160.584948 
L 172.177761 160.867581 
L 172.283069 160.867581 
L 172.283069 161.00922 
L 172.388378 161.00922 
L 172.65165 161.00922 
L 172.65165 161.294359 
L 172.756959 161.294359 
L 172.809614 161.294359 
L 172.862268 161.723196 
L 172.914923 161.723196 
L 172.967577 161.723196 
L 172.967577 161.866426 
L 173.072886 161.866426 
L 173.12554 161.866426 
L 173.230849 162.153933 
L 173.388812 162.153933 
L 173.441467 162.442594 
L 173.494121 162.442594 
L 173.546776 162.442594 
L 173.546776 162.587361 
L 173.59943 162.587361 
L 173.862702 162.587361 
L 173.968011 162.879942 
L 174.020665 162.879942 
L 174.020665 163.173021 
L 174.125974 163.173021 
L 174.231283 163.173021 
L 174.336592 163.614548 
L 174.389246 163.614548 
L 174.494555 163.909743 
L 174.705173 163.909743 
L 174.810482 164.206576 
L 174.863136 164.206576 
L 174.863136 164.35525 
L 174.968445 164.35525 
L 175.0211 164.35525 
L 175.126408 164.65395 
L 175.179063 164.65395 
L 175.231717 164.953384 
L 175.284372 164.953384 
L 175.494989 164.953384 
L 175.547644 165.255256 
L 175.600298 165.255256 
L 175.758261 165.255256 
L 175.758261 165.406676 
L 175.810916 165.406676 
L 175.916225 165.406676 
L 176.021534 165.710056 
L 176.074188 165.710056 
L 176.074188 165.8618 
L 176.179497 165.8618 
L 176.284806 165.8618 
L 176.33746 166.166378 
L 176.495423 166.166378 
L 176.600732 166.624892 
L 176.81135 166.624892 
L 176.916659 166.932237 
L 177.232585 166.932237 
L 177.232585 167.086978 
L 177.337894 167.086978 
L 177.969747 167.086978 
L 177.969747 167.400837 
L 178.075056 167.400837 
L 178.233019 167.400837 
L 178.233019 167.558471 
L 178.285674 167.558471 
L 178.390983 167.558471 
L 178.390983 168.032795 
L 178.443637 168.032795 
L 178.759564 168.032795 
L 178.759564 168.1915 
L 179.022836 168.1915 
L 179.07549 168.509272 
L 179.128145 168.509272 
L 179.602034 168.509272 
L 179.602034 168.831813 
L 179.707343 168.831813 
L 180.075924 168.831813 
L 180.128579 169.319132 
L 180.181233 169.319132 
L 180.286542 169.319132 
L 180.391851 169.807974 
L 180.760432 169.807974 
L 180.760432 169.972164 
L 180.865741 169.972164 
L 181.023704 169.972164 
L 181.129013 170.302892 
L 181.234322 170.302892 
L 181.286976 170.634809 
L 181.33963 170.634809 
L 181.602903 170.634809 
L 181.602903 170.801636 
L 181.708211 170.801636 
L 181.760866 170.801636 
L 181.866175 171.470153 
L 181.918829 171.470153 
L 182.024138 171.804885 
L 182.129447 171.804885 
L 182.182101 172.140298 
L 182.28741 172.140298 
L 182.28741 172.30821 
L 182.392719 172.30821 
L 182.498028 172.30821 
L 182.498028 172.476809 
L 182.603337 172.476809 
L 183.23519 172.476809 
L 183.23519 172.646523 
L 183.498462 172.646523 
L 183.498462 172.8168 
L 183.551116 172.8168 
L 184.130315 172.8168 
L 184.130315 172.988789 
L 184.235624 172.988789 
L 184.55155 172.988789 
L 184.55155 173.507805 
L 184.709514 173.507805 
L 184.814823 174.027554 
L 185.341367 174.027554 
L 185.341367 174.201741 
L 185.446676 174.201741 
L 185.551984 174.201741 
L 185.657293 174.551759 
L 185.709948 174.551759 
L 185.709948 174.726844 
L 185.815257 174.726844 
L 185.867911 174.726844 
L 185.867911 174.902382 
L 185.97322 174.902382 
L 186.341801 174.902382 
L 186.341801 175.255288 
L 186.44711 175.255288 
L 186.657727 175.255288 
L 186.710382 176.144058 
L 186.920999 176.144058 
L 186.920999 176.322691 
L 187.026308 176.322691 
L 187.552853 176.322691 
L 187.605507 176.684769 
L 187.658161 176.684769 
L 187.868779 176.684769 
L 187.868779 176.866461 
L 187.921434 176.866461 
L 188.026742 176.866461 
L 188.026742 177.048483 
L 188.132051 177.048483 
L 188.290015 177.048483 
L 188.342669 177.413517 
L 188.395323 177.413517 
L 188.500632 177.413517 
L 188.500632 177.596534 
L 188.763904 177.596534 
L 188.869213 177.96391 
L 188.921868 177.96391 
L 188.974522 178.332132 
L 189.027176 178.332132 
L 189.18514 178.332132 
L 189.18514 178.517181 
L 189.343103 178.517181 
L 189.343103 178.70223 
L 189.448412 178.70223 
L 189.974956 178.70223 
L 189.974956 178.888838 
L 190.080265 178.888838 
L 190.290883 178.888838 
L 190.343537 179.263459 
L 190.448846 179.263459 
L 190.448846 179.450947 
L 190.554155 179.450947 
L 190.659464 179.450947 
L 190.659464 179.639323 
L 191.133353 179.639323 
L 191.133353 179.828599 
L 191.238662 179.828599 
L 191.501934 179.828599 
L 191.607243 180.20842 
L 191.870515 180.20842 
L 191.92317 180.590811 
L 191.975824 180.590811 
L 192.133788 180.590811 
L 192.133788 180.975624 
L 192.186442 180.975624 
L 192.39706 180.975624 
L 192.39706 181.169164 
L 192.555023 181.169164 
L 192.660332 181.750549 
L 193.186876 181.750549 
L 193.186876 181.946603 
L 193.344839 181.946603 
L 193.344839 182.142656 
L 193.450148 182.142656 
L 193.502803 182.142656 
L 193.502803 182.535549 
L 193.608111 182.535549 
L 193.871384 182.535549 
L 193.976692 182.931427 
L 194.239965 182.931427 
L 194.345273 183.528375 
L 194.503237 183.528375 
L 194.503237 183.728038 
L 194.608545 183.728038 
L 194.766509 183.728038 
L 194.819163 183.929147 
L 194.819163 183.929147 
L 194.924472 183.929147 
L 194.977126 184.130466 
L 194.977126 184.130466 
L 195.661634 184.130466 
L 195.714288 184.538183 
L 195.977561 184.538183 
L 196.030215 184.742472 
L 196.030215 184.742472 
L 196.240833 184.742472 
L 196.240833 184.947411 
L 196.346142 184.947411 
L 196.820031 184.947411 
L 196.820031 185.154995 
L 196.872686 185.154995 
L 197.609848 185.154995 
L 197.609848 185.365065 
L 197.662502 185.365065 
L 197.820465 185.365065 
L 197.820465 185.575595 
L 197.87312 185.575595 
L 198.452318 185.575595 
L 198.452318 185.787984 
L 198.610282 185.787984 
L 198.610282 186.000373 
L 198.662936 186.000373 
L 198.768245 186.000373 
L 198.820899 186.426093 
L 198.978863 186.426093 
L 199.084172 187.066097 
L 199.136826 187.066097 
L 199.136826 187.279908 
L 199.242135 187.279908 
L 199.452753 187.279908 
L 199.505407 187.708012 
L 200.084606 187.708012 
L 200.084606 187.923762 
L 200.189915 187.923762 
L 200.295223 187.923762 
L 200.295223 188.140992 
L 200.400532 188.140992 
L 200.769113 188.140992 
L 200.874422 188.799211 
L 200.927076 188.799211 
L 201.032385 189.458447 
L 201.664238 189.458447 
L 201.716893 189.901814 
L 202.032819 189.901814 
L 202.032819 190.124416 
L 202.085474 190.124416 
L 202.243437 190.124416 
L 202.243437 190.347546 
L 202.4014 190.347546 
L 202.506709 190.794337 
L 202.612018 190.794337 
L 202.612018 191.017733 
L 202.664672 191.017733 
L 202.87529 191.017733 
L 202.87529 191.241664 
L 203.085908 191.241664 
L 203.085908 191.465864 
L 203.138562 191.465864 
L 203.296526 191.465864 
L 203.296526 191.690333 
L 203.401834 191.690333 
L 203.559798 191.690333 
L 203.559798 191.91589 
L 203.612452 191.91589 
L 203.82307 191.91589 
L 203.82307 192.14172 
L 203.928379 192.14172 
L 204.086342 192.14172 
L 204.138996 192.368376 
L 204.138996 192.368376 
L 204.560232 192.368376 
L 204.560232 192.595866 
L 204.665541 192.595866 
L 204.823504 192.595866 
L 204.823504 192.823915 
L 204.928813 192.823915 
L 205.61332 192.823915 
L 205.665975 193.283982 
L 205.929247 193.283982 
L 205.929247 193.514877 
L 206.034556 193.514877 
L 206.139864 193.514877 
L 206.192519 194.2093 
L 206.245173 194.2093 
L 207.03499 194.2093 
L 207.087644 194.678753 
L 207.140299 194.678753 
L 207.350916 194.678753 
L 207.350916 194.914082 
L 207.403571 194.914082 
L 207.50888 194.914082 
L 207.50888 195.149713 
L 207.614188 195.149713 
L 207.666843 195.149713 
L 207.666843 195.385954 
L 207.719497 195.385954 
L 207.982769 195.385954 
L 207.982769 195.622808 
L 208.088078 195.622808 
L 208.140733 195.622808 
L 208.140733 195.860587 
L 208.404005 195.860587 
L 208.404005 196.098678 
L 208.614622 196.098678 
L 208.614622 196.337081 
L 208.983203 196.337081 
L 208.983203 196.575797 
L 209.088512 196.575797 
L 209.141167 196.575797 
L 209.141167 196.816094 
L 209.246476 196.816094 
L 209.29913 196.816094 
L 209.29913 197.05671 
L 209.615057 197.05671 
L 209.667711 197.539548 
L 209.720365 197.539548 
L 210.352218 197.539548 
L 210.352218 197.783743 
L 210.457527 197.783743 
L 210.720799 197.783743 
L 210.773454 198.276811 
L 211.721234 198.276811 
L 211.721234 198.524705 
L 212.142469 198.524705 
L 212.142469 198.773631 
L 212.247778 198.773631 
L 212.721668 198.773631 
L 212.721668 199.024648 
L 212.879631 199.024648 
L 212.879631 199.275665 
L 212.98494 199.275665 
L 214.195991 199.275665 
L 214.195991 199.531717 
L 214.933153 199.531717 
L 214.933153 199.789993 
L 215.038462 199.789993 
L 215.407043 199.789993 
L 215.407043 200.050534 
L 216.038896 200.050534 
L 216.091551 200.575073 
L 216.144205 200.575073 
L 216.19686 200.575073 
L 216.19686 200.838314 
L 216.460132 200.838314 
L 216.460132 201.101948 
L 216.565441 201.101948 
L 217.460566 201.101948 
L 217.565875 201.635577 
L 217.829147 201.635577 
L 217.829147 201.903201 
L 217.934456 201.903201 
L 218.197728 201.903201 
L 218.197728 202.441723 
L 218.303037 202.441723 
L 219.145507 202.441723 
L 219.145507 202.713065 
L 219.250816 202.713065 
L 219.619397 202.713065 
L 219.619397 202.985673 
L 219.672052 202.985673 
L 219.935324 202.985673 
L 219.935324 203.259133 
L 220.198596 203.259133 
L 220.303905 204.085991 
L 220.672486 204.085991 
L 220.672486 204.363366 
L 220.777795 204.363366 
L 221.304339 204.363366 
L 221.304339 204.922582 
L 221.409648 204.922582 
L 221.725574 204.922582 
L 221.725574 205.206316 
L 222.14681 205.206316 
L 222.14681 205.490984 
L 222.199464 205.490984 
L 222.357427 205.490984 
L 222.462736 206.065541 
L 222.568045 206.065541 
L 222.568045 206.354022 
L 222.936626 206.354022 
L 222.936626 206.931954 
L 222.98928 206.931954 
L 223.410516 206.931954 
L 223.410516 207.222886 
L 224.042369 207.222886 
L 224.042369 207.515815 
L 224.147678 207.515815 
L 225.358729 207.515815 
L 225.358729 207.81491 
L 225.464038 207.81491 
L 226.2012 207.81491 
L 226.2012 208.116122 
L 226.306509 208.116122 
L 226.780399 208.116122 
L 226.780399 208.418946 
L 227.570215 208.418946 
L 227.675524 209.027854 
L 228.307377 209.027854 
L 228.307377 209.335636 
L 228.781267 209.335636 
L 228.781267 209.644545 
L 228.833922 209.644545 
L 229.834356 209.644545 
L 229.834356 209.959817 
L 230.255591 209.959817 
L 230.255591 210.27509 
L 230.3609 210.27509 
L 233.046276 210.27509 
L 233.046276 210.601403 
L 235.521033 210.601403 
L 235.521033 210.936871 
L 235.731651 210.936871 
L 235.731651 211.273692 
L 235.784306 211.273692 
L 237.416593 211.273692 
L 237.469247 211.962643 
L 238.1011 211.962643 
L 238.1011 212.309277 
L 238.732953 212.309277 
L 238.838262 213.007659 
L 238.996225 213.007659 
L 238.996225 213.357219 
L 239.680733 213.357219 
L 239.680733 213.70902 
L 240.628513 213.70902 
L 240.628513 214.064628 
L 240.733822 214.064628 
L 240.944439 214.064628 
L 240.997094 214.784435 
L 241.734256 214.784435 
L 241.734256 215.148755 
L 242.208145 215.148755 
L 242.208145 215.517197 
L 242.73469 215.517197 
L 242.73469 215.888163 
L 244.682903 215.888163 
L 244.682903 216.271406 
L 245.367411 216.271406 
L 245.367411 217.04338 
L 245.420065 217.04338 
L 246.262536 217.04338 
L 246.367845 217.822831 
L 246.473154 217.822831 
L 246.473154 218.213507 
L 246.578463 218.213507 
L 248.052787 218.213507 
L 248.052787 218.615992 
L 248.158095 218.615992 
L 248.68464 218.615992 
L 248.68464 219.021549 
L 248.789948 219.021549 
L 249.790383 219.021549 
L 249.790383 219.437723 
L 249.843037 219.437723 
L 250.211618 219.437723 
L 250.211618 219.854992 
L 250.264272 219.854992 
L 250.843471 219.854992 
L 250.94878 220.697313 
L 252.317795 220.697313 
L 252.317795 221.12828 
L 252.370449 221.12828 
L 252.73903 221.12828 
L 252.73903 221.561627 
L 252.844339 221.561627 
L 253.318229 221.561627 
L 253.370883 222.441736 
L 253.528847 222.441736 
L 253.581501 223.323086 
L 254.423972 223.323086 
L 254.423972 223.771424 
L 254.529281 223.771424 
L 254.792553 223.771424 
L 254.792553 224.227722 
L 254.897862 224.227722 
L 255.424406 224.227722 
L 255.424406 224.690892 
L 255.47706 224.690892 
L 256.477494 224.690892 
L 256.530149 225.631438 
L 256.688112 225.631438 
L 256.688112 226.101712 
L 257.688546 226.101712 
L 257.688546 226.577882 
L 260.11065 226.577882 
L 260.11065 227.077625 
L 260.268613 227.077625 
L 260.268613 227.577368 
L 260.847812 227.577368 
L 260.900466 228.590315 
L 263.375224 228.590315 
L 263.375224 229.098511 
L 263.480533 229.098511 
L 263.901768 229.098511 
L 263.901768 229.611964 
L 264.270349 229.611964 
L 264.270349 230.125418 
L 264.63893 230.125418 
L 264.63893 230.642462 
L 266.745107 230.642462 
L 266.745107 231.178307 
L 267.429615 231.178307 
L 267.429615 231.716116 
L 268.430049 231.716116 
L 268.430049 232.261951 
L 268.588012 232.261951 
L 268.640667 233.353622 
L 270.220299 233.353622 
L 270.220299 233.909954 
L 270.430917 233.909954 
L 270.430917 234.466286 
L 270.904807 234.466286 
L 270.904807 235.026965 
L 272.695057 235.026965 
L 272.695057 235.594318 
L 272.747712 235.594318 
L 275.749014 235.594318 
L 275.749014 236.190158 
L 276.644139 236.190158 
L 276.644139 236.791047 
L 279.224206 236.791047 
L 279.224206 237.404999 
L 279.382169 237.404999 
L 279.382169 238.018951 
L 279.908713 238.018951 
L 279.908713 238.635608 
L 280.014022 238.635608 
L 280.066677 238.635608 
L 280.066677 239.255005 
L 280.171986 239.255005 
L 281.17242 239.255005 
L 281.17242 239.88281 
L 282.96267 239.88281 
L 282.96267 240.522242 
L 283.857795 240.522242 
L 283.857795 241.161673 
L 286.911752 241.161673 
L 287.017061 242.503225 
L 291.703305 242.503225 
L 291.703305 243.264443 
L 292.335158 243.264443 
L 292.335158 244.025661 
L 292.387812 244.025661 
L 293.124974 244.025661 
L 293.124974 244.800079 
L 293.177628 244.800079 
L 298.07449 244.800079 
L 298.07449 245.648486 
L 299.02227 245.648486 
L 299.02227 246.513529 
L 299.759432 246.513529 
L 299.759432 247.390105 
L 302.497462 247.390105 
L 302.497462 248.297119 
L 302.971351 248.297119 
L 302.971351 249.210519 
L 303.392587 249.210519 
L 303.392587 250.12392 
L 305.709382 250.12392 
L 305.709382 251.078219 
L 306.077963 251.078219 
L 306.077963 252.039747 
L 306.130617 252.039747 
L 316.450884 252.039747 
L 316.450884 253.216946 
L 322.084908 253.216946 
L 322.084908 254.428432 
L 322.874724 254.428432 
L 322.874724 255.689366 
L 324.822938 255.689366 
L 324.822938 257.033439 
L 329.561836 257.033439 
L 329.561836 258.473517 
L 329.667145 258.473517 
L 330.404307 258.473517 
L 330.509616 261.424789 
L 338.039198 261.424789 
L 338.039198 263.066693 
L 340.040066 263.066693 
L 340.040066 264.834898 
L 347.674958 264.834898 
L 347.674958 266.82025 
L 349.991753 266.82025 
L 349.991753 268.805603 
L 362.57616 268.805603 
L 362.57616 271.468881 
L 371.053523 271.468881 
L 371.053523 274.602149 
L 387.376394 274.602149 
L 387.376394 278.29493 
L 453.668315 278.29493 
L 453.668315 287.359027 
L 455.300602 287.359027 
L 455.300602 296.423124 
L 462.514258 296.423124 
L 462.514258 305.487222 
L 622.636364 305.487222 
L 622.636364 305.487222 
" style="fill:none;stroke:#008000;stroke-linecap:square;stroke-width:1.5;"/>
   </g>
   <g id="line2d_14">
    <path clip-path="url(#p496a0268f7)" d="M 115.363636 81.621071 
L 115.5216 81.686802 
L 115.626908 81.950323 
L 115.679563 81.950323 
L 115.784872 82.148291 
L 115.837526 82.148291 
L 115.942835 82.346717 
L 115.995489 82.346717 
L 116.100798 82.612264 
L 116.258762 82.612264 
L 116.36407 82.945854 
L 116.522034 83.012624 
L 116.627343 83.413604 
L 116.785306 83.480464 
L 116.785306 83.54737 
L 116.890615 83.54737 
L 116.995924 83.614397 
L 117.101232 83.950609 
L 117.153887 83.950609 
L 117.259196 84.220379 
L 117.522468 84.287961 
L 117.627777 84.55871 
L 118.049012 84.626511 
L 118.154321 85.033582 
L 118.364939 85.101476 
L 118.417593 85.37315 
L 118.470247 85.37315 
L 118.628211 85.441156 
L 118.73352 85.782022 
L 118.786174 85.782022 
L 118.891483 86.123319 
L 119.207409 86.191594 
L 119.260064 86.328384 
L 119.365373 86.328384 
L 119.418027 86.738836 
L 119.470681 86.738836 
L 119.628645 86.807352 
L 119.733954 87.150045 
L 119.786608 87.150045 
L 119.839262 87.424513 
L 119.944571 87.424513 
L 120.04988 87.905257 
L 120.102535 87.905257 
L 120.207843 88.386408 
L 120.260498 88.386408 
L 120.365807 88.868212 
L 120.471116 88.937086 
L 120.576424 89.281586 
L 120.734388 89.350525 
L 120.839697 89.626283 
L 120.945005 89.695239 
L 121.050314 90.040498 
L 121.155623 90.109569 
L 121.260932 90.385889 
L 121.313586 90.385889 
L 121.366241 90.593253 
L 121.366241 90.593253 
L 121.47155 90.593253 
L 121.576858 90.939193 
L 121.682167 91.008398 
L 121.787476 91.354705 
L 121.840131 91.354705 
L 121.892785 91.770887 
L 121.945439 91.770887 
L 122.103403 91.840276 
L 122.156057 92.18754 
L 122.208712 92.18754 
L 122.261366 92.18754 
L 122.366675 92.535261 
L 122.577293 92.604954 
L 122.682601 93.092843 
L 122.840565 93.092843 
L 122.945874 93.790512 
L 123.051182 93.860291 
L 123.051182 94.069731 
L 123.156491 94.069731 
L 123.209146 94.069731 
L 123.314454 94.419227 
L 123.419763 94.419227 
L 123.472418 94.698978 
L 123.630381 94.698978 
L 123.73569 95.118804 
L 123.788344 95.118804 
L 123.840999 95.398816 
L 123.893653 95.398816 
L 123.998962 95.398816 
L 124.104271 95.95948 
L 124.367543 96.029605 
L 124.472852 96.450805 
L 124.578161 96.521034 
L 124.630815 96.802057 
L 124.736124 96.802057 
L 124.841433 97.153625 
L 124.999396 97.223977 
L 125.104705 97.505775 
L 125.262668 97.505775 
L 125.315323 97.858864 
L 125.367977 97.858864 
L 125.420631 97.858864 
L 125.420631 98.070825 
L 125.473286 98.070825 
L 125.578595 98.070825 
L 125.631249 98.353724 
L 125.683904 98.353724 
L 125.736558 98.353724 
L 125.841867 98.778575 
L 125.894521 98.778575 
L 125.947176 98.991127 
L 125.99983 98.991127 
L 126.157793 98.991127 
L 126.210448 99.417257 
L 126.263102 99.417257 
L 126.421066 99.488324 
L 126.526374 99.701688 
L 126.631683 99.701688 
L 126.736992 100.271863 
L 126.842301 100.343166 
L 126.842301 100.414488 
L 127.105573 100.414488 
L 127.210882 100.914679 
L 127.474154 100.986259 
L 127.579463 101.415941 
L 127.790081 101.487632 
L 127.895389 101.917835 
L 128.106007 101.9896 
L 128.211316 102.636163 
L 128.369279 102.708079 
L 128.421934 102.923938 
L 128.527243 102.923938 
L 128.579897 103.211843 
L 128.685206 103.211843 
L 128.790515 103.571891 
L 128.843169 103.571891 
L 128.895824 103.788108 
L 128.948478 103.788108 
L 129.001132 103.788108 
L 129.106441 104.293255 
L 129.159096 104.293255 
L 129.264404 104.654269 
L 129.369713 104.654269 
L 129.369713 104.798782 
L 129.475022 104.798782 
L 129.580331 104.871115 
L 129.68564 105.232837 
L 129.790949 105.232837 
L 129.896258 106.030421 
L 130.001566 106.102985 
L 130.054221 106.393357 
L 130.106875 106.393357 
L 130.15953 106.393357 
L 130.264839 106.901887 
L 130.317493 106.901887 
L 130.422802 107.192628 
L 130.686074 107.265446 
L 130.738728 107.483956 
L 130.791383 107.483956 
L 130.844037 107.483956 
L 130.949346 107.921448 
L 131.107309 107.994383 
L 131.159964 108.28636 
L 131.265273 108.28636 
L 131.370581 108.797557 
L 131.47589 108.87071 
L 131.581199 109.090387 
L 131.739162 109.16366 
L 131.844471 109.530182 
L 132.055089 109.603594 
L 132.107743 109.970798 
L 132.160398 109.970798 
L 132.265707 109.970798 
L 132.318361 110.41216 
L 132.371016 110.41216 
L 132.581633 110.41216 
L 132.581633 110.559672 
L 132.686942 110.559672 
L 132.739597 110.559672 
L 132.844905 110.855105 
L 132.950214 110.928983 
L 133.055523 111.668158 
L 133.266141 111.742201 
L 133.37145 112.334708 
L 133.476758 112.408833 
L 133.529413 112.631479 
L 133.687376 112.631479 
L 133.740031 113.002769 
L 133.792685 113.002769 
L 133.897994 113.077081 
L 134.003303 113.597684 
L 134.108612 113.672142 
L 134.21392 114.119356 
L 134.319229 114.194004 
L 134.424538 114.567434 
L 134.582501 114.64223 
L 134.635156 115.167127 
L 134.68781 115.167127 
L 134.740465 115.167127 
L 134.845773 115.769135 
L 134.951082 115.844489 
L 134.951082 115.919886 
L 135.056391 115.919886 
L 135.109046 115.919886 
L 135.214354 116.450678 
L 135.319663 116.52671 
L 135.424972 116.831724 
L 135.530281 116.831724 
L 135.63559 117.521004 
L 135.740899 117.597864 
L 135.740899 117.751675 
L 135.846208 117.751675 
L 135.951516 117.751675 
L 136.056825 118.137069 
L 136.10948 118.137069 
L 136.214789 118.678014 
L 136.267443 118.678014 
L 136.372752 118.98844 
L 136.478061 119.066105 
L 136.58337 119.299496 
L 136.741333 119.299496 
L 136.846642 119.846078 
L 136.95195 119.924401 
L 136.95195 120.002772 
L 137.057259 120.002772 
L 137.162568 120.08131 
L 137.215223 120.317187 
L 137.267877 120.317187 
L 137.531149 120.396038 
L 137.583804 120.554029 
L 137.636458 120.554029 
L 137.689112 120.554029 
L 137.794421 121.029095 
L 137.847076 121.029095 
L 137.952385 121.42622 
L 138.215657 121.505852 
L 138.320966 121.745691 
L 138.478929 121.825795 
L 138.478929 121.986205 
L 138.584238 121.986205 
L 138.742201 122.066789 
L 138.84751 122.550849 
L 139.005473 122.550849 
L 139.005473 122.712833 
L 139.110782 122.712833 
L 139.268745 122.712833 
L 139.374054 123.363196 
L 139.426708 123.363196 
L 139.532017 123.689471 
L 139.584672 123.689471 
L 139.689981 124.016585 
L 139.953253 124.098621 
L 140.058562 124.756344 
L 140.216525 124.756344 
L 140.321834 125.003679 
L 140.479797 125.086277 
L 140.585106 125.334773 
L 140.63776 125.334773 
L 140.63776 125.500673 
L 140.743069 125.500673 
L 140.953687 125.583951 
L 141.058996 125.750783 
L 141.216959 125.834309 
L 141.322268 126.252856 
L 141.374922 126.252856 
L 141.480231 126.755847 
L 141.743503 126.840016 
L 141.743503 126.92427 
L 141.848812 126.92427 
L 142.006775 126.92427 
L 142.112084 127.347013 
L 142.322702 127.431722 
L 142.375356 127.771418 
L 142.428011 127.771418 
L 142.480665 127.771418 
L 142.585974 128.111663 
L 142.638628 128.111663 
L 142.691283 128.367405 
L 142.743937 128.367405 
L 142.796592 128.367405 
L 142.9019 128.795445 
L 142.954555 128.795445 
L 143.059864 129.13888 
L 143.323136 129.22511 
L 143.428445 129.484131 
L 143.744371 129.570873 
L 143.744371 129.657706 
L 143.84968 129.657706 
L 143.954989 129.657706 
L 144.060298 130.444646 
L 144.112952 130.444646 
L 144.218261 131.058059 
L 144.32357 131.145814 
L 144.428879 131.409453 
L 144.534188 131.409453 
L 144.586842 131.762862 
L 144.639496 131.762862 
L 144.692151 131.762862 
L 144.79746 132.294118 
L 144.902769 132.382724 
L 144.955423 132.914747 
L 145.008077 132.914747 
L 145.060732 132.914747 
L 145.113386 133.181273 
L 145.166041 133.181273 
L 145.218695 133.181273 
L 145.27135 133.537406 
L 145.429313 133.626593 
L 145.534622 134.072986 
L 145.692585 134.162566 
L 145.745239 134.432298 
L 145.797894 134.432298 
L 145.903203 134.522542 
L 146.008512 134.703566 
L 146.11382 134.703566 
L 146.166475 134.975845 
L 146.219129 134.975845 
L 146.429747 135.066798 
L 146.535056 135.340269 
L 146.58771 135.340269 
L 146.640365 135.614082 
L 146.693019 135.614082 
L 146.798328 135.705722 
L 146.903637 136.164613 
L 147.008946 136.164613 
L 147.114254 136.625077 
L 147.272218 136.625077 
L 147.377527 137.18046 
L 147.53549 137.273441 
L 147.588144 137.459762 
L 147.640799 137.459762 
L 147.693453 137.459762 
L 147.798762 137.83378 
L 147.904071 137.83378 
L 147.904071 138.02163 
L 148.00938 138.02163 
L 148.167343 138.02163 
L 148.272652 138.39955 
L 148.377961 138.494216 
L 148.483269 138.873519 
L 148.535924 138.873519 
L 148.641233 139.253765 
L 148.693887 139.253765 
L 148.693887 139.44438 
L 148.799196 139.44438 
L 148.85185 139.44438 
L 148.957159 139.922487 
L 149.062468 140.018293 
L 149.115123 140.210485 
L 149.167777 140.210485 
L 149.378395 140.306951 
L 149.483704 140.500512 
L 149.641667 140.59753 
L 149.641667 140.694667 
L 149.746976 140.694667 
L 150.010248 140.792083 
L 150.062902 140.987558 
L 150.115557 140.987558 
L 150.168211 140.987558 
L 150.27352 141.281861 
L 150.431483 141.380248 
L 150.484138 141.774204 
L 150.536792 141.774204 
L 150.589446 141.774204 
L 150.589446 141.971718 
L 150.694755 141.971718 
L 150.905373 141.971718 
L 150.958027 142.468662 
L 151.010682 142.468662 
L 151.063336 142.468662 
L 151.168645 142.8677 
L 151.273954 142.8677 
L 151.379263 143.268779 
L 151.537226 143.369177 
L 151.642535 143.671537 
L 151.800498 143.772453 
L 151.905807 144.176686 
L 151.958462 144.176686 
L 152.06377 144.581575 
L 152.274388 144.581575 
L 152.327042 144.988627 
L 152.379697 144.988627 
L 152.642969 145.09087 
L 152.695623 145.398093 
L 152.748278 145.398093 
L 152.800932 145.398093 
L 152.853587 145.808688 
L 152.906241 145.808688 
L 153.064204 145.911473 
L 153.064204 146.014258 
L 153.169513 146.014258 
L 153.327477 146.117317 
L 153.432785 146.530425 
L 153.538094 146.633899 
L 153.643403 147.153123 
L 153.801366 147.257108 
L 153.854021 147.777691 
L 154.011984 147.777691 
L 154.064638 148.090729 
L 154.117293 148.090729 
L 154.275256 148.195281 
L 154.327911 148.404814 
L 154.380565 148.404814 
L 155.065073 148.510375 
L 155.065073 148.72257 
L 155.170381 148.72257 
L 155.433654 148.829112 
L 155.538962 149.258424 
L 155.696926 149.365965 
L 155.74958 149.581709 
L 155.802235 149.581709 
L 155.960198 149.689913 
L 156.065507 149.906577 
L 156.276124 150.015193 
L 156.381433 150.232892 
L 156.644705 150.341923 
L 156.750014 150.669961 
L 156.855323 150.779412 
L 156.907977 151.108241 
L 156.960632 151.108241 
L 157.065941 151.108241 
L 157.065941 151.438506 
L 157.118595 151.438506 
L 157.223904 151.438506 
L 157.223904 151.659218 
L 157.329213 151.659218 
L 157.539831 151.770061 
L 157.645139 152.102752 
L 157.750448 152.213649 
L 157.855757 152.658002 
L 158.066375 152.658002 
L 158.171684 152.880562 
L 158.224338 152.880562 
L 158.329647 153.103452 
L 158.329647 153.103452 
L 158.48761 153.103452 
L 158.592919 153.662674 
L 158.645573 153.662674 
L 158.698228 154.111014 
L 158.750882 154.111014 
L 158.803537 154.111014 
L 158.908846 154.78702 
L 158.9615 154.78702 
L 159.014154 155.125563 
L 159.066809 155.125563 
L 159.277427 155.125563 
L 159.382735 155.465369 
L 159.43539 155.465369 
L 159.540699 155.805867 
L 159.593353 155.805867 
L 159.646008 156.147063 
L 159.698662 156.147063 
L 160.014588 156.147063 
L 160.014588 156.261185 
L 160.067243 156.261185 
L 160.277861 156.261185 
L 160.383169 156.605381 
L 160.488478 156.605381 
L 160.488478 156.835402 
L 160.593787 156.835402 
L 160.646442 156.835402 
L 160.75175 157.296582 
L 160.804405 157.296582 
L 160.857059 157.527746 
L 160.909714 157.527746 
L 160.962368 157.527746 
L 161.067677 157.759761 
L 161.120331 157.759761 
L 161.22564 157.992143 
L 161.330949 157.992143 
L 161.383604 158.224649 
L 161.436258 158.224649 
L 161.541567 158.224649 
L 161.541567 158.341178 
L 161.646876 158.341178 
L 161.752184 158.341178 
L 161.857493 159.159184 
L 161.962802 159.159184 
L 161.962802 159.276211 
L 162.068111 159.276211 
L 162.699964 159.276211 
L 162.699964 159.512797 
L 162.752619 159.512797 
L 162.963236 159.512797 
L 162.963236 159.750025 
L 163.173854 159.750025 
L 163.173854 159.868704 
L 163.279163 159.868704 
L 163.437126 159.868704 
L 163.542435 160.228196 
L 163.595089 160.228196 
L 163.595089 160.348246 
L 163.700398 160.348246 
L 163.753053 160.348246 
L 163.858361 160.709195 
L 164.016325 160.709195 
L 164.016325 160.829845 
L 164.121634 160.829845 
L 164.174288 160.829845 
L 164.279597 161.071683 
L 164.700832 161.071683 
L 164.700832 161.193553 
L 164.806141 161.193553 
L 164.91145 161.193553 
L 165.016759 161.561092 
L 165.332685 161.561092 
L 165.437994 162.549892 
L 165.490649 162.549892 
L 165.490649 162.797536 
L 165.595957 162.797536 
L 165.85923 162.797536 
L 165.911884 163.047336 
L 165.964538 163.047336 
L 166.069847 163.047336 
L 166.175156 163.297645 
L 166.280465 163.297645 
L 166.280465 163.423129 
L 166.385774 163.423129 
L 166.596392 163.423129 
L 166.649046 163.802091 
L 166.7017 163.802091 
L 166.754355 163.802091 
L 166.754355 163.928836 
L 166.807009 163.928836 
L 166.964973 163.928836 
L 166.964973 164.055805 
L 167.070281 164.055805 
L 167.228245 164.055805 
L 167.333554 164.437925 
L 167.386208 164.437925 
L 167.386208 164.565653 
L 167.491517 164.565653 
L 167.544171 164.565653 
L 167.544171 164.82157 
L 167.64948 164.82157 
L 167.754789 164.82157 
L 167.754789 164.949836 
L 167.860098 164.949836 
L 167.965407 164.949836 
L 168.070715 165.336264 
L 168.176024 165.336264 
L 168.281333 165.983211 
L 168.491951 165.983211 
L 168.59726 166.373746 
L 168.965841 166.373746 
L 168.965841 166.504703 
L 169.07115 166.504703 
L 169.281767 166.504703 
L 169.387076 166.898794 
L 169.703003 166.898794 
L 169.808311 167.294856 
L 169.860966 167.294856 
L 169.966275 167.559645 
L 170.282201 167.559645 
L 170.38751 168.092912 
L 170.440165 168.092912 
L 170.440165 168.35997 
L 170.545473 168.35997 
L 171.019363 168.35997 
L 171.124672 168.898285 
L 171.282635 168.898285 
L 171.387944 169.438601 
L 171.440599 169.438601 
L 171.545907 169.709549 
L 171.703871 169.709549 
L 171.80918 170.117074 
L 171.861834 170.117074 
L 171.967143 170.389529 
L 172.283069 170.389529 
L 172.388378 170.800549 
L 172.65165 170.800549 
L 172.756959 171.212385 
L 172.914923 171.212385 
L 173.020231 171.627067 
L 173.12554 171.627067 
L 173.12554 171.765759 
L 173.230849 171.765759 
L 173.388812 171.765759 
L 173.494121 172.184178 
L 173.59943 172.184178 
L 173.652084 172.603261 
L 173.704739 172.603261 
L 173.862702 172.603261 
L 173.862702 172.743463 
L 173.968011 172.743463 
L 174.07332 172.743463 
L 174.125974 173.024926 
L 174.178629 173.024926 
L 174.652519 173.024926 
L 174.705173 173.309912 
L 175.0211 173.309912 
L 175.126408 173.742154 
L 175.494989 173.742154 
L 175.494989 173.887018 
L 175.547644 173.887018 
L 175.758261 173.887018 
L 175.86357 174.323159 
L 176.021534 174.323159 
L 176.126842 174.615273 
L 176.179497 174.615273 
L 176.232151 174.907808 
L 176.284806 174.907808 
L 176.33746 174.907808 
L 176.33746 175.201506 
L 176.442769 175.201506 
L 176.495423 175.201506 
L 176.600732 175.644299 
L 176.653387 175.644299 
L 176.653387 175.792219 
L 176.706041 175.792219 
L 176.969313 175.792219 
L 177.021968 176.089475 
L 177.179931 176.089475 
L 177.179931 176.238267 
L 177.28524 176.238267 
L 177.653821 176.238267 
L 177.653821 176.387941 
L 177.75913 176.387941 
L 177.811784 176.387941 
L 177.864438 176.688519 
L 178.022402 176.688519 
L 178.075056 176.989545 
L 178.496292 176.989545 
L 178.548946 177.442839 
L 178.6016 177.442839 
L 178.654255 177.442839 
L 178.654255 177.594317 
L 178.706909 177.594317 
L 179.022836 177.594317 
L 179.07549 177.898423 
L 179.233453 177.898423 
L 179.338762 178.20334 
L 180.075924 178.20334 
L 180.075924 178.358221 
L 180.549814 178.358221 
L 180.549814 178.513948 
L 180.918395 178.513948 
L 180.918395 178.67004 
L 181.023704 178.67004 
L 181.129013 178.67004 
L 181.129013 178.983452 
L 181.234322 178.983452 
L 181.602903 178.983452 
L 181.655557 179.298851 
L 181.708211 179.298851 
L 181.971484 179.298851 
L 182.024138 179.457558 
L 182.024138 179.457558 
L 182.234756 179.457558 
L 182.340065 179.935334 
L 182.655991 179.935334 
L 182.708646 180.25518 
L 182.7613 180.25518 
L 183.077226 180.25518 
L 183.182535 180.576064 
L 183.445807 180.576064 
L 183.445807 180.737622 
L 183.551116 180.737622 
L 183.919697 180.737622 
L 183.919697 180.900112 
L 183.972352 180.900112 
L 184.55155 180.900112 
L 184.604205 181.228475 
L 184.656859 181.228475 
L 184.920131 181.228475 
L 184.920131 181.393275 
L 185.078095 181.393275 
L 185.078095 181.723429 
L 185.183403 181.723429 
L 185.341367 181.723429 
L 185.341367 181.889203 
L 185.446676 181.889203 
L 185.49933 181.889203 
L 185.49933 182.055258 
L 185.551984 182.055258 
L 185.657293 182.055258 
L 185.762602 182.38765 
L 185.815257 182.38765 
L 185.815257 182.553987 
L 185.867911 182.553987 
L 185.97322 182.553987 
L 186.078529 182.887655 
L 186.131183 182.887655 
L 186.236492 183.221466 
L 186.341801 183.221466 
L 186.341801 183.388657 
L 186.394455 183.388657 
L 186.499764 183.388657 
L 186.499764 183.555993 
L 186.605073 183.555993 
L 186.657727 183.555993 
L 186.657727 183.723907 
L 186.710382 183.723907 
L 186.815691 183.723907 
L 186.815691 183.891966 
L 187.026308 183.891966 
L 187.026308 184.06017 
L 187.131617 184.06017 
L 187.184272 184.06017 
L 187.28958 184.905594 
L 187.342235 184.905594 
L 187.447544 185.244804 
L 187.605507 185.244804 
L 187.605507 185.415535 
L 187.658161 185.415535 
L 187.921434 185.415535 
L 187.974088 185.758517 
L 188.026742 185.758517 
L 188.079397 185.758517 
L 188.079397 185.930314 
L 188.184706 185.930314 
L 188.23736 185.930314 
L 188.23736 186.10242 
L 188.342669 186.10242 
L 188.447978 186.10242 
L 188.447978 186.275456 
L 188.500632 186.275456 
L 188.763904 186.275456 
L 188.763904 186.448806 
L 189.027176 186.448806 
L 189.027176 186.622312 
L 189.132485 186.622312 
L 189.18514 186.622312 
L 189.290449 186.970747 
L 189.448412 186.970747 
L 189.448412 187.145044 
L 189.553721 187.145044 
L 189.65903 187.145044 
L 189.65903 187.31982 
L 189.764338 187.31982 
L 190.132919 187.31982 
L 190.238228 187.84802 
L 190.290883 187.84802 
L 190.290883 188.200153 
L 190.396192 188.200153 
L 190.448846 188.200153 
L 190.448846 188.376711 
L 190.554155 188.376711 
L 190.659464 188.376711 
L 190.764772 188.909696 
L 191.291317 188.909696 
L 191.291317 189.088929 
L 191.396626 189.088929 
L 191.501934 189.088929 
L 191.607243 189.44979 
L 191.765207 189.44979 
L 191.765207 189.630567 
L 192.186442 189.630567 
L 192.186442 189.811866 
L 192.291751 189.811866 
L 192.765641 189.811866 
L 192.765641 190.177991 
L 192.870949 190.177991 
L 193.450148 190.177991 
L 193.555457 190.734776 
L 193.818729 190.734776 
L 193.924038 191.294521 
L 193.976692 191.294521 
L 193.976692 191.4816 
L 194.082001 191.4816 
L 194.239965 191.4816 
L 194.345273 192.046428 
L 194.397928 192.046428 
L 194.450582 192.423234 
L 194.555891 192.423234 
L 194.555891 192.611828 
L 194.6612 192.611828 
L 194.766509 192.611828 
L 194.766509 192.800999 
L 195.187744 192.800999 
L 195.187744 193.180895 
L 195.293053 193.180895 
L 195.819597 193.180895 
L 195.819597 193.374423 
L 195.872252 193.374423 
L 196.240833 193.374423 
L 196.293487 193.767243 
L 196.556759 193.767243 
L 196.556759 193.964073 
L 196.609414 193.964073 
L 197.083303 193.964073 
L 197.083303 194.162174 
L 197.135958 194.162174 
L 197.293921 194.162174 
L 197.346576 194.757761 
L 197.39923 194.757761 
L 197.504539 194.757761 
L 197.504539 194.957154 
L 197.609848 194.957154 
L 197.662502 194.957154 
L 197.662502 195.157639 
L 197.767811 195.157639 
L 197.87312 195.157639 
L 197.87312 195.358565 
L 198.504973 195.358565 
L 198.610282 195.762192 
L 198.610282 195.762192 
L 198.715591 195.762192 
L 198.715591 196.167616 
L 198.768245 196.167616 
L 199.084172 196.167616 
L 199.136826 196.576 
L 199.558061 196.576 
L 199.610716 196.987392 
L 200.13726 196.987392 
L 200.13726 197.193557 
L 200.242569 197.193557 
L 200.663804 197.193557 
L 200.663804 197.608251 
L 200.716459 197.608251 
L 200.927076 197.608251 
L 200.927076 197.816796 
L 201.295657 197.816796 
L 201.295657 198.025583 
L 201.769547 198.025583 
L 201.822202 198.445349 
L 202.190783 198.445349 
L 202.190783 198.868328 
L 202.559364 198.868328 
L 202.559364 199.080068 
L 202.822636 199.080068 
L 202.87529 199.504049 
L 202.927945 199.504049 
L 203.34918 199.504049 
L 203.454489 199.932097 
L 203.665107 199.932097 
L 203.770415 200.360659 
L 204.138996 200.360659 
L 204.244305 201.006361 
L 204.454923 201.006361 
L 204.560232 201.439903 
L 204.612886 201.439903 
L 204.665541 201.873712 
L 204.823504 201.873712 
L 204.823504 202.090616 
L 204.928813 202.090616 
L 205.455357 202.090616 
L 205.560666 202.527658 
L 205.823938 202.527658 
L 205.823938 202.9647 
L 205.929247 202.9647 
L 205.981901 202.9647 
L 206.034556 203.402838 
L 206.08721 203.402838 
L 206.5611 203.402838 
L 206.666409 203.846259 
L 206.771718 203.846259 
L 206.771718 204.291097 
L 206.824372 204.291097 
L 207.298262 204.291097 
L 207.403571 204.738224 
L 207.877461 204.738224 
L 207.877461 204.962656 
L 208.140733 204.962656 
L 208.140733 205.18738 
L 208.509314 205.18738 
L 208.509314 205.412396 
L 208.614622 205.412396 
L 209.141167 205.412396 
L 209.141167 205.639784 
L 209.193821 205.639784 
L 209.77302 205.639784 
L 209.77302 205.869905 
L 210.036292 205.869905 
L 210.088946 206.33138 
L 210.141601 206.33138 
L 210.931417 206.33138 
L 210.931417 206.562739 
L 211.457961 206.562739 
L 211.457961 206.79567 
L 212.300432 206.79567 
L 212.405741 207.269264 
L 212.51105 207.269264 
L 212.51105 207.50672 
L 212.616359 207.50672 
L 212.98494 207.50672 
L 213.090249 208.227117 
L 213.774756 208.227117 
L 213.774756 208.470345 
L 213.880065 208.470345 
L 214.038028 208.470345 
L 214.090683 208.958903 
L 214.406609 208.958903 
L 214.406609 209.203535 
L 214.511918 209.203535 
L 214.564572 209.203535 
L 214.669881 209.695296 
L 214.933153 209.695296 
L 214.933153 209.944267 
L 215.038462 209.944267 
L 215.933587 209.944267 
L 216.038896 210.699764 
L 216.828713 210.699764 
L 216.828713 210.955184 
L 216.934022 210.955184 
L 217.144639 210.955184 
L 217.144639 211.470755 
L 217.249948 211.470755 
L 217.881801 211.470755 
L 217.881801 211.731772 
L 217.98711 211.731772 
L 218.303037 211.731772 
L 218.303037 211.994439 
L 218.776926 211.994439 
L 218.776926 212.258359 
L 218.829581 212.258359 
L 219.092853 212.258359 
L 219.198162 212.790009 
L 219.356125 212.790009 
L 219.461434 213.323376 
L 219.830015 213.323376 
L 219.830015 213.592017 
L 220.777795 213.592017 
L 220.830449 214.135514 
L 220.883103 214.135514 
L 221.146376 214.135514 
L 221.146376 214.68082 
L 222.094155 214.68082 
L 222.094155 214.959047 
L 223.147244 214.959047 
L 223.252553 215.525161 
L 223.410516 215.525161 
L 223.410516 215.809208 
L 225.042803 215.809208 
L 225.042803 216.101444 
L 225.148112 216.101444 
L 225.200766 216.101444 
L 225.200766 216.394208 
L 225.253421 216.394208 
L 225.411384 216.394208 
L 225.411384 216.688037 
L 225.622002 216.688037 
L 225.622002 216.982402 
L 225.72731 216.982402 
L 225.779965 216.982402 
L 225.779965 217.57221 
L 225.937928 217.57221 
L 225.937928 217.867114 
L 226.2012 217.867114 
L 226.2012 218.162018 
L 226.306509 218.162018 
L 226.991017 218.162018 
L 226.991017 218.460223 
L 227.043671 218.460223 
L 227.306943 218.460223 
L 227.359598 219.05775 
L 227.412252 219.05775 
L 227.728179 219.05775 
L 227.728179 219.359922 
L 227.833487 219.359922 
L 228.465341 219.359922 
L 228.465341 219.666769 
L 229.097194 219.666769 
L 229.097194 219.97481 
L 229.149848 219.97481 
L 229.41312 219.97481 
L 229.41312 220.285273 
L 229.465775 220.285273 
L 229.623738 220.285273 
L 229.729047 220.909885 
L 230.255591 220.909885 
L 230.255591 221.224066 
L 230.3609 221.224066 
L 230.676826 221.224066 
L 230.782135 221.857509 
L 231.045407 221.857509 
L 231.045407 222.175518 
L 231.098062 222.175518 
L 231.571952 222.175518 
L 231.571952 222.49483 
L 232.15115 222.49483 
L 232.15115 222.8148 
L 232.467077 222.8148 
L 232.467077 223.136094 
L 232.572386 223.136094 
L 232.62504 223.136094 
L 232.62504 223.458057 
L 233.362202 223.458057 
L 233.362202 223.784784 
L 233.467511 223.784784 
L 234.152018 223.784784 
L 234.152018 224.11643 
L 235.047144 224.11643 
L 235.047144 224.453893 
L 235.152452 224.453893 
L 235.626342 224.453893 
L 235.626342 224.795107 
L 236.258195 224.795107 
L 236.258195 225.140942 
L 236.363504 225.140942 
L 236.416159 225.140942 
L 236.416159 225.487561 
L 236.679431 225.487561 
L 236.679431 225.83418 
L 236.78474 225.83418 
L 237.732519 225.83418 
L 237.732519 226.184793 
L 238.680299 226.184793 
L 238.680299 226.540332 
L 240.312586 226.540332 
L 240.312586 226.907953 
L 240.417895 226.907953 
L 240.575858 226.907953 
L 240.575858 227.277371 
L 241.365675 227.277371 
L 241.365675 227.651372 
L 241.997528 227.651372 
L 241.997528 228.026307 
L 242.629381 228.026307 
L 242.629381 228.403125 
L 242.73469 228.403125 
L 243.471852 228.403125 
L 243.471852 228.785726 
L 244.261668 228.785726 
L 244.261668 229.175319 
L 244.577595 229.175319 
L 244.577595 229.564912 
L 244.840867 229.564912 
L 244.840867 229.955531 
L 244.946175 229.955531 
L 245.104139 229.955531 
L 245.104139 230.348222 
L 245.262102 230.348222 
L 245.262102 230.740913 
L 245.683337 230.740913 
L 245.683337 231.134654 
L 245.788646 231.134654 
L 246.104573 231.134654 
L 246.104573 231.531587 
L 246.209882 231.531587 
L 248.052787 231.531587 
L 248.052787 231.94534 
L 248.68464 231.94534 
L 248.789948 233.190124 
L 249.211184 233.190124 
L 249.211184 233.607443 
L 249.685074 233.607443 
L 249.685074 234.025972 
L 250.369581 234.025972 
L 250.369581 234.448184 
L 250.685508 234.448184 
L 250.685508 234.870395 
L 250.790817 234.870395 
L 252.212486 234.870395 
L 252.212486 235.306766 
L 252.265141 235.306766 
L 253.160266 235.306766 
L 253.160266 235.752682 
L 253.21292 235.752682 
L 254.055391 235.752682 
L 254.1607 236.658716 
L 254.318663 236.658716 
L 254.318663 237.111733 
L 256.477494 237.111733 
L 256.530149 238.044768 
L 256.89873 238.044768 
L 256.89873 238.514416 
L 257.109348 238.514416 
L 257.214656 239.456886 
L 258.162436 239.456886 
L 258.162436 239.932979 
L 258.425708 239.932979 
L 258.425708 240.888461 
L 259.689414 240.888461 
L 259.742069 241.847282 
L 262.269481 241.847282 
L 262.269481 242.34601 
L 262.37479 242.34601 
L 262.690717 242.34601 
L 262.690717 242.8503 
L 262.743371 242.8503 
L 262.953989 242.8503 
L 262.953989 243.356479 
L 264.375658 243.356479 
L 264.375658 243.874339 
L 265.639364 243.874339 
L 265.639364 244.398267 
L 265.744673 244.398267 
L 265.902636 244.398267 
L 265.902636 244.926337 
L 266.271217 244.926337 
L 266.271217 245.456511 
L 266.376526 245.456511 
L 268.061468 245.456511 
L 268.061468 245.999722 
L 271.484006 245.999722 
L 271.484006 247.113648 
L 271.905241 247.113648 
L 271.905241 247.672992 
L 272.221167 247.672992 
L 272.221167 248.237178 
L 275.538396 248.237178 
L 275.538396 248.849267 
L 276.433521 248.849267 
L 276.433521 249.461356 
L 278.43439 249.461356 
L 278.43439 250.107278 
L 279.961368 250.107278 
L 279.961368 250.766519 
L 280.066677 250.766519 
L 282.225508 250.766519 
L 282.225508 251.446912 
L 285.121502 251.446912 
L 285.121502 252.161901 
L 285.22681 252.161901 
L 286.64848 252.161901 
L 286.64848 252.897797 
L 287.12237 252.897797 
L 287.12237 253.646912 
L 289.8604 253.646912 
L 289.8604 254.433957 
L 289.965709 254.433957 
L 291.071451 254.433957 
L 291.071451 255.231157 
L 294.86257 255.231157 
L 294.86257 256.08968 
L 295.33646 256.08968 
L 295.33646 256.948204 
L 297.6006 256.948204 
L 297.653255 258.715383 
L 297.916527 258.715383 
L 297.916527 259.598973 
L 298.179799 259.598973 
L 298.179799 260.482563 
L 299.232887 260.482563 
L 299.232887 261.372846 
L 302.444807 261.372846 
L 302.444807 262.321034 
L 304.919565 262.321034 
L 304.919565 263.285026 
L 308.55272 263.285026 
L 308.55272 264.318494 
L 312.080567 264.318494 
L 312.080567 265.411586 
L 317.451318 265.411586 
L 317.451318 266.596727 
L 319.294223 266.596727 
L 319.294223 267.820939 
L 321.979599 267.820939 
L 321.979599 269.087364 
L 323.085342 269.087364 
L 323.085342 270.399565 
L 323.822504 270.399565 
L 323.822504 271.727965 
L 349.412554 271.727965 
L 349.412554 273.771658 
L 357.626644 273.771658 
L 357.626644 276.087844 
L 358.837696 276.087844 
L 358.837696 278.404029 
L 361.786344 278.404029 
L 361.786344 280.720214 
L 365.998698 280.720214 
L 365.998698 283.214568 
L 376.582237 283.214568 
L 376.582237 286.086854 
L 386.639232 286.086854 
L 386.639232 289.491044 
L 393.74758 289.491044 
L 393.74758 293.705757 
L 453.247079 293.705757 
L 453.247079 300.189929 
L 482.470285 300.189929 
L 482.470285 308.835493 
L 507.902372 308.835493 
L 507.902372 331.890328 
L 568.454961 331.890328 
L 568.454961 331.890328 
" style="fill:none;stroke:#0000ff;stroke-linecap:square;stroke-width:1.5;"/>
   </g>
   <g id="patch_3">
    <path d="M 90 378 
L 90 51.84 
" style="fill:none;stroke:#000000;stroke-linecap:square;stroke-linejoin:miter;stroke-width:0.8;"/>
   </g>
   <g id="patch_4">
    <path d="M 648 378 
L 648 51.84 
" style="fill:none;stroke:#000000;stroke-linecap:square;stroke-linejoin:miter;stroke-width:0.8;"/>
   </g>
   <g id="patch_5">
    <path d="M 90 378 
L 648 378 
" style="fill:none;stroke:#000000;stroke-linecap:square;stroke-linejoin:miter;stroke-width:0.8;"/>
   </g>
   <g id="patch_6">
    <path d="M 90 51.84 
L 648 51.84 
" style="fill:none;stroke:#000000;stroke-linecap:square;stroke-linejoin:miter;stroke-width:0.8;"/>
   </g>
   <g id="text_15">
    <!-- Survival based on ATG7(2) expression -->
    <g transform="translate(140.925 45.84)scale(0.24 -0.24)">
     <defs>
      <path d="M 53.515625 70.515625 
L 53.515625 60.890625 
Q 47.90625 63.578125 42.921875 64.890625 
Q 37.9375 66.21875 33.296875 66.21875 
Q 25.25 66.21875 20.875 63.09375 
Q 16.5 59.96875 16.5 54.203125 
Q 16.5 49.359375 19.40625 46.890625 
Q 22.3125 44.4375 30.421875 42.921875 
L 36.375 41.703125 
Q 47.40625 39.59375 52.65625 34.296875 
Q 57.90625 29 57.90625 20.125 
Q 57.90625 9.515625 50.796875 4.046875 
Q 43.703125 -1.421875 29.984375 -1.421875 
Q 24.8125 -1.421875 18.96875 -0.25 
Q 13.140625 0.921875 6.890625 3.21875 
L 6.890625 13.375 
Q 12.890625 10.015625 18.65625 8.296875 
Q 24.421875 6.59375 29.984375 6.59375 
Q 38.421875 6.59375 43.015625 9.90625 
Q 47.609375 13.234375 47.609375 19.390625 
Q 47.609375 24.75 44.3125 27.78125 
Q 41.015625 30.8125 33.5 32.328125 
L 27.484375 33.5 
Q 16.453125 35.6875 11.515625 40.375 
Q 6.59375 45.0625 6.59375 53.421875 
Q 6.59375 63.09375 13.40625 68.65625 
Q 20.21875 74.21875 32.171875 74.21875 
Q 37.3125 74.21875 42.625 73.28125 
Q 47.953125 72.359375 53.515625 70.515625 
z
" id="DejaVuSans-83"/>
      <path d="M 34.1875 63.1875 
L 20.796875 26.90625 
L 47.609375 26.90625 
z
M 28.609375 72.90625 
L 39.796875 72.90625 
L 67.578125 0 
L 57.328125 0 
L 50.6875 18.703125 
L 17.828125 18.703125 
L 11.1875 0 
L 0.78125 0 
z
" id="DejaVuSans-65"/>
      <path d="M -0.296875 72.90625 
L 61.375 72.90625 
L 61.375 64.59375 
L 35.5 64.59375 
L 35.5 0 
L 25.59375 0 
L 25.59375 64.59375 
L -0.296875 64.59375 
z
" id="DejaVuSans-84"/>
      <path d="M 59.515625 10.40625 
L 59.515625 29.984375 
L 43.40625 29.984375 
L 43.40625 38.09375 
L 69.28125 38.09375 
L 69.28125 6.78125 
Q 63.578125 2.734375 56.6875 0.65625 
Q 49.8125 -1.421875 42 -1.421875 
Q 24.90625 -1.421875 15.25 8.5625 
Q 5.609375 18.5625 5.609375 36.375 
Q 5.609375 54.25 15.25 64.234375 
Q 24.90625 74.21875 42 74.21875 
Q 49.125 74.21875 55.546875 72.453125 
Q 61.96875 70.703125 67.390625 67.28125 
L 67.390625 56.78125 
Q 61.921875 61.421875 55.765625 63.765625 
Q 49.609375 66.109375 42.828125 66.109375 
Q 29.4375 66.109375 22.71875 58.640625 
Q 16.015625 51.171875 16.015625 36.375 
Q 16.015625 21.625 22.71875 14.15625 
Q 29.4375 6.6875 42.828125 6.6875 
Q 48.046875 6.6875 52.140625 7.59375 
Q 56.25 8.5 59.515625 10.40625 
z
" id="DejaVuSans-71"/>
      <path d="M 8.203125 72.90625 
L 55.078125 72.90625 
L 55.078125 68.703125 
L 28.609375 0 
L 18.3125 0 
L 43.21875 64.59375 
L 8.203125 64.59375 
z
" id="DejaVuSans-55"/>
      <path d="M 54.890625 54.6875 
L 35.109375 28.078125 
L 55.90625 0 
L 45.3125 0 
L 29.390625 21.484375 
L 13.484375 0 
L 2.875 0 
L 24.125 28.609375 
L 4.6875 54.6875 
L 15.28125 54.6875 
L 29.78125 35.203125 
L 44.28125 54.6875 
z
" id="DejaVuSans-120"/>
     </defs>
     <use xlink:href="#DejaVuSans-83"/>
     <use x="63.476562" xlink:href="#DejaVuSans-117"/>
     <use x="126.855469" xlink:href="#DejaVuSans-114"/>
     <use x="167.96875" xlink:href="#DejaVuSans-118"/>
     <use x="227.148438" xlink:href="#DejaVuSans-105"/>
     <use x="254.931641" xlink:href="#DejaVuSans-118"/>
     <use x="314.111328" xlink:href="#DejaVuSans-97"/>
     <use x="375.390625" xlink:href="#DejaVuSans-108"/>
     <use x="403.173828" xlink:href="#DejaVuSans-32"/>
     <use x="434.960938" xlink:href="#DejaVuSans-98"/>
     <use x="498.4375" xlink:href="#DejaVuSans-97"/>
     <use x="559.716797" xlink:href="#DejaVuSans-115"/>
     <use x="611.816406" xlink:href="#DejaVuSans-101"/>
     <use x="673.339844" xlink:href="#DejaVuSans-100"/>
     <use x="736.816406" xlink:href="#DejaVuSans-32"/>
     <use x="768.603516" xlink:href="#DejaVuSans-111"/>
     <use x="829.785156" xlink:href="#DejaVuSans-110"/>
     <use x="893.164062" xlink:href="#DejaVuSans-32"/>
     <use x="924.951172" xlink:href="#DejaVuSans-65"/>
     <use x="985.609375" xlink:href="#DejaVuSans-84"/>
     <use x="1046.693359" xlink:href="#DejaVuSans-71"/>
     <use x="1124.183594" xlink:href="#DejaVuSans-55"/>
     <use x="1187.806641" xlink:href="#DejaVuSans-40"/>
     <use x="1226.820312" xlink:href="#DejaVuSans-50"/>
     <use x="1290.443359" xlink:href="#DejaVuSans-41"/>
     <use x="1329.457031" xlink:href="#DejaVuSans-32"/>
     <use x="1361.244141" xlink:href="#DejaVuSans-101"/>
     <use x="1421.017578" xlink:href="#DejaVuSans-120"/>
     <use x="1480.197266" xlink:href="#DejaVuSans-112"/>
     <use x="1543.673828" xlink:href="#DejaVuSans-114"/>
     <use x="1582.537109" xlink:href="#DejaVuSans-101"/>
     <use x="1644.060547" xlink:href="#DejaVuSans-115"/>
     <use x="1696.160156" xlink:href="#DejaVuSans-115"/>
     <use x="1748.259766" xlink:href="#DejaVuSans-105"/>
     <use x="1776.042969" xlink:href="#DejaVuSans-111"/>
     <use x="1837.224609" xlink:href="#DejaVuSans-110"/>
    </g>
   </g>
   <g id="legend_1">
    <g id="patch_7">
     <path d="M 436.775 126.5525 
L 634 126.5525 
Q 638 126.5525 638 122.5525 
L 638 65.84 
Q 638 61.84 634 61.84 
L 436.775 61.84 
Q 432.775 61.84 432.775 65.84 
L 432.775 122.5525 
Q 432.775 126.5525 436.775 126.5525 
z
" style="fill:#ffffff;opacity:0.8;stroke:#cccccc;stroke-linejoin:miter;"/>
    </g>
    <g id="line2d_15">
     <path d="M 440.775 78.036875 
L 480.775 78.036875 
" style="fill:none;stroke:#008000;stroke-linecap:square;stroke-width:1.5;"/>
    </g>
    <g id="line2d_16"/>
    <g id="text_16">
     <!-- Low ATG7(2) -->
     <g transform="translate(496.775 85.036875)scale(0.2 -0.2)">
      <defs>
       <path d="M 9.8125 72.90625 
L 19.671875 72.90625 
L 19.671875 8.296875 
L 55.171875 8.296875 
L 55.171875 0 
L 9.8125 0 
z
" id="DejaVuSans-76"/>
       <path d="M 4.203125 54.6875 
L 13.1875 54.6875 
L 24.421875 12.015625 
L 35.59375 54.6875 
L 46.1875 54.6875 
L 57.421875 12.015625 
L 68.609375 54.6875 
L 77.59375 54.6875 
L 63.28125 0 
L 52.6875 0 
L 40.921875 44.828125 
L 29.109375 0 
L 18.5 0 
z
" id="DejaVuSans-119"/>
      </defs>
      <use xlink:href="#DejaVuSans-76"/>
      <use x="53.962891" xlink:href="#DejaVuSans-111"/>
      <use x="115.144531" xlink:href="#DejaVuSans-119"/>
      <use x="196.931641" xlink:href="#DejaVuSans-32"/>
      <use x="228.71875" xlink:href="#DejaVuSans-65"/>
      <use x="289.376953" xlink:href="#DejaVuSans-84"/>
      <use x="350.460938" xlink:href="#DejaVuSans-71"/>
      <use x="427.951172" xlink:href="#DejaVuSans-55"/>
      <use x="491.574219" xlink:href="#DejaVuSans-40"/>
      <use x="530.587891" xlink:href="#DejaVuSans-50"/>
      <use x="594.210938" xlink:href="#DejaVuSans-41"/>
     </g>
    </g>
    <g id="line2d_17">
     <path d="M 440.775 107.393125 
L 480.775 107.393125 
" style="fill:none;stroke:#0000ff;stroke-linecap:square;stroke-width:1.5;"/>
    </g>
    <g id="line2d_18"/>
    <g id="text_17">
     <!-- High ATG7(2) -->
     <g transform="translate(496.775 114.393125)scale(0.2 -0.2)">
      <defs>
       <path d="M 9.8125 72.90625 
L 19.671875 72.90625 
L 19.671875 43.015625 
L 55.515625 43.015625 
L 55.515625 72.90625 
L 65.375 72.90625 
L 65.375 0 
L 55.515625 0 
L 55.515625 34.71875 
L 19.671875 34.71875 
L 19.671875 0 
L 9.8125 0 
z
" id="DejaVuSans-72"/>
       <path d="M 45.40625 27.984375 
Q 45.40625 37.75 41.375 43.109375 
Q 37.359375 48.484375 30.078125 48.484375 
Q 22.859375 48.484375 18.828125 43.109375 
Q 14.796875 37.75 14.796875 27.984375 
Q 14.796875 18.265625 18.828125 12.890625 
Q 22.859375 7.515625 30.078125 7.515625 
Q 37.359375 7.515625 41.375 12.890625 
Q 45.40625 18.265625 45.40625 27.984375 
z
M 54.390625 6.78125 
Q 54.390625 -7.171875 48.1875 -13.984375 
Q 42 -20.796875 29.203125 -20.796875 
Q 24.46875 -20.796875 20.265625 -20.09375 
Q 16.0625 -19.390625 12.109375 -17.921875 
L 12.109375 -9.1875 
Q 16.0625 -11.328125 19.921875 -12.34375 
Q 23.78125 -13.375 27.78125 -13.375 
Q 36.625 -13.375 41.015625 -8.765625 
Q 45.40625 -4.15625 45.40625 5.171875 
L 45.40625 9.625 
Q 42.625 4.78125 38.28125 2.390625 
Q 33.9375 0 27.875 0 
Q 17.828125 0 11.671875 7.65625 
Q 5.515625 15.328125 5.515625 27.984375 
Q 5.515625 40.671875 11.671875 48.328125 
Q 17.828125 56 27.875 56 
Q 33.9375 56 38.28125 53.609375 
Q 42.625 51.21875 45.40625 46.390625 
L 45.40625 54.6875 
L 54.390625 54.6875 
z
" id="DejaVuSans-103"/>
       <path d="M 54.890625 33.015625 
L 54.890625 0 
L 45.90625 0 
L 45.90625 32.71875 
Q 45.90625 40.484375 42.875 44.328125 
Q 39.84375 48.1875 33.796875 48.1875 
Q 26.515625 48.1875 22.3125 43.546875 
Q 18.109375 38.921875 18.109375 30.90625 
L 18.109375 0 
L 9.078125 0 
L 9.078125 75.984375 
L 18.109375 75.984375 
L 18.109375 46.1875 
Q 21.34375 51.125 25.703125 53.5625 
Q 30.078125 56 35.796875 56 
Q 45.21875 56 50.046875 50.171875 
Q 54.890625 44.34375 54.890625 33.015625 
z
" id="DejaVuSans-104"/>
      </defs>
      <use xlink:href="#DejaVuSans-72"/>
      <use x="75.195312" xlink:href="#DejaVuSans-105"/>
      <use x="102.978516" xlink:href="#DejaVuSans-103"/>
      <use x="166.455078" xlink:href="#DejaVuSans-104"/>
      <use x="229.833984" xlink:href="#DejaVuSans-32"/>
      <use x="261.621094" xlink:href="#DejaVuSans-65"/>
      <use x="322.279297" xlink:href="#DejaVuSans-84"/>
      <use x="383.363281" xlink:href="#DejaVuSans-71"/>
      <use x="460.853516" xlink:href="#DejaVuSans-55"/>
      <use x="524.476562" xlink:href="#DejaVuSans-40"/>
      <use x="563.490234" xlink:href="#DejaVuSans-50"/>
      <use x="627.113281" xlink:href="#DejaVuSans-41"/>
     </g>
    </g>
   </g>
  </g>
 </g>
 <defs>
  <clipPath id="p496a0268f7">
   <rect height="326.16" width="558" x="90" y="51.84"/>
  </clipPath>
 </defs>
</svg>
